<?xml version="1.0" encoding="utf-8"?>
<!-- Generator: Adobe Illustrator 16.2.0, SVG Export Plug-In . SVG Version: 6.00 Build 0)  -->
<!DOCTYPE svg PUBLIC "-//W3C//DTD SVG 1.1//EN" "http://www.w3.org/Graphics/SVG/1.1/DTD/svg11.dtd">
<svg version="1.1" id="レイヤー_1" xmlns="http://www.w3.org/2000/svg" xmlns:xlink="http://www.w3.org/1999/xlink" x="0px"
	 y="0px" width="60px" height="60px" viewBox="0 0 60 60" enable-background="new 0 0 60 60" xml:space="preserve">
<g>
	<g>
		<g>
			<path fill="#003366" d="M30,0C13.455,0,0,13.457,0,30c0,16.541,13.455,30,30,30c16.542,0,30-13.459,30-30
				C60,13.457,46.542,0,30,0z M30,58.652C14.199,58.652,1.348,45.799,1.348,30V30h2.828c0.001-1.04,0.061-2.082,0.188-3.112
				l-2.808-0.34c0.141-1.157,0.349-2.293,0.623-3.404l2.74,0.674c0.249-1.011,0.559-2.006,0.928-2.978l-2.638-1
				c0.413-1.084,0.89-2.137,1.426-3.154l2.493,1.313c0.483-0.923,1.023-1.813,1.615-2.667L6.43,13.728
				c0.658-0.95,1.37-1.857,2.136-2.719l2.104,1.867c0.69-0.778,1.428-1.514,2.207-2.204l-1.868-2.107
				c0.862-0.764,1.77-1.478,2.719-2.135l1.602,2.313c0.855-0.589,1.747-1.129,2.667-1.614l-1.313-2.493
				c1.019-0.536,2.072-1.013,3.156-1.426l1.002,2.638c0.97-0.367,1.968-0.679,2.978-0.926l-0.675-2.743
				c1.11-0.274,2.246-0.483,3.403-0.623l0.338,2.808C27.919,4.238,28.961,4.176,30,4.176V1.347c1.167,0,2.319,0.072,3.45,0.208
				l-0.338,2.808c1.032,0.121,2.057,0.31,3.068,0.558l0.674-2.744c1.13,0.278,2.232,0.624,3.305,1.032l-1.001,2.638
				c0.973,0.369,1.922,0.797,2.846,1.281l1.31-2.494c1.023,0.539,2.01,1.139,2.957,1.793L44.67,8.743
				c0.855,0.593,1.673,1.238,2.455,1.929l1.866-2.106c0.861,0.764,1.677,1.58,2.442,2.442l-2.104,1.868
				c0.688,0.779,1.332,1.6,1.925,2.455l2.316-1.603c0.654,0.946,1.254,1.934,1.794,2.958l-2.494,1.313
				c0.481,0.922,0.912,1.87,1.28,2.842l2.639-1.001c0.408,1.072,0.754,2.175,1.031,3.305l-2.742,0.674
				c0.247,1.011,0.436,2.036,0.558,3.07l2.808-0.34c0.138,1.132,0.209,2.284,0.209,3.453C58.652,45.799,45.798,58.652,30,58.652z"/>
		</g>
		<path fill="#003366" d="M30,8.262c11.987,0,21.738,9.75,21.738,21.739c0,11.986-9.751,21.738-21.738,21.738
			C18.012,51.738,8.262,41.986,8.262,30C8.262,18.012,18.012,8.262,30,8.262 M30,6.987C17.311,6.987,6.986,17.311,6.986,30
			c0,12.689,10.324,23.013,23.014,23.013c12.69,0,23.014-10.324,23.014-23.013C53.014,17.311,42.69,6.987,30,6.987L30,6.987z"/>
		<polygon fill="#003366" points="7.697,37.844 6.279,36.816 6.971,35.209 6.389,33.1 2.29,33.662 2.871,35.77 4.729,35.516 
			4.168,37.398 5.615,38.729 3.887,39.461 4.469,41.57 8.278,39.953 		"/>
		<path fill="#003366" d="M16.95,49.824l-1.383-0.93l-0.458-0.307l-1.37-0.922l-2.391,3.303l1.827,1.229l1.754-2.422l0.996,0.67
			c0.334,0.225,0.252,0.891-0.26,0.955c-0.512,0.066-1.077-0.217-1.077-0.217l0.413,2.242l2.055,1.383l-0.344-1.867
			c0,0,1.265,0.127,1.743-0.533C19.148,51.451,17.864,50.439,16.95,49.824z"/>
		<polygon fill="#003366" points="19.816,55.77 21.707,56.438 22.975,52.934 21.083,52.268 		"/>
		<g>
			<path fill="#003366" d="M28.085,53.633c-1.807-0.143-3.365,0.688-3.478,1.85c-0.111,1.164,1.264,2.219,3.072,2.361
				c1.809,0.141,3.367-0.688,3.479-1.852C31.271,54.83,29.895,53.773,28.085,53.633z M27.822,56.357
				c-0.531-0.041-0.936-0.354-0.903-0.695c0.034-0.342,0.491-0.584,1.023-0.543s0.937,0.352,0.902,0.693
				C28.812,56.154,28.354,56.398,27.822,56.357z"/>
		</g>
		<polygon fill="#003366" points="11.1,44.453 10.774,44.023 9.799,42.742 5.653,44.018 6.954,45.729 10.271,44.707 8.255,47.439 
			9.555,49.15 12.075,45.734 		"/>
		<polygon fill="#003366" points="40.962,51.441 38.58,52.201 37.363,54.521 36.728,52.793 34.612,53.471 35.972,57.174 
			38.087,56.498 37.453,54.77 39.939,55.904 42.321,55.145 39.656,53.928 		"/>
		<polygon fill="#003366" points="44.749,48.734 44.313,49.059 43.004,50.029 44.456,53.963 46.202,52.67 45.04,49.521 
			47.948,51.373 49.693,50.078 46.057,47.764 		"/>
		<path fill="#003366" d="M52.809,40.844c-1.01-0.652-2.026,0.623-2.643,1.529l-0.934,1.371l-0.308,0.453l-0.923,1.359l3.483,2.252
			l1.23-1.811l-2.554-1.652l0.672-0.988c0.224-0.332,0.916-0.268,0.996,0.23c0.08,0.496-0.199,1.055-0.199,1.055l2.316-0.457
			l1.385-2.037l-1.93,0.381C53.402,42.529,53.506,41.293,52.809,40.844z"/>
		<polygon fill="#003366" points="54.975,32.572 53.932,32.336 53.457,34.404 52.984,36.473 52.508,38.539 53.55,38.775 
			54.025,36.707 56.891,37.355 57.365,35.287 54.5,34.641 		"/>
		<path fill="#003366" d="M53.004,30c0-0.94-0.059-1.868-0.169-2.778l2.802-0.335c-0.121-1.033-0.308-2.058-0.557-3.069
			l-2.745,0.675c-0.224-0.905-0.501-1.79-0.827-2.649l2.646-1.004c-0.369-0.973-0.797-1.921-1.282-2.842l-2.505,1.317
			c-0.434-0.821-0.914-1.614-1.44-2.373l2.331-1.611c-0.592-0.857-1.239-1.677-1.926-2.456l-2.121,1.881
			c-0.615-0.694-1.271-1.352-1.965-1.966l1.878-2.119c-0.777-0.69-1.597-1.336-2.452-1.928l-1.611,2.333
			c-0.76-0.526-1.552-1.008-2.373-1.44l1.317-2.508c-0.92-0.483-1.872-0.912-2.845-1.28l-1.002,2.646
			c-0.858-0.328-1.745-0.605-2.649-0.829l0.674-2.745c-1.009-0.249-2.035-0.437-3.066-0.557l-0.339,2.802
			C31.865,7.055,30.939,6.997,30,6.997V4.174c-1.038,0-2.079,0.063-3.112,0.188l0.337,2.802c-0.929,0.112-1.84,0.28-2.731,0.5
			l-0.674-2.745c-1.008,0.249-2.005,0.56-2.977,0.927l1.002,2.646c-0.869,0.331-1.713,0.713-2.53,1.143l-1.316-2.508
			c-0.919,0.485-1.811,1.026-2.669,1.616l1.612,2.333c-0.763,0.528-1.491,1.101-2.184,1.715l-1.883-2.119
			c-0.776,0.688-1.513,1.425-2.204,2.204l2.12,1.881c-0.614,0.693-1.188,1.422-1.716,2.186l-2.329-1.611
			c-0.591,0.853-1.131,1.744-1.616,2.667l2.505,1.317c-0.429,0.815-0.811,1.659-1.14,2.528L5.85,20.84
			c-0.369,0.971-0.68,1.967-0.928,2.978l2.744,0.674c-0.219,0.891-0.388,1.802-0.5,2.73l-2.802-0.335
			C4.238,27.918,4.182,28.959,4.179,30L1.348,30c0-1.17,0.072-2.321,0.209-3.454l2.808,0.34c0.123-1.033,0.312-2.058,0.558-3.069
			L2.18,23.144c0.277-1.13,0.623-2.232,1.031-3.305L5.85,20.84c0.369-0.973,0.797-1.921,1.28-2.842l-2.494-1.313
			c0.54-1.024,1.141-2.012,1.796-2.959l2.314,1.604c0.593-0.857,1.236-1.677,1.925-2.456l-2.104-1.868
			c0.765-0.862,1.58-1.678,2.442-2.442l1.865,2.106c0.782-0.69,1.602-1.336,2.454-1.928L13.73,6.427
			c0.946-0.655,1.933-1.254,2.956-1.793l1.312,2.493c0.922-0.483,1.872-0.912,2.845-1.28L19.84,3.208
			c1.073-0.408,2.178-0.753,3.307-1.031l0.673,2.742c1.012-0.249,2.036-0.437,3.068-0.557L26.55,1.555
			c1.132-0.137,2.283-0.208,3.45-0.208v2.828c1.041,0,2.082,0.063,3.115,0.188l0.338-2.808c1.157,0.14,2.293,0.349,3.403,0.623
			l-0.675,2.742c1.01,0.249,2.008,0.56,2.978,0.927l1.002-2.638c1.085,0.413,2.138,0.89,3.157,1.426l-1.314,2.492
			c0.92,0.485,1.812,1.026,2.667,1.616l1.602-2.314c0.949,0.658,1.857,1.371,2.719,2.135l-1.868,2.107
			c0.779,0.688,1.517,1.425,2.208,2.204l2.104-1.867c0.765,0.862,1.479,1.77,2.136,2.718l-2.314,1.604
			c0.591,0.853,1.131,1.744,1.614,2.667l2.494-1.313c0.537,1.016,1.012,2.07,1.425,3.154l-2.637,1
			c0.368,0.971,0.679,1.967,0.927,2.978l2.742-0.674c0.273,1.11,0.482,2.246,0.621,3.403l-2.807,0.34
			c0.127,1.031,0.187,2.073,0.188,3.113L53.004,30z"/>
	</g>
	<polygon fill="#003366" points="28.009,15.103 30.001,14.057 31.993,15.103 31.611,12.885 33.227,11.313 30.996,10.99 
		30.001,8.971 29.003,10.99 26.775,11.313 28.389,12.885 	"/>
	<polygon fill="#003366" points="33.985,15.1 35.191,14.714 36.194,15.488 36.199,14.223 37.247,13.507 36.045,13.112 
		35.688,11.896 34.94,12.917 33.673,12.878 34.413,13.907 	"/>
	<polygon fill="#003366" points="23.806,15.488 24.809,14.714 26.015,15.1 25.587,13.907 26.326,12.878 25.06,12.917 24.312,11.896 
		23.957,13.112 22.754,13.507 23.8,14.223 	"/>
	<polygon fill="#003366" points="37.217,16.15 38.586,16.374 39.181,17.628 39.816,16.396 41.192,16.22 40.217,15.234 40.476,13.87 
		39.235,14.495 38.018,13.826 38.23,15.199 	"/>
	<polygon fill="#003366" points="20.185,16.394 20.819,17.628 21.412,16.374 22.782,16.15 21.77,15.199 21.983,13.826 
		20.765,14.495 19.524,13.87 19.783,15.234 18.808,16.22 	"/>
	<polygon fill="#00A0CD" points="31.502,27.553 30.029,25.139 28.499,27.553 30.029,29.787 	"/>
	<path fill="#000D49" d="M13.059,23.308l2.06,0.965l1.126,2.131l-0.536,1.249c-0.05,0.12-0.053,0.252-0.009,0.374l1.094,2.942
		c0.046,0.126,0.141,0.228,0.265,0.283l0.911,0.406c0.26,1.047,1.303,5.494,1.75,10.734c-0.369,0.316-0.746,0.887-0.615,1.701
		c0.079,0.473,0.291,1.559,0.398,2.066c0.267,1.268,1.057,1.494,1.528,1.629c0.047,0.012,0.088,0.025,0.129,0.037
		c0.402,0.125,4.321,1.004,8.806,1.004c0.013,0,0.023-0.008,0.036-0.008s0.022,0.008,0.035,0.008c4.488,0,8.406-0.879,8.805-1.004
		c0.042-0.012,0.084-0.025,0.128-0.037c0.473-0.135,1.266-0.361,1.53-1.629c0.107-0.508,0.319-1.59,0.397-2.066
		c0.129-0.814-0.246-1.385-0.618-1.701c0.451-5.236,1.495-9.688,1.756-10.734l0.908-0.406c0.124-0.055,0.22-0.156,0.269-0.283
		l1.091-2.942c0.047-0.122,0.042-0.254-0.009-0.374l-0.535-1.249l1.126-2.131l2.06-0.965c0.176-0.082,0.289-0.261,0.287-0.458
		l-0.011-3.836c-0.003-0.17-0.088-0.329-0.229-0.42c-0.142-0.093-0.32-0.11-0.476-0.042l-3.557,1.525
		c-0.179,0.077-0.295,0.245-0.305,0.438l-0.117,2.196l-2.445,2.38l-0.741-1.382l1.127-1.363c0.133-0.159,0.155-0.381,0.056-0.563
		l-1.176-2.156c-0.074-0.134-0.203-0.228-0.352-0.252c-0.148-0.03-0.303,0.012-0.42,0.109l-2.071,1.764
		c-0.145,0.125-0.209,0.319-0.164,0.504l0.325,1.312l-1.822,1.716l-3.027-4.125c-0.02-0.025-0.046-0.04-0.068-0.062l1.372-1.528
		c0.005-0.005,0.005-0.012,0.009-0.018c0.218-0.222,0.229-0.576,0.021-0.808L30.47,15.3c-0.125-0.136-0.299-0.192-0.47-0.183
		c-0.171-0.01-0.344,0.046-0.469,0.183l-2.689,2.941c-0.21,0.23-0.198,0.579,0.017,0.802c0.006,0.007,0.007,0.016,0.012,0.024
		l1.36,1.539c-0.018,0.019-0.041,0.029-0.057,0.051l-3.027,4.125l-1.819-1.716l0.322-1.312c0.046-0.185-0.018-0.379-0.163-0.504
		l-2.072-1.764c-0.116-0.097-0.27-0.139-0.42-0.109c-0.146,0.025-0.276,0.118-0.35,0.252l-1.178,2.156
		c-0.098,0.182-0.074,0.404,0.057,0.563l1.127,1.363l-0.741,1.382l-2.447-2.38l-0.114-2.196c-0.011-0.193-0.131-0.361-0.305-0.438
		l-3.556-1.525c-0.158-0.067-0.338-0.051-0.478,0.042c-0.142,0.091-0.226,0.25-0.226,0.42l-0.016,3.836
		C12.767,23.047,12.881,23.226,13.059,23.308z"/>
	<path fill="#FFEE7B" d="M13.788,19.779l2.567,1.102l0.11,2.083c0.009,0.127,0.062,0.244,0.151,0.334l3.068,2.982
		c0.112,0.11,0.271,0.159,0.428,0.137c0.155-0.024,0.293-0.121,0.366-0.259l1.22-2.27c0.097-0.181,0.075-0.402-0.057-0.56
		l-1.125-1.361l0.715-1.312l1.365,1.159l-0.319,1.294c-0.043,0.177,0.01,0.363,0.144,0.489l2.123,2.002l-2.442,3.326l-2.665-2.107
		c-0.104-0.094-0.262-0.088-0.357,0.013c-0.095,0.104-0.09,0.262,0.014,0.357l2.702,2.989c0.201,0.188,0.493,0.197,0.712,0.055
		c0.09-0.04,0.169-0.102,0.229-0.184l6.28-8.552l0.193,0.218c0.082,0.112,0.239,0.136,0.352,0.055
		c0.111-0.083,0.136-0.242,0.056-0.353l-1.603-2.714L30,16.531l1.984,2.169l-1.621,2.699c-0.083,0.112-0.06,0.271,0.053,0.353
		s0.271,0.058,0.353-0.055l0.199-0.223l6.296,8.575c0.061,0.082,0.139,0.143,0.227,0.184c0.222,0.143,0.514,0.133,0.715-0.055
		l2.722-2.968c0.104-0.094,0.11-0.255,0.014-0.355c-0.095-0.103-0.254-0.109-0.358-0.014L37.9,28.93l-2.444-3.33l2.124-2.002
		c0.13-0.125,0.188-0.312,0.143-0.489l-0.316-1.294l1.363-1.159l0.715,1.312l-1.127,1.361c-0.131,0.158-0.152,0.379-0.054,0.56
		l1.217,2.27c0.075,0.138,0.211,0.235,0.368,0.259c0.155,0.023,0.313-0.027,0.425-0.137l3.07-2.982
		c0.089-0.09,0.146-0.207,0.149-0.334l0.111-2.083l2.569-1.102l0.01,2.753l-1.922,0.901c-0.099,0.045-0.181,0.123-0.231,0.222
		l-1.319,2.493c-0.07,0.133-0.076,0.292-0.014,0.433l0.119,0.28l-0.946,1.79l-0.391,2.132L41.4,30.835
		c-0.144,0.063-0.244,0.186-0.285,0.333c-0.014,0.053-1.361,5.24-1.863,11.43c-0.017,0.197,0.092,0.387,0.262,0.484
		c0.05,0.027,0.478,0.287,0.388,0.85c-0.071,0.447-0.284,1.52-0.388,2.02c-0.144,0.676-0.426,0.756-0.818,0.867
		c-0.055,0.016-0.105,0.031-0.156,0.045c-0.379,0.119-4.139,0.959-8.503,0.959c-0.013,0-0.022,0.004-0.035,0.006
		c-0.013-0.002-0.023-0.006-0.036-0.006c-4.361,0-8.122-0.84-8.503-0.959c-0.052-0.014-0.104-0.029-0.155-0.045
		c-0.393-0.111-0.677-0.191-0.818-0.867c-0.107-0.504-0.315-1.576-0.387-2.02c-0.093-0.564,0.337-0.822,0.381-0.848
		c0.177-0.092,0.282-0.283,0.266-0.486c-0.502-6.189-1.85-11.377-1.863-11.43c-0.037-0.146-0.142-0.269-0.282-0.333l-0.121-0.054
		l-0.393-2.132l-0.945-1.79l0.12-0.28c0.061-0.141,0.056-0.3-0.016-0.433l-1.317-2.493c-0.05-0.099-0.132-0.176-0.231-0.222
		l-1.92-0.901L13.788,19.779z"/>
	<path fill="#000D49" d="M27.174,39.744c-0.286-0.152-0.11,0.191-0.535,0.602c-0.406,0.387-0.691,0.234-0.6,0.498
		c0.082,0.254,0.803-0.084,0.803-0.084S27.92,42.188,30,42.188s3.159-1.428,3.159-1.428s0.719,0.338,0.804,0.084
		c0.088-0.264-0.191-0.111-0.601-0.498c-0.423-0.41-0.249-0.754-0.536-0.602c-0.211,0.107,0.096,0.727,0.096,0.727
		S31.763,41.646,30,41.646s-2.922-1.176-2.922-1.176S27.385,39.852,27.174,39.744z"/>
	<ellipse fill="#000D49" cx="26.239" cy="35.338" rx="1.394" ry="2.689"/>
	<ellipse fill="#FFFFFF" cx="26.239" cy="34.473" rx="0.655" ry="1.266"/>
	<ellipse fill="#000D49" cx="33.762" cy="35.338" rx="1.393" ry="2.689"/>
	<ellipse fill="#FFFFFF" cx="33.762" cy="34.473" rx="0.657" ry="1.266"/>
	<path fill="#003366" d="M22.396,43.656c0.221,0.066,0.488,0.152,0.797,0.244c0.156,0.049,0.324,0.098,0.497,0.15
		c0.176,0.051,0.362,0.074,0.555,0.115c0.388,0.08,0.808,0.16,1.255,0.23c0.225,0.041,0.456,0.078,0.69,0.119
		c0.235,0.049,0.476,0.041,0.723,0.066c0.492,0.033,1,0.086,1.518,0.102c0.519,0.023,1.044,0.047,1.57,0.072
		c0.525-0.025,1.053-0.049,1.571-0.072c0.514-0.021,1.017-0.068,1.503-0.102c0.482-0.016,0.963-0.107,1.414-0.186
		c0.451-0.07,0.876-0.152,1.265-0.23c0.194-0.043,0.382-0.068,0.556-0.117c0.175-0.051,0.339-0.104,0.494-0.148
		c0.308-0.096,0.575-0.178,0.798-0.242c0.222-0.059,0.387-0.15,0.502-0.193c0.115-0.047,0.177-0.07,0.177-0.07l-0.02-0.064
		c0,0-0.062,0.016-0.182,0.041c-0.117,0.025-0.288,0.076-0.515,0.109c-0.224,0.037-0.494,0.086-0.809,0.139
		c-0.154,0.027-0.321,0.055-0.496,0.084c-0.177,0.027-0.361,0.039-0.555,0.061c-0.39,0.039-0.809,0.082-1.253,0.127
		c-0.444,0.047-0.908,0.102-1.398,0.102c-0.975,0.031-2.016,0.063-3.053,0.094c-1.039-0.031-2.077-0.063-3.053-0.094
		c-0.486,0-0.955-0.055-1.399-0.102c-0.443-0.045-0.864-0.088-1.252-0.127c-0.192-0.021-0.381-0.033-0.555-0.061
		c-0.176-0.029-0.342-0.057-0.497-0.084c-0.313-0.053-0.585-0.098-0.809-0.139c-0.223-0.033-0.394-0.084-0.515-0.109
		c-0.119-0.025-0.183-0.041-0.183-0.041l-0.018,0.064c0,0,0.062,0.025,0.175,0.07C22.014,43.512,22.172,43.6,22.396,43.656z"/>
	<path fill="#490D00" d="M28.935,30.67c0.278,0.406,0.655,0.628,1.065,0.628c0.409,0,0.787-0.223,1.077-0.646l1.134-1.992
		c0.533-0.784,0.533-1.338,0.011-2.105l-1.155-2.026c-0.279-0.407-0.657-0.63-1.066-0.63c-0.41,0-0.787,0.224-1.076,0.647
		l-1.132,1.991c-0.535,0.785-0.535,1.338-0.012,2.105L28.935,30.67z"/>
	<path fill="#EF2534" d="M28.221,26.806l1.131-1.991c0.18-0.265,0.412-0.411,0.648-0.411c0.239,0,0.47,0.146,0.639,0.393
		l1.155,2.026c0.417,0.611,0.417,0.945-0.012,1.572l-1.134,1.992C30.47,30.65,30.239,30.795,30,30.795
		c-0.236,0-0.469-0.146-0.638-0.394l-1.154-2.026C27.791,27.767,27.791,27.434,28.221,26.806z"/>
	<path fill="#003366" d="M46.785,26.695c0.115,0.758,0.533,1.319,0.776,1.594c-0.002,0.598-0.035,1.318-0.123,2.133
		c-0.061-0.291-0.169-0.615-0.365-0.928c-0.558-0.885-1.368-0.959-1.368-0.959s-0.282,0.762,0.277,1.646
		c0.412,0.654,1.041,0.992,1.342,1.125c-0.084,0.557-0.193,1.148-0.338,1.768c-0.055-0.355-0.186-0.814-0.485-1.238
		c-0.603-0.855-1.414-0.884-1.414-0.884s-0.241,0.775,0.362,1.628c0.447,0.633,1.094,0.938,1.4,1.053
		c-0.163,0.629-0.36,1.283-0.601,1.955c-0.043-0.367-0.164-0.883-0.499-1.357c-0.604-0.855-1.417-0.889-1.417-0.889
		s-0.24,0.777,0.363,1.633c0.443,0.627,1.083,0.932,1.393,1.049c-0.27,0.709-0.586,1.436-0.956,2.174
		c0.002-0.414-0.063-1.014-0.374-1.592c-0.551-1.023-1.444-1.168-1.444-1.168s-0.369,0.826,0.184,1.85
		c0.408,0.758,1.084,1.182,1.406,1.35c-0.379,0.715-0.813,1.439-1.304,2.166c0.06-0.432,0.081-1.135-0.214-1.84
		c-0.478-1.137-1.404-1.381-1.404-1.381s-0.476,0.834,0.001,1.971c0.369,0.879,1.079,1.402,1.384,1.596
		c-0.331,0.473-0.688,0.945-1.074,1.418l-0.021,0.027c-0.056,0.068-0.045,0.168,0.022,0.225c0.03,0.025,0.065,0.037,0.103,0.037
		c0.047,0,0.092-0.02,0.124-0.059l0.021-0.025c0.14-0.172,0.272-0.344,0.403-0.514c0.338,0.143,1.343,0.5,2.46,0.242
		c1.372-0.316,1.827-1.311,1.827-1.311s-0.844-0.697-2.218-0.381c-0.668,0.154-1.202,0.488-1.577,0.791
		c0.416-0.576,0.797-1.152,1.141-1.725c0.329,0.123,1.25,0.404,2.253,0.137c1.254-0.334,1.641-1.266,1.641-1.266
		s-0.8-0.615-2.054-0.279c-0.681,0.182-1.196,0.563-1.532,0.875c0.354-0.625,0.666-1.246,0.942-1.857
		c0.335,0.084,1.182,0.234,2.049-0.1c1.116-0.428,1.38-1.318,1.38-1.318s-0.791-0.484-1.907-0.057
		c-0.565,0.217-0.985,0.58-1.265,0.887c0.245-0.582,0.461-1.156,0.645-1.717c0.298,0.025,1.115,0.039,1.87-0.414
		c0.944-0.566,1.042-1.416,1.042-1.416s-0.796-0.314-1.74,0.252c-0.459,0.277-0.774,0.652-0.979,0.969
		c0.189-0.633,0.343-1.244,0.468-1.828c0.303-0.014,1.11-0.102,1.801-0.641c0.868-0.678,0.861-1.533,0.861-1.533
		s-0.828-0.215-1.695,0.464c-0.403,0.314-0.666,0.705-0.834,1.033c0.111-0.611,0.19-1.187,0.245-1.724
		c0.268-0.085,1.052-0.387,1.582-1.115c0.649-0.891,0.408-1.711,0.408-1.711s-0.855,0.021-1.505,0.91
		c-0.186,0.254-0.311,0.521-0.396,0.773c0.018-0.36,0.026-0.693,0.026-0.995c0.149-0.348,0.357-0.986,0.245-1.715
		c-0.167-1.089-0.917-1.5-0.917-1.5S46.617,25.606,46.785,26.695z"/>
	<path fill="#003366" d="M17.056,42.258c0.131,0.17,0.264,0.342,0.403,0.514l0.021,0.025c0.032,0.039,0.077,0.059,0.124,0.059
		c0.037,0,0.073-0.012,0.103-0.037c0.067-0.057,0.078-0.156,0.022-0.225l-0.021-0.027c-0.385-0.473-0.743-0.945-1.074-1.418
		c0.305-0.193,1.015-0.717,1.384-1.596c0.477-1.137,0.001-1.971,0.001-1.971s-0.927,0.244-1.404,1.381
		c-0.295,0.705-0.273,1.408-0.214,1.84c-0.491-0.727-0.925-1.451-1.304-2.166c0.322-0.168,0.998-0.592,1.406-1.35
		c0.553-1.023,0.184-1.85,0.184-1.85s-0.894,0.145-1.444,1.168c-0.312,0.578-0.376,1.178-0.374,1.592
		c-0.37-0.738-0.687-1.465-0.955-2.174c0.31-0.117,0.947-0.422,1.392-1.049c0.604-0.855,0.363-1.633,0.363-1.633
		s-0.813,0.033-1.417,0.889c-0.335,0.475-0.456,0.99-0.499,1.357c-0.24-0.672-0.438-1.326-0.601-1.955
		c0.307-0.115,0.953-0.42,1.402-1.053c0.604-0.854,0.36-1.628,0.36-1.628s-0.812,0.029-1.414,0.884
		c-0.3,0.424-0.431,0.883-0.486,1.236c-0.144-0.617-0.253-1.209-0.337-1.766c0.301-0.133,0.93-0.47,1.342-1.125
		c0.56-0.885,0.277-1.646,0.277-1.646s-0.811,0.074-1.368,0.959c-0.196,0.313-0.305,0.637-0.365,0.928
		c-0.088-0.814-0.121-1.535-0.123-2.133c0.243-0.275,0.659-0.836,0.775-1.594c0.168-1.089-0.424-1.706-0.424-1.706
		s-0.75,0.411-0.917,1.5c-0.112,0.729,0.096,1.368,0.245,1.715c0,0.301,0.009,0.635,0.027,0.996
		c-0.087-0.253-0.212-0.521-0.397-0.774c-0.649-0.89-1.505-0.91-1.505-0.91s-0.241,0.82,0.408,1.711
		c0.536,0.735,1.323,1.033,1.581,1.115c0.056,0.537,0.135,1.113,0.246,1.724c-0.168-0.33-0.431-0.719-0.832-1.033
		c-0.869-0.679-1.697-0.464-1.697-0.464s-0.007,0.855,0.861,1.533c0.69,0.539,1.499,0.627,1.801,0.641
		c0.125,0.584,0.278,1.195,0.468,1.828c-0.205-0.316-0.521-0.691-0.979-0.969c-0.944-0.566-1.74-0.252-1.74-0.252
		s0.098,0.85,1.041,1.416c0.756,0.453,1.572,0.439,1.871,0.414c0.184,0.559,0.399,1.133,0.644,1.715
		c-0.279-0.305-0.698-0.668-1.264-0.885c-1.115-0.428-1.907,0.057-1.907,0.057s0.265,0.891,1.38,1.318
		c0.867,0.334,1.714,0.184,2.049,0.1c0.276,0.611,0.588,1.232,0.942,1.859c-0.336-0.313-0.852-0.695-1.532-0.877
		c-1.254-0.336-2.053,0.279-2.053,0.279s0.387,0.932,1.64,1.266c1.003,0.268,1.924-0.014,2.253-0.139
		c0.344,0.574,0.725,1.15,1.141,1.727c-0.374-0.303-0.909-0.637-1.577-0.791c-1.373-0.316-2.218,0.381-2.218,0.381
		s0.455,0.994,1.827,1.311C15.713,42.758,16.718,42.4,17.056,42.258z"/>
</g>
</svg>
