<?xml version="1.0" encoding="utf-8"?>
<!-- Generator: Adobe Illustrator 16.2.0, SVG Export Plug-In . SVG Version: 6.00 Build 0)  -->
<!DOCTYPE svg PUBLIC "-//W3C//DTD SVG 1.1//EN" "http://www.w3.org/Graphics/SVG/1.1/DTD/svg11.dtd">
<svg version="1.1" id="レイヤー_1" xmlns="http://www.w3.org/2000/svg" xmlns:xlink="http://www.w3.org/1999/xlink" x="0px"
	 y="0px" width="60px" height="60px" viewBox="0 0 60 60" enable-background="new 0 0 60 60" xml:space="preserve">
<g>
	<g>
		<path fill="#00A0CD" d="M28.739,43.244h1.376c5.171-0.412,9.058-2.182,11.865-4.99c0.187-0.188,0.37-0.459,0.56-0.561
			c0.191-0.102,0.41-0.145,0.586-0.229c1.191-0.566,2.167-1.531,2.878-2.65c0.786-1.234,1.227-3.104,0.991-5.167
			c1.363-1.107,2.662-2.278,2.904-4.505v-0.69c-0.346-2.828-1.91-4.438-4.761-4.759c-1.462-2.45-3.36-4.523-5.731-6.061
			c-2.354-1.53-5.12-2.82-8.783-3.005H29.3c-4.952,0.281-8.738,2.246-11.256,5.12c-2.539,2.9-4.16,6.842-4.53,11.764
			c-1.91,0.5-3.105,1.715-3.413,3.818v0.586c0.401,2.711,2.54,3.688,5.373,3.971C18.079,40.156,22.209,42.9,28.739,43.244z"/>
		<path fill="#00A0CD" d="M16.977,35.936c0.328,0.018,0.582-0.043,0.916-0.025c0.377,0.854,0.872,1.588,1.962,1.732
			c0.76,1.199,1.734,2.186,2.877,3.004C20.337,39.672,18.307,37.975,16.977,35.936z"/>
		<path fill="#00A0CD" d="M26.806,41.846c-0.594-0.092-1.227-0.16-1.707-0.332c-0.459-0.168-0.949-0.486-1.376-0.764
			c-1.259-0.826-2.392-1.98-3.132-3.26c0.475-0.4,0.869-1.018,0.74-1.936c0.785-0.189,1.658-0.293,2.443-0.484h0.05
			c1.572,3.537,3.971,6.25,8.608,6.723C30.653,42.156,28.597,42.117,26.806,41.846z"/>
		<path fill="#00A0CD" d="M38.619,39.604c-0.952,0.568-2.071,1.109-3.261,1.504c-0.436,0.143-0.923,0.33-1.348,0.379
			c-1.238,0.15-2.561-0.18-3.515-0.533c-2.898-1.072-4.942-3.32-6.085-6.012c0.924-0.221,1.852-0.436,2.75-0.686h0.052
			c0.432,1.311,2.06,2.563,3.794,1.859c1.832,1.855,4.098,3.537,7.816,3.336C38.898,39.52,38.707,39.551,38.619,39.604z"/>
		<path fill="#00A0CD" d="M45.621,33.594c-0.865,1.82-2.633,3.529-5.346,3.361c-1.799-0.111-2.942-1.037-4.024-2.037
			c0.287,0.936,0.997,1.594,1.732,2.088c0.75,0.504,1.688,0.889,2.826,0.967c0.015,0.07-0.12,0.162-0.229,0.254
			c-0.228,0.197-0.686,0.639-0.968,0.738c-0.338,0.123-0.917,0.1-1.352,0.08c-1.285-0.068-2.479-0.477-3.386-0.895
			c-1.372-0.629-2.408-1.498-3.234-2.443c0.754-0.561,0.952-2.162,0.588-3.311c1.757-0.977,3.561-1.902,5.297-2.903
			c0.407,1.69,1.607,3.418,3.638,3.54c1.524,0.094,2.604-0.805,2.776-2.19c-0.201,0.14-0.408,0.493-0.713,0.612
			c0.231-0.65,0.419-1.775,0.229-2.75c-0.035-0.178-0.138-0.4-0.127-0.51c0.025-0.208,0.471-0.572,0.788-0.765
			c0.301-0.179,0.797-0.431,1.197-0.278c0.35,0.13,0.535,0.996,0.638,1.375c0.159,0.604,0.257,1.111,0.279,1.706
			C46.291,31.662,46.032,32.734,45.621,33.594z"/>
		<path fill="#00A0CD" d="M34.597,12.639c0.461,0.094,0.973,0.343,1.452,0.559c3.148,1.415,5.847,3.748,7.51,6.52
			c-2.566,0.317-4.465,1.371-6.416,2.394c-0.222,0.116-0.688,0.407-0.84,0.407c-0.158-0.003-0.668-0.371-0.841-0.458
			c-0.883-0.447-1.723-0.836-2.953-0.893c-0.58-1.916-1.443-3.548-2.268-5.218c1.141-1.323,2.664-2.456,4.253-3.261
			C34.521,12.675,34.539,12.626,34.597,12.639z"/>
		<path fill="#00A0CD" d="M18.274,26.186c0.401-2.23,0.94-4.324,1.502-6.393c1.191-0.917,2.653-1.648,4.201-2.266
			c1.57-0.628,3.211-1.203,5.066-1.374c0.047-0.004,0.152-0.064,0.282-0.028c0.134,0.039,0.247,0.466,0.329,0.663
			c0.684,1.576,1.534,3.259,2.291,4.662c-0.813,1.247-1.412,2.711-1.907,4.276c-2.229,1.172-4.804,2.268-7.666,2.979
			c-0.331,0.084-0.95,0.326-1.22,0.279c-0.215-0.036-0.541-0.521-0.716-0.711C19.743,27.516,19.005,26.86,18.274,26.186z"/>
		<path fill="#00A0CD" d="M19.93,29.19c-1.169,0.172-2.589,0.2-3.745,0c0.396-0.98,0.989-1.763,1.607-2.522
			C18.508,27.489,19.27,28.395,19.93,29.19z"/>
		<path fill="#00A0CD" d="M32.433,21.728c1.09,0.292,1.962,0.805,2.826,1.326c-1.302,0.684-2.607,1.364-3.947,2.012
			C31.637,23.904,32.04,22.822,32.433,21.728z"/>
		<path fill="#00A0CD" d="M20.363,15.389c2.181-1.79,5.137-3.239,8.808-3.413c1.445-0.069,2.761,0.07,3.999,0.281
			c-1.438,0.793-2.628,1.835-3.615,3.081c-4.556-0.057-7.365,1.633-9.931,3.564c-0.56-0.34-0.987-0.812-1.224-1.476
			C18.864,16.631,19.614,16.002,20.363,15.389z"/>
		<path fill="#00A0CD" d="M14.915,27.51c0-1.644,0.362-3.098,0.736-4.38c0.539-1.849,1.241-3.444,2.088-4.813
			c0.344,0.465,0.767,0.846,1.299,1.122c-0.564,1.799-1.095,3.63-1.399,5.704c-0.045,0.297,0.007,0.672-0.078,0.916
			c-0.063,0.188-0.479,0.416-0.687,0.61c-0.687,0.643-1.265,1.383-1.655,2.243C14.778,28.638,14.915,27.988,14.915,27.51z"/>
		<path fill="#00A0CD" d="M11.526,32.576c-0.305-0.891-0.109-1.885,0.255-2.574c0.368-0.693,0.835-1.129,1.655-1.475
			c0.085,0.668,0.653,1.062,1.274,1.272c0.848,0.288,1.919,0.364,2.954,0.384c3.233,0.048,5.998-0.775,8.326-1.631
			c3.148-1.158,6.181-2.836,8.988-4.277c1.395-0.719,2.812-1.522,4.43-2.216c1.53-0.656,3.254-1.412,5.373-1.171
			c1.992,0.226,3.359,1.111,3.77,2.875c0.494,2.125-0.576,3.793-1.654,4.866c-0.001,0.025-0.032,0.02-0.053,0.025
			c-0.306-0.996-0.402-2.357-1.247-2.852c-1.239-0.728-2.975-0.108-4.101,0.407c-2.146,0.988-4.039,2.314-6.033,3.386
			c-2.658,1.429-5.753,2.82-8.836,3.744c-3.123,0.934-7.123,1.656-11.051,1.475C13.615,34.727,12.026,34.021,11.526,32.576z"/>
	</g>
	<polygon fill="#003366" points="30.776,46.67 30.001,45.092 29.224,46.67 27.487,46.918 28.742,48.145 28.447,49.875 
		30.001,49.061 31.555,49.875 31.257,48.145 32.514,46.918 	"/>
	<polygon fill="#003366" points="38.618,45.252 37.281,45.586 36.249,44.674 36.153,46.049 34.968,46.752 36.245,47.266 
		36.546,48.609 37.431,47.555 38.802,47.684 38.071,46.516 	"/>
	<polygon fill="#003366" points="23.753,44.674 22.72,45.586 21.382,45.252 21.929,46.516 21.198,47.684 22.57,47.555 
		23.455,48.609 23.755,47.266 25.033,46.752 23.847,46.049 	"/>
	<path fill="#003366" d="M16.747,42.711c0.367,0.375,0.77,0.744,1.209,1.105c-0.323-0.104-0.762-0.186-1.238-0.1
		c-0.961,0.176-1.307,0.893-1.307,0.893s0.564,0.553,1.526,0.379c0.732-0.133,1.254-0.607,1.46-0.826
		c0.507,0.383,1.056,0.752,1.654,1.092l0.132-0.268c-0.276-0.156-0.539-0.32-0.794-0.488c0.167-0.238,0.513-0.822,0.536-1.576
		c0.029-0.992-0.529-1.49-0.529-1.49s-0.586,0.441-0.615,1.434c-0.019,0.621,0.189,1.15,0.349,1.461
		c-0.554-0.381-1.058-0.779-1.516-1.191c0.167-0.244,0.507-0.824,0.53-1.568c0.029-0.992-0.529-1.49-0.529-1.49
		s-0.586,0.439-0.615,1.434c-0.016,0.533,0.137,1,0.281,1.318c-0.438-0.418-0.83-0.842-1.182-1.266
		c0.158-0.258,0.461-0.852,0.445-1.588c-0.018-0.994-0.6-1.459-0.6-1.459s-0.563,0.473-0.544,1.467
		c0.006,0.346,0.082,0.656,0.177,0.918c-0.442-0.596-0.803-1.172-1.096-1.699c0.044-0.352,0.072-1.008-0.208-1.66
		c-0.409-0.957-1.149-1.148-1.149-1.148s-0.355,0.713,0.053,1.668c0.281,0.656,0.768,1.072,1.046,1.268
		c0.126,0.229,0.265,0.465,0.418,0.709c-0.173-0.137-0.377-0.266-0.608-0.363c-0.916-0.379-1.56,0.041-1.56,0.041
		s0.221,0.781,1.137,1.16c0.701,0.291,1.381,0.174,1.664,0.102c0.287,0.395,0.608,0.799,0.969,1.201
		c-0.275-0.16-0.627-0.309-1.035-0.35c-0.975-0.1-1.484,0.496-1.484,0.496s0.412,0.689,1.388,0.785
		C15.873,43.188,16.503,42.861,16.747,42.711z"/>
	<path fill="#003366" d="M46.214,39.4c-0.238,0.098-0.446,0.23-0.625,0.373c0.156-0.252,0.299-0.496,0.43-0.732
		c0.285-0.201,0.787-0.627,1.075-1.301c0.419-0.984,0.055-1.717,0.055-1.717s-0.762,0.197-1.182,1.182
		c-0.287,0.67-0.259,1.348-0.214,1.707c-0.301,0.543-0.673,1.137-1.126,1.748c0.097-0.268,0.175-0.59,0.183-0.945
		c0.02-1.021-0.561-1.508-0.561-1.508s-0.598,0.479-0.617,1.502c-0.015,0.756,0.297,1.367,0.459,1.631
		c-0.36,0.436-0.765,0.871-1.215,1.301c0.148-0.324,0.305-0.805,0.288-1.355c-0.03-1.02-0.632-1.473-0.632-1.473
		s-0.574,0.512-0.545,1.531c0.023,0.766,0.373,1.363,0.546,1.615c-0.472,0.42-0.989,0.834-1.559,1.225
		c0.163-0.32,0.378-0.865,0.358-1.504c-0.029-1.02-0.633-1.473-0.633-1.473s-0.574,0.512-0.544,1.531
		c0.023,0.775,0.38,1.377,0.551,1.621c-0.262,0.172-0.532,0.342-0.815,0.502l0.135,0.275c0.617-0.35,1.18-0.729,1.7-1.121
		c0.212,0.223,0.749,0.711,1.503,0.848c0.988,0.18,1.568-0.389,1.568-0.389s-0.355-0.738-1.345-0.918
		c-0.489-0.088-0.94-0.006-1.272,0.1c0.451-0.367,0.865-0.748,1.244-1.133c0.249,0.15,0.898,0.488,1.678,0.41
		c1.004-0.102,1.428-0.809,1.428-0.809s-0.523-0.613-1.525-0.512c-0.419,0.043-0.782,0.195-1.064,0.359
		c0.37-0.412,0.7-0.828,0.996-1.236c0.291,0.074,0.992,0.197,1.712-0.102c0.941-0.391,1.169-1.193,1.169-1.193
		S47.156,39.01,46.214,39.4z"/>
	<path fill="#000D49" d="M28.739,43.244h1.376c5.171-0.412,9.058-2.182,11.865-4.99c0.187-0.188,0.37-0.459,0.56-0.561
		c0.191-0.102,0.41-0.145,0.586-0.229c1.191-0.566,2.167-1.531,2.878-2.65c0.786-1.234,1.227-3.104,0.992-5.167
		c1.362-1.107,2.661-2.278,2.903-4.505v-0.69c-0.346-2.828-1.91-4.438-4.761-4.759c-1.462-2.45-3.36-4.523-5.731-6.061
		c-2.354-1.53-5.12-2.82-8.783-3.005H29.3c-4.952,0.281-8.738,2.246-11.256,5.12c-2.539,2.9-4.16,6.842-4.53,11.764
		c-1.91,0.5-3.105,1.715-3.413,3.818v0.586c0.401,2.711,2.54,3.688,5.373,3.971C18.079,40.156,22.209,42.9,28.739,43.244z"/>
	<path fill="#FFFACA" d="M16.977,35.936c0.328,0.018,0.582-0.043,0.916-0.025c0.377,0.854,0.872,1.588,1.962,1.732
		c0.76,1.199,1.734,2.186,2.877,3.004C20.337,39.672,18.308,37.975,16.977,35.936z"/>
	<path fill="#FFFACA" d="M26.806,41.846c-0.594-0.092-1.227-0.16-1.707-0.332c-0.459-0.168-0.949-0.486-1.375-0.764
		c-1.26-0.826-2.393-1.98-3.133-3.26c0.475-0.4,0.869-1.018,0.74-1.936c0.785-0.189,1.658-0.293,2.443-0.484h0.05
		c1.572,3.537,3.971,6.25,8.608,6.723C30.653,42.156,28.597,42.117,26.806,41.846z"/>
	<path fill="#FFFACA" d="M38.619,39.604c-0.952,0.568-2.071,1.109-3.26,1.504c-0.437,0.143-0.924,0.33-1.349,0.379
		c-1.238,0.15-2.561-0.18-3.515-0.533c-2.898-1.072-4.942-3.32-6.085-6.012c0.924-0.221,1.852-0.436,2.75-0.686h0.052
		c0.433,1.311,2.06,2.563,3.794,1.859c1.832,1.855,4.098,3.537,7.816,3.336C38.899,39.52,38.707,39.551,38.619,39.604z"/>
	<path fill="#FFFACA" d="M45.621,33.594c-0.865,1.82-2.633,3.529-5.346,3.361c-1.8-0.111-2.942-1.037-4.024-2.037
		c0.287,0.936,0.997,1.594,1.732,2.088c0.75,0.504,1.688,0.889,2.825,0.967c0.016,0.07-0.119,0.162-0.228,0.254
		c-0.228,0.197-0.686,0.639-0.968,0.738c-0.338,0.123-0.917,0.1-1.352,0.08c-1.285-0.068-2.479-0.477-3.386-0.895
		c-1.372-0.629-2.408-1.498-3.234-2.443c0.754-0.561,0.951-2.162,0.588-3.311c1.757-0.977,3.561-1.902,5.297-2.903
		c0.406,1.69,1.607,3.418,3.638,3.54c1.524,0.094,2.604-0.805,2.776-2.19c-0.201,0.14-0.408,0.493-0.713,0.612
		c0.231-0.65,0.419-1.775,0.229-2.75c-0.036-0.178-0.138-0.4-0.127-0.51c0.025-0.208,0.471-0.572,0.788-0.765
		c0.301-0.179,0.796-0.431,1.197-0.278c0.349,0.13,0.535,0.996,0.638,1.375c0.159,0.604,0.257,1.111,0.279,1.706
		C46.291,31.662,46.032,32.734,45.621,33.594z"/>
	<path fill="#00C617" d="M34.597,12.639c0.461,0.094,0.973,0.343,1.452,0.559c3.148,1.415,5.847,3.748,7.509,6.52
		c-2.565,0.317-4.465,1.371-6.415,2.394c-0.222,0.116-0.688,0.407-0.84,0.407c-0.158-0.003-0.669-0.371-0.841-0.458
		c-0.883-0.447-1.723-0.836-2.953-0.893c-0.58-1.916-1.443-3.548-2.268-5.218c1.141-1.323,2.665-2.456,4.253-3.261
		C34.521,12.675,34.539,12.626,34.597,12.639z"/>
	<path fill="#00C617" d="M18.274,26.186c0.401-2.23,0.94-4.324,1.503-6.393c1.19-0.917,2.652-1.648,4.2-2.266
		c1.57-0.628,3.21-1.203,5.066-1.374c0.047-0.004,0.152-0.064,0.282-0.028c0.134,0.039,0.247,0.466,0.33,0.663
		c0.683,1.576,1.533,3.259,2.291,4.662c-0.813,1.247-1.412,2.711-1.908,4.276c-2.229,1.172-4.804,2.268-7.666,2.979
		c-0.331,0.084-0.95,0.326-1.22,0.279c-0.215-0.036-0.541-0.521-0.716-0.711C19.743,27.516,19.005,26.86,18.274,26.186z"/>
	<path fill="#00C617" d="M19.929,29.19c-1.168,0.172-2.587,0.2-3.744,0c0.396-0.98,0.989-1.763,1.607-2.522
		C18.507,27.489,19.271,28.395,19.929,29.19z"/>
	<path fill="#00C617" d="M32.433,21.728c1.09,0.292,1.962,0.805,2.826,1.326c-1.302,0.684-2.607,1.364-3.947,2.012
		C31.636,23.904,32.04,22.822,32.433,21.728z"/>
	<path fill="#00C617" d="M20.363,15.389c2.181-1.79,5.137-3.239,8.808-3.413c1.445-0.069,2.761,0.07,3.999,0.281
		c-1.438,0.793-2.627,1.835-3.615,3.081c-4.556-0.057-7.365,1.633-9.931,3.564c-0.56-0.34-0.987-0.812-1.224-1.476
		C18.863,16.631,19.614,16.002,20.363,15.389z"/>
	<path fill="#00C617" d="M14.915,27.51c0-1.644,0.362-3.098,0.736-4.38c0.539-1.849,1.242-3.444,2.088-4.813
		c0.344,0.465,0.768,0.846,1.299,1.122c-0.564,1.799-1.095,3.63-1.399,5.704c-0.045,0.297,0.006,0.672-0.079,0.916
		c-0.063,0.188-0.479,0.416-0.686,0.61c-0.687,0.643-1.265,1.383-1.655,2.243C14.778,28.638,14.915,27.988,14.915,27.51z"/>
	<path fill="#FFFFFF" d="M11.526,32.576c-0.305-0.891-0.109-1.885,0.255-2.574c0.368-0.693,0.835-1.129,1.655-1.475
		c0.085,0.668,0.653,1.062,1.274,1.272c0.848,0.288,1.919,0.364,2.954,0.384c3.233,0.048,5.998-0.775,8.326-1.631
		c3.148-1.158,6.182-2.836,8.988-4.277c1.396-0.719,2.811-1.522,4.43-2.216c1.53-0.656,3.255-1.412,5.373-1.171
		c1.992,0.226,3.359,1.111,3.77,2.875c0.494,2.125-0.576,3.793-1.654,4.866c-0.001,0.025-0.031,0.02-0.053,0.025
		c-0.306-0.996-0.402-2.357-1.246-2.852c-1.24-0.728-2.976-0.108-4.102,0.407c-2.146,0.988-4.039,2.314-6.033,3.386
		c-2.658,1.429-5.753,2.82-8.836,3.744c-3.123,0.934-7.123,1.656-11.051,1.475C13.615,34.727,12.026,34.021,11.526,32.576z"/>
	<g>
		<g>
			<path fill="#003366" d="M30,0C13.455,0,0,13.457,0,30c0,16.541,13.455,30,30,30c16.542,0,30-13.459,30-30
				C60,13.457,46.542,0,30,0z M30,58.652C14.199,58.652,1.348,45.799,1.348,30V30h2.828c0.001-1.04,0.061-2.082,0.188-3.112
				l-2.808-0.34c0.141-1.157,0.349-2.293,0.623-3.404l2.74,0.674c0.249-1.011,0.559-2.006,0.928-2.978l-2.638-1
				c0.413-1.084,0.89-2.137,1.426-3.154l2.493,1.313c0.483-0.923,1.023-1.813,1.615-2.667L6.43,13.728
				c0.658-0.95,1.37-1.857,2.136-2.719l2.104,1.867c0.69-0.778,1.428-1.514,2.207-2.204l-1.868-2.107
				c0.862-0.764,1.77-1.478,2.719-2.135l1.602,2.313c0.855-0.589,1.747-1.129,2.667-1.614l-1.313-2.493
				c1.019-0.536,2.072-1.013,3.156-1.426l1.002,2.638c0.97-0.367,1.968-0.679,2.978-0.926l-0.675-2.743
				c1.11-0.274,2.246-0.483,3.403-0.623l0.338,2.808C27.919,4.238,28.961,4.176,30,4.176V1.347c1.167,0,2.319,0.072,3.45,0.208
				l-0.338,2.808c1.032,0.121,2.057,0.31,3.068,0.558l0.674-2.744c1.13,0.278,2.232,0.624,3.305,1.032l-1.001,2.638
				c0.973,0.369,1.922,0.797,2.846,1.281l1.31-2.494c1.023,0.539,2.01,1.139,2.957,1.793L44.67,8.743
				c0.855,0.593,1.673,1.238,2.455,1.929l1.866-2.106c0.861,0.764,1.677,1.58,2.442,2.442l-2.104,1.868
				c0.688,0.779,1.332,1.6,1.925,2.455l2.316-1.603c0.654,0.946,1.254,1.934,1.794,2.958l-2.494,1.313
				c0.481,0.922,0.912,1.87,1.28,2.842l2.639-1.001c0.408,1.072,0.754,2.175,1.031,3.305l-2.742,0.674
				c0.247,1.011,0.436,2.036,0.558,3.07l2.808-0.34c0.138,1.132,0.209,2.284,0.209,3.453C58.652,45.799,45.798,58.652,30,58.652z"/>
		</g>
		<path fill="#003366" d="M30,8.262c11.987,0,21.738,9.75,21.738,21.739c0,11.986-9.751,21.738-21.738,21.738
			C18.012,51.738,8.262,41.986,8.262,30C8.262,18.012,18.012,8.262,30,8.262 M30,6.987C17.311,6.987,6.986,17.311,6.986,30
			c0,12.689,10.324,23.013,23.014,23.013c12.69,0,23.014-10.324,23.014-23.013C53.014,17.311,42.69,6.987,30,6.987L30,6.987z"/>
		<polygon fill="#003366" points="7.697,37.844 6.279,36.816 6.971,35.209 6.389,33.1 2.29,33.662 2.871,35.77 4.729,35.516 
			4.168,37.398 5.615,38.729 3.887,39.461 4.469,41.57 8.278,39.953 		"/>
		<path fill="#003366" d="M16.95,49.824l-1.383-0.93l-0.458-0.307l-1.37-0.922l-2.391,3.303l1.827,1.229l1.754-2.422l0.996,0.67
			c0.334,0.225,0.252,0.891-0.26,0.955c-0.512,0.066-1.077-0.217-1.077-0.217l0.413,2.242l2.055,1.383l-0.344-1.867
			c0,0,1.265,0.127,1.743-0.533C19.148,51.451,17.864,50.439,16.95,49.824z"/>
		<polygon fill="#003366" points="19.816,55.77 21.707,56.438 22.975,52.934 21.083,52.268 		"/>
		<g>
			<path fill="#003366" d="M28.085,53.633c-1.807-0.143-3.365,0.688-3.478,1.85c-0.111,1.164,1.264,2.219,3.072,2.361
				c1.809,0.141,3.367-0.688,3.479-1.852C31.271,54.83,29.895,53.773,28.085,53.633z M27.822,56.357
				c-0.531-0.041-0.936-0.354-0.903-0.695c0.034-0.342,0.491-0.584,1.023-0.543s0.937,0.352,0.902,0.693
				C28.812,56.154,28.354,56.398,27.822,56.357z"/>
		</g>
		<polygon fill="#003366" points="11.1,44.453 10.774,44.023 9.799,42.742 5.653,44.018 6.954,45.729 10.271,44.707 8.255,47.439 
			9.555,49.15 12.075,45.734 		"/>
		<polygon fill="#003366" points="40.962,51.441 38.58,52.201 37.363,54.521 36.728,52.793 34.612,53.471 35.972,57.174 
			38.087,56.498 37.453,54.77 39.939,55.904 42.321,55.145 39.656,53.928 		"/>
		<polygon fill="#003366" points="44.749,48.734 44.313,49.059 43.004,50.029 44.456,53.963 46.202,52.67 45.04,49.521 
			47.948,51.373 49.693,50.078 46.057,47.764 		"/>
		<path fill="#003366" d="M52.809,40.844c-1.01-0.652-2.026,0.623-2.643,1.529l-0.934,1.371l-0.308,0.453l-0.923,1.359l3.483,2.252
			l1.23-1.811l-2.554-1.652l0.672-0.988c0.224-0.332,0.916-0.268,0.996,0.23c0.08,0.496-0.199,1.055-0.199,1.055l2.316-0.457
			l1.385-2.037l-1.93,0.381C53.402,42.529,53.506,41.293,52.809,40.844z"/>
		<polygon fill="#003366" points="54.975,32.572 53.932,32.336 53.457,34.404 52.984,36.473 52.508,38.539 53.55,38.775 
			54.025,36.707 56.891,37.355 57.365,35.287 54.5,34.641 		"/>
		<path fill="#003366" d="M53.004,30c0-0.94-0.059-1.867-0.169-2.778l2.802-0.335c-0.121-1.033-0.308-2.058-0.557-3.069
			l-2.745,0.675c-0.224-0.905-0.501-1.79-0.827-2.649l2.646-1.004c-0.369-0.973-0.797-1.921-1.282-2.842l-2.505,1.317
			c-0.434-0.821-0.914-1.614-1.44-2.373l2.331-1.611c-0.592-0.857-1.239-1.677-1.926-2.456l-2.121,1.881
			c-0.615-0.694-1.271-1.352-1.965-1.966l1.878-2.119c-0.777-0.69-1.597-1.336-2.452-1.928l-1.611,2.333
			c-0.76-0.526-1.552-1.008-2.373-1.44l1.317-2.508c-0.92-0.483-1.872-0.912-2.845-1.28l-1.002,2.646
			c-0.858-0.328-1.745-0.605-2.649-0.829l0.674-2.745c-1.009-0.249-2.035-0.437-3.066-0.557l-0.339,2.802
			C31.865,7.055,30.939,6.997,30,6.997V4.174c-1.038,0-2.079,0.063-3.112,0.188l0.337,2.802c-0.929,0.112-1.84,0.28-2.731,0.5
			l-0.674-2.745c-1.008,0.249-2.005,0.56-2.977,0.927l1.002,2.646c-0.869,0.331-1.713,0.713-2.53,1.143l-1.316-2.508
			c-0.919,0.485-1.811,1.026-2.669,1.616l1.612,2.333c-0.763,0.528-1.491,1.101-2.184,1.715l-1.883-2.119
			c-0.776,0.688-1.513,1.425-2.204,2.204l2.12,1.881c-0.614,0.693-1.188,1.422-1.716,2.186l-2.329-1.611
			c-0.591,0.853-1.131,1.744-1.616,2.667l2.505,1.317c-0.429,0.815-0.811,1.659-1.14,2.528L5.85,20.84
			c-0.369,0.971-0.68,1.967-0.928,2.978l2.744,0.674c-0.219,0.891-0.388,1.802-0.5,2.73l-2.802-0.335
			C4.238,27.918,4.182,28.959,4.179,30L1.348,30c0-1.17,0.072-2.321,0.209-3.454l2.808,0.34c0.123-1.033,0.312-2.058,0.558-3.069
			L2.18,23.144c0.277-1.13,0.623-2.232,1.031-3.305L5.85,20.84c0.369-0.973,0.797-1.921,1.28-2.842l-2.494-1.313
			c0.54-1.024,1.141-2.012,1.796-2.959l2.314,1.604c0.593-0.857,1.236-1.677,1.925-2.456l-2.104-1.868
			c0.765-0.862,1.58-1.678,2.442-2.442l1.865,2.106c0.782-0.69,1.602-1.336,2.454-1.928L13.73,6.427
			c0.946-0.655,1.933-1.254,2.956-1.793l1.312,2.493c0.922-0.483,1.872-0.912,2.845-1.28L19.84,3.208
			c1.073-0.408,2.178-0.753,3.307-1.031l0.673,2.742c1.012-0.249,2.036-0.437,3.068-0.557L26.55,1.555
			c1.132-0.137,2.283-0.208,3.45-0.208v2.828c1.041,0,2.082,0.063,3.115,0.188l0.338-2.808c1.157,0.14,2.293,0.349,3.403,0.623
			l-0.675,2.742c1.01,0.249,2.008,0.56,2.978,0.927l1.002-2.638c1.085,0.413,2.138,0.89,3.157,1.426l-1.314,2.492
			c0.92,0.485,1.812,1.026,2.667,1.616l1.602-2.314c0.949,0.658,1.857,1.371,2.719,2.135l-1.868,2.107
			c0.779,0.688,1.517,1.425,2.208,2.204l2.104-1.867c0.765,0.862,1.479,1.77,2.136,2.718l-2.314,1.604
			c0.591,0.853,1.131,1.744,1.614,2.667l2.494-1.313c0.537,1.016,1.012,2.07,1.425,3.154l-2.637,1
			c0.368,0.971,0.679,1.967,0.927,2.978l2.742-0.674c0.273,1.11,0.482,2.246,0.621,3.403l-2.807,0.34
			c0.127,1.031,0.187,2.073,0.188,3.113L53.004,30z"/>
	</g>
</g>
</svg>
