<?xml version="1.0" encoding="utf-8"?>
<!-- Generator: Adobe Illustrator 16.2.0, SVG Export Plug-In . SVG Version: 6.00 Build 0)  -->
<!DOCTYPE svg PUBLIC "-//W3C//DTD SVG 1.1//EN" "http://www.w3.org/Graphics/SVG/1.1/DTD/svg11.dtd">
<svg version="1.1" id="レイヤー_1" xmlns="http://www.w3.org/2000/svg" xmlns:xlink="http://www.w3.org/1999/xlink" x="0px"
	 y="0px" width="60px" height="60px" viewBox="0 0 60 60" enable-background="new 0 0 60 60" xml:space="preserve">
<g>
	<path fill="#EEB633" d="M13.546,39.627h32.889L29.99,11.707L13.546,39.627z M38.01,26.019c0.124,0.222,0.117,0.493-0.016,0.709
		l-7.409,12c-0.128,0.206-0.353,0.332-0.596,0.332s-0.468-0.126-0.596-0.332l-7.408-12c-0.133-0.216-0.14-0.487-0.016-0.709
		s0.357-0.359,0.611-0.359h14.817C37.652,25.659,37.886,25.797,38.01,26.019z"/>
	<path fill="#000D49" d="M48.189,39.848L30.594,9.972c-0.252-0.427-0.955-0.427-1.207,0l-17.669,30
		c-0.127,0.217-0.129,0.485-0.004,0.703c0.124,0.218,0.356,0.353,0.607,0.353h35.338c0.008,0.001,0.015,0.001,0.02,0
		c0.387,0,0.7-0.313,0.7-0.7C48.379,40.142,48.307,39.973,48.189,39.848z M13.546,39.627l16.444-27.92l16.444,27.92H13.546z"/>
	<polygon fill="#FFFFFF" points="29.989,37.027 36.144,27.06 23.836,27.06 	"/>
	<path fill="#000D49" d="M21.97,26.019c-0.124,0.222-0.117,0.493,0.016,0.709l7.408,12c0.128,0.206,0.353,0.332,0.596,0.332
		s0.468-0.126,0.596-0.332l7.409-12c0.133-0.216,0.14-0.487,0.016-0.709s-0.357-0.359-0.611-0.359H22.581
		C22.327,25.659,22.094,25.797,21.97,26.019z M29.989,37.027l-6.153-9.968h12.308L29.989,37.027z"/>
</g>
<g>
	<g>
		<path fill="#003366" d="M30,0C13.455,0,0,13.456,0,30c0,16.541,13.455,30,30,30c16.542,0,30-13.459,30-30C60,13.456,46.542,0,30,0
			z M30,58.653C14.199,58.653,1.348,45.799,1.348,30v-0.001h2.828c0.001-1.04,0.061-2.081,0.188-3.111l-2.808-0.34
			c0.141-1.157,0.349-2.294,0.623-3.404l2.74,0.674c0.249-1.011,0.559-2.006,0.928-2.978L3.21,19.839
			c0.413-1.084,0.89-2.137,1.426-3.154l2.493,1.313c0.483-0.923,1.023-1.813,1.615-2.667L6.43,13.728
			c0.658-0.95,1.37-1.857,2.136-2.719l2.104,1.866c0.69-0.778,1.428-1.514,2.207-2.203l-1.868-2.107
			c0.862-0.764,1.77-1.478,2.719-2.135l1.602,2.313c0.855-0.589,1.747-1.13,2.667-1.614l-1.313-2.493
			c1.019-0.536,2.072-1.013,3.156-1.426l1.002,2.638c0.97-0.367,1.968-0.679,2.978-0.927l-0.675-2.742
			c1.11-0.274,2.246-0.483,3.403-0.623l0.338,2.808C27.919,4.238,28.961,4.176,30,4.176V1.347c1.167,0,2.319,0.072,3.45,0.209
			l-0.338,2.808c1.032,0.121,2.057,0.31,3.068,0.558l0.674-2.743c1.13,0.278,2.232,0.624,3.305,1.032l-1.001,2.638
			c0.973,0.368,1.922,0.797,2.846,1.281l1.31-2.494c1.023,0.539,2.01,1.139,2.957,1.793L44.67,8.743
			c0.855,0.593,1.673,1.237,2.455,1.929l1.866-2.106c0.861,0.764,1.677,1.58,2.442,2.442l-2.104,1.867
			c0.688,0.779,1.332,1.6,1.925,2.455l2.316-1.603c0.654,0.946,1.254,1.934,1.794,2.957l-2.494,1.313
			c0.481,0.922,0.912,1.87,1.28,2.843l2.639-1.001c0.408,1.072,0.754,2.175,1.031,3.305l-2.742,0.674
			c0.247,1.012,0.436,2.036,0.558,3.07l2.808-0.34c0.138,1.132,0.209,2.283,0.209,3.452C58.652,45.799,45.798,58.653,30,58.653z"/>
	</g>
	<path fill="#003366" d="M30,8.262c11.987,0,21.738,9.75,21.738,21.738c0,11.986-9.751,21.738-21.738,21.738
		C18.012,51.738,8.262,41.986,8.262,30C8.262,18.012,18.012,8.262,30,8.262 M30,6.987C17.311,6.987,6.986,17.311,6.986,30
		c0,12.69,10.324,23.013,23.014,23.013c12.69,0,23.014-10.322,23.014-23.013C53.014,17.311,42.69,6.987,30,6.987L30,6.987z"/>
	<polygon fill="#003366" points="7.697,37.845 6.279,36.817 6.971,35.208 6.389,33.1 2.29,33.662 2.871,35.771 4.729,35.516 
		4.168,37.397 5.615,38.728 3.887,39.461 4.469,41.57 8.278,39.952 	"/>
	<path fill="#003366" d="M16.95,49.825l-1.383-0.932l-0.458-0.306l-1.37-0.923l-2.391,3.304l1.827,1.229l1.754-2.423l0.996,0.67
		c0.334,0.226,0.252,0.891-0.26,0.956c-0.512,0.064-1.077-0.218-1.077-0.218l0.413,2.243l2.055,1.382l-0.344-1.867
		c0,0,1.265,0.127,1.743-0.533C19.148,51.45,17.864,50.439,16.95,49.825z"/>
	<polygon fill="#003366" points="19.816,55.77 21.707,56.438 22.975,52.935 21.083,52.268 	"/>
	<g>
		<path fill="#003366" d="M28.085,53.633c-1.807-0.143-3.365,0.687-3.478,1.85c-0.111,1.163,1.264,2.219,3.072,2.36
			c1.809,0.141,3.367-0.686,3.479-1.851C31.271,54.829,29.895,53.773,28.085,53.633z M27.822,56.357
			c-0.531-0.041-0.936-0.354-0.903-0.695c0.034-0.342,0.491-0.585,1.023-0.543c0.532,0.041,0.937,0.352,0.902,0.693
			C28.812,56.154,28.354,56.399,27.822,56.357z"/>
	</g>
	<polygon fill="#003366" points="11.1,44.452 10.774,44.024 9.799,42.742 5.653,44.018 6.954,45.729 10.271,44.707 8.255,47.439 
		9.555,49.15 12.075,45.735 	"/>
	<polygon fill="#003366" points="40.962,51.441 38.58,52.201 37.363,54.522 36.728,52.794 34.612,53.47 35.972,57.173 
		38.087,56.498 37.453,54.77 39.939,55.905 42.321,55.145 39.656,53.927 	"/>
	<polygon fill="#003366" points="44.749,48.734 44.313,49.058 43.004,50.029 44.456,53.963 46.202,52.669 45.04,49.521 
		47.948,51.373 49.693,50.078 46.057,47.765 	"/>
	<path fill="#003366" d="M52.809,40.844c-1.01-0.652-2.026,0.623-2.643,1.528l-0.934,1.373l-0.308,0.453l-0.923,1.357l3.483,2.253
		l1.23-1.811l-2.554-1.652l0.672-0.987c0.224-0.332,0.916-0.268,0.996,0.229c0.08,0.496-0.199,1.056-0.199,1.056l2.316-0.458
		l1.385-2.036l-1.93,0.38C53.402,42.529,53.506,41.293,52.809,40.844z"/>
	<polygon fill="#003366" points="54.975,32.571 53.932,32.337 53.457,34.405 52.984,36.472 52.508,38.539 53.55,38.775 
		54.025,36.708 56.891,37.355 57.365,35.287 54.5,34.64 	"/>
	<path fill="#003366" d="M53.004,30c0-0.94-0.059-1.867-0.169-2.778l2.802-0.335c-0.121-1.033-0.308-2.059-0.557-3.069l-2.745,0.675
		c-0.224-0.905-0.501-1.79-0.827-2.648l2.646-1.004c-0.369-0.973-0.797-1.921-1.282-2.843l-2.505,1.317
		c-0.434-0.82-0.914-1.613-1.44-2.373l2.331-1.611c-0.592-0.856-1.239-1.677-1.926-2.455l-2.121,1.881
		c-0.615-0.694-1.271-1.352-1.965-1.966l1.878-2.119c-0.777-0.69-1.597-1.337-2.452-1.929l-1.611,2.333
		c-0.76-0.526-1.552-1.008-2.373-1.44l1.317-2.508c-0.92-0.483-1.872-0.912-2.845-1.28l-1.002,2.646
		c-0.858-0.328-1.745-0.605-2.649-0.829l0.674-2.745c-1.009-0.248-2.035-0.437-3.066-0.557l-0.339,2.803
		C31.865,7.055,30.939,6.997,30,6.997V4.174c-1.038,0-2.079,0.063-3.112,0.188l0.337,2.803c-0.929,0.112-1.84,0.279-2.731,0.499
		l-0.674-2.745c-1.008,0.249-2.005,0.56-2.977,0.928l1.002,2.646c-0.869,0.331-1.713,0.713-2.53,1.143l-1.316-2.508
		c-0.919,0.485-1.811,1.026-2.669,1.615l1.612,2.333c-0.763,0.528-1.491,1.101-2.184,1.715l-1.883-2.119
		c-0.776,0.688-1.513,1.425-2.204,2.204l2.12,1.881c-0.614,0.692-1.188,1.422-1.716,2.186L8.746,15.33
		c-0.591,0.853-1.131,1.744-1.616,2.667l2.505,1.317c-0.429,0.815-0.811,1.659-1.14,2.528L5.85,20.84
		c-0.369,0.971-0.68,1.967-0.928,2.978l2.744,0.674c-0.219,0.892-0.388,1.803-0.5,2.73l-2.802-0.335
		c-0.126,1.031-0.183,2.072-0.186,3.112L1.348,30c0-1.169,0.072-2.32,0.209-3.453l2.808,0.34c0.123-1.033,0.312-2.059,0.558-3.069
		L2.18,23.144c0.277-1.131,0.623-2.232,1.031-3.305L5.85,20.84c0.369-0.973,0.797-1.921,1.28-2.843l-2.494-1.313
		c0.54-1.023,1.141-2.012,1.796-2.959l2.314,1.604c0.593-0.856,1.236-1.677,1.925-2.455l-2.104-1.868
		c0.765-0.862,1.58-1.679,2.442-2.442l1.865,2.106c0.782-0.69,1.602-1.337,2.454-1.929L13.73,6.427
		c0.946-0.654,1.933-1.254,2.956-1.793l1.312,2.493c0.922-0.483,1.872-0.912,2.845-1.28L19.84,3.208
		c1.073-0.407,2.178-0.753,3.307-1.031l0.673,2.742c1.012-0.248,2.036-0.437,3.068-0.557L26.55,1.555
		c1.132-0.137,2.283-0.208,3.45-0.208v2.827c1.041,0,2.082,0.063,3.115,0.188l0.338-2.808c1.157,0.14,2.293,0.349,3.403,0.622
		l-0.675,2.742c1.01,0.249,2.008,0.56,2.978,0.928l1.002-2.639c1.085,0.413,2.138,0.891,3.157,1.427l-1.314,2.492
		c0.92,0.485,1.812,1.026,2.667,1.615l1.602-2.314c0.949,0.658,1.857,1.371,2.719,2.136l-1.868,2.107
		c0.779,0.688,1.517,1.425,2.208,2.204l2.104-1.867c0.765,0.862,1.479,1.77,2.136,2.718l-2.314,1.604
		c0.591,0.853,1.131,1.744,1.614,2.667l2.494-1.313c0.537,1.017,1.012,2.07,1.425,3.154l-2.637,1.001
		c0.368,0.971,0.679,1.967,0.927,2.978l2.742-0.674c0.273,1.11,0.482,2.246,0.621,3.403l-2.807,0.34
		c0.127,1.031,0.187,2.072,0.188,3.112L53.004,30z"/>
</g>
<g>
	<path fill="#003366" d="M15.574,24.109c-0.223,0.625-0.429,1.28-0.608,1.969c-0.022-0.453-0.132-1.08-0.488-1.675
		c-0.662-1.101-1.655-1.216-1.655-1.216s-0.365,0.931,0.296,2.032c0.531,0.881,1.382,1.314,1.702,1.452
		c-0.151,0.645-0.276,1.315-0.377,2.012c-0.058-0.472-0.208-1.077-0.579-1.646c-0.759-1.17-1.839-1.256-1.839-1.256
		s-0.361,1.021,0.397,2.19c0.618,0.952,1.58,1.389,1.919,1.519c-0.025,0.215-0.047,0.427-0.066,0.645l-0.003,0.032
		c-0.005,0.05,0.015,0.096,0.048,0.127c0.025,0.024,0.059,0.042,0.098,0.045c0.088,0.006,0.164-0.059,0.172-0.147l0.005-0.031
		c0.049-0.602,0.12-1.185,0.21-1.75c0.352,0.074,1.214,0.189,2.08-0.184c1.124-0.48,1.359-1.401,1.359-1.401
		s-0.829-0.462-1.952,0.018c-0.694,0.298-1.161,0.813-1.417,1.161c0.151-0.854,0.341-1.669,0.563-2.439
		c0.346,0.103,1.115,0.266,1.931,0.008c1.096-0.351,1.4-1.191,1.4-1.191s-0.732-0.511-1.831-0.162
		c-0.618,0.197-1.077,0.581-1.358,0.877c0.242-0.782,0.519-1.516,0.813-2.205c0.302,0.128,0.966,0.351,1.712,0.209
		c1.018-0.192,1.382-0.911,1.382-0.911s-0.602-0.536-1.618-0.343c-0.563,0.107-1.005,0.389-1.288,0.619
		c0.29-0.643,0.598-1.241,0.914-1.8c0.299,0.128,0.969,0.355,1.722,0.214c1.018-0.193,1.379-0.911,1.379-0.911
		s-0.599-0.536-1.616-0.344c-0.503,0.096-0.91,0.332-1.196,0.547c0.325-0.54,0.652-1.036,0.976-1.49
		c0.306,0.113,0.985,0.305,1.729,0.124c1.007-0.246,1.332-0.983,1.332-0.983s-0.628-0.503-1.635-0.257
		c-0.353,0.086-0.653,0.241-0.896,0.405c0.497-0.64,0.969-1.173,1.376-1.598c0.364-0.03,1.049-0.147,1.65-0.603
		c0.868-0.66,0.873-1.507,0.873-1.507s-0.817-0.224-1.685,0.438c-0.583,0.441-0.876,1.039-1.007,1.389
		c-0.208,0.216-0.431,0.459-0.667,0.729c0.112-0.241,0.207-0.517,0.252-0.825c0.149-1.08-0.445-1.684-0.445-1.684
		s-0.737,0.419-0.887,1.499c-0.123,0.885,0.227,1.64,0.357,1.884c-0.329,0.419-0.671,0.883-1.013,1.396
		c0.109-0.35,0.19-0.808,0.12-1.309c-0.152-1.082-0.888-1.497-0.888-1.497s-0.597,0.603-0.443,1.683
		c0.122,0.859,0.637,1.478,0.843,1.695c-0.313,0.502-0.625,1.043-0.925,1.624c0.07-0.367,0.107-0.853-0.03-1.364
		c-0.284-1.053-1.066-1.378-1.066-1.378s-0.515,0.674-0.233,1.727c0.226,0.843,0.819,1.395,1.046,1.582
		c-0.252,0.524-0.493,1.082-0.721,1.665c0.012-0.411-0.037-0.958-0.291-1.501c-0.499-1.072-1.396-1.272-1.396-1.272
		s-0.425,0.815,0.076,1.89C14.57,23.463,15.277,23.939,15.574,24.109z"/>
	<path fill="#003366" d="M44.426,24.109c0.223,0.625,0.429,1.28,0.608,1.969c0.022-0.453,0.132-1.08,0.488-1.675
		c0.662-1.101,1.655-1.216,1.655-1.216s0.365,0.931-0.296,2.032c-0.531,0.881-1.382,1.314-1.702,1.452
		c0.151,0.645,0.276,1.315,0.377,2.012c0.058-0.472,0.208-1.077,0.579-1.646c0.759-1.17,1.839-1.256,1.839-1.256
		s0.361,1.021-0.397,2.19c-0.618,0.952-1.58,1.389-1.919,1.519c0.025,0.215,0.047,0.427,0.066,0.645l0.003,0.032
		c0.005,0.05-0.015,0.096-0.048,0.127c-0.025,0.024-0.059,0.042-0.098,0.045c-0.088,0.006-0.164-0.059-0.172-0.147l-0.005-0.031
		c-0.049-0.602-0.12-1.185-0.21-1.75c-0.352,0.074-1.214,0.189-2.08-0.184c-1.124-0.48-1.359-1.401-1.359-1.401
		s0.829-0.462,1.952,0.018c0.694,0.298,1.161,0.813,1.417,1.161c-0.151-0.854-0.341-1.669-0.563-2.439
		c-0.346,0.103-1.115,0.266-1.931,0.008c-1.096-0.351-1.4-1.191-1.4-1.191s0.732-0.511,1.831-0.162
		c0.618,0.197,1.077,0.581,1.358,0.877c-0.242-0.782-0.519-1.516-0.813-2.205c-0.302,0.128-0.966,0.351-1.712,0.209
		c-1.018-0.192-1.382-0.911-1.382-0.911s0.602-0.536,1.618-0.343c0.563,0.107,1.005,0.389,1.288,0.619
		c-0.29-0.643-0.598-1.241-0.914-1.8c-0.299,0.128-0.969,0.355-1.722,0.214c-1.018-0.193-1.379-0.911-1.379-0.911
		s0.599-0.536,1.616-0.344c0.503,0.096,0.91,0.332,1.196,0.547c-0.325-0.54-0.652-1.036-0.976-1.49
		c-0.306,0.113-0.985,0.305-1.729,0.124c-1.007-0.246-1.332-0.983-1.332-0.983s0.628-0.503,1.635-0.257
		c0.353,0.086,0.653,0.241,0.896,0.405c-0.497-0.64-0.969-1.173-1.376-1.598c-0.364-0.03-1.049-0.147-1.65-0.603
		c-0.868-0.66-0.873-1.507-0.873-1.507s0.817-0.224,1.685,0.438c0.583,0.441,0.876,1.039,1.007,1.389
		c0.208,0.216,0.431,0.459,0.667,0.729c-0.112-0.241-0.207-0.517-0.252-0.825c-0.149-1.08,0.445-1.684,0.445-1.684
		s0.737,0.419,0.887,1.499c0.123,0.885-0.227,1.64-0.357,1.884c0.329,0.419,0.671,0.883,1.013,1.396
		c-0.109-0.35-0.19-0.808-0.12-1.309c0.152-1.082,0.888-1.497,0.888-1.497s0.597,0.603,0.443,1.683
		c-0.122,0.859-0.637,1.478-0.843,1.695c0.313,0.502,0.625,1.043,0.925,1.624c-0.07-0.367-0.107-0.853,0.03-1.364
		c0.284-1.053,1.066-1.378,1.066-1.378s0.515,0.674,0.233,1.727c-0.226,0.843-0.819,1.395-1.046,1.582
		c0.252,0.524,0.493,1.082,0.721,1.665c-0.012-0.411,0.037-0.958,0.291-1.501c0.499-1.072,1.396-1.272,1.396-1.272
		s0.425,0.815-0.076,1.89C45.43,23.463,44.723,23.939,44.426,24.109z"/>
</g>
<polygon fill="#003366" points="29.066,48.15 30.014,50.039 30.938,48.14 33.026,47.821 31.502,46.355 31.846,44.271 29.982,45.267 
	28.106,44.295 28.479,46.377 26.974,47.861 "/>
<g>
	<g>
		<polygon fill="#003366" points="38.416,45.412 39.597,44.702 40.848,45.271 40.539,43.932 41.47,42.913 40.098,42.794 
			39.42,41.597 38.879,42.864 37.529,43.14 38.57,44.042 		"/>
		<polygon fill="#003366" points="35.166,46.071 35.781,47.03 36.167,45.958 37.269,45.673 36.369,44.972 36.437,43.836 
			35.495,44.476 34.433,44.06 34.749,45.151 34.027,46.032 		"/>
	</g>
	<g>
		<polygon fill="#003366" points="24.822,46.175 25.96,46.142 25.241,45.258 25.563,44.167 24.498,44.577 23.561,43.935 
			23.623,45.07 22.72,45.768 23.819,46.059 24.202,47.131 		"/>
		<polygon fill="#003366" points="19.416,45.537 20.597,44.827 21.848,45.396 21.539,44.057 22.47,43.038 21.098,42.919 
			20.42,41.722 19.879,42.989 18.529,43.265 19.57,44.167 		"/>
	</g>
</g>
</svg>
