<?xml version="1.0" encoding="utf-8"?>
<!-- Generator: Adobe Illustrator 16.2.0, SVG Export Plug-In . SVG Version: 6.00 Build 0)  -->
<!DOCTYPE svg PUBLIC "-//W3C//DTD SVG 1.1//EN" "http://www.w3.org/Graphics/SVG/1.1/DTD/svg11.dtd">
<svg version="1.1" id="レイヤー_1" xmlns="http://www.w3.org/2000/svg" xmlns:xlink="http://www.w3.org/1999/xlink" x="0px"
	 y="0px" width="60px" height="60px" viewBox="0 0 60 60" enable-background="new 0 0 60 60" xml:space="preserve">
<g>
	<g>
		<path fill="#003366" d="M30,0C13.455,0,0,13.456,0,30c0,16.541,13.455,30,30,30c16.541,0,30-13.459,30-30C60,13.456,46.541,0,30,0
			z M30,58.653C14.199,58.653,1.348,45.799,1.348,30v-0.001h2.828c0-1.04,0.061-2.081,0.188-3.111l-2.807-0.34
			c0.141-1.157,0.348-2.294,0.623-3.404l2.74,0.674c0.248-1.011,0.559-2.006,0.928-2.978l-2.639-1.001
			c0.414-1.084,0.891-2.137,1.426-3.154l2.494,1.313c0.482-0.923,1.023-1.813,1.615-2.667L6.43,13.728
			c0.658-0.95,1.369-1.857,2.135-2.719l2.105,1.866c0.689-0.778,1.428-1.514,2.207-2.203l-1.869-2.107
			c0.863-0.764,1.77-1.478,2.719-2.135l1.602,2.313c0.855-0.589,1.748-1.13,2.668-1.614l-1.314-2.493
			c1.02-0.536,2.072-1.013,3.156-1.426l1.002,2.638c0.971-0.367,1.969-0.679,2.979-0.927l-0.676-2.742
			c1.111-0.274,2.246-0.483,3.404-0.623l0.338,2.808C27.918,4.238,28.961,4.176,30,4.176V1.347c1.166,0,2.318,0.072,3.449,0.209
			l-0.338,2.808c1.033,0.121,2.057,0.31,3.068,0.558l0.674-2.743c1.131,0.278,2.232,0.624,3.305,1.032l-1,2.638
			c0.973,0.368,1.922,0.797,2.846,1.281l1.309-2.494c1.023,0.539,2.01,1.139,2.957,1.793l-1.6,2.315
			c0.855,0.593,1.672,1.237,2.455,1.929l1.865-2.106c0.861,0.764,1.678,1.58,2.443,2.442l-2.105,1.867
			c0.689,0.779,1.332,1.6,1.926,2.455l2.316-1.603c0.654,0.946,1.254,1.934,1.793,2.957l-2.494,1.313
			c0.482,0.922,0.912,1.87,1.281,2.843l2.639-1.001c0.408,1.072,0.754,2.175,1.031,3.305l-2.742,0.674
			c0.246,1.012,0.436,2.036,0.557,3.07l2.809-0.34c0.137,1.132,0.209,2.283,0.209,3.452C58.652,45.799,45.797,58.653,30,58.653z"/>
	</g>
	<path fill="#003366" d="M30,8.262c11.986,0,21.738,9.75,21.738,21.738c0,11.986-9.752,21.738-21.738,21.738
		C18.012,51.738,8.262,41.986,8.262,30C8.262,18.012,18.012,8.262,30,8.262 M30,6.987C17.311,6.987,6.986,17.311,6.986,30
		c0,12.69,10.324,23.013,23.014,23.013S53.014,42.69,53.014,30C53.014,17.311,42.689,6.987,30,6.987L30,6.987z"/>
	<polygon fill="#003366" points="7.697,37.845 6.279,36.817 6.971,35.208 6.389,33.1 2.289,33.662 2.871,35.771 4.729,35.516 
		4.168,37.397 5.615,38.728 3.887,39.461 4.469,41.57 8.277,39.952 	"/>
	<path fill="#003366" d="M16.949,49.825l-1.383-0.932l-0.457-0.306l-1.371-0.923l-2.391,3.304l1.828,1.229l1.754-2.423l0.996,0.67
		c0.334,0.226,0.252,0.891-0.26,0.956c-0.512,0.064-1.078-0.218-1.078-0.218l0.414,2.243l2.055,1.382l-0.344-1.867
		c0,0,1.264,0.127,1.742-0.533C19.148,51.45,17.863,50.439,16.949,49.825z"/>
	<polygon fill="#003366" points="19.816,55.77 21.707,56.438 22.975,52.935 21.082,52.268 	"/>
	<g>
		<path fill="#003366" d="M28.084,53.633c-1.807-0.143-3.365,0.687-3.477,1.85s1.264,2.219,3.072,2.36
			c1.809,0.141,3.367-0.686,3.479-1.851C31.27,54.829,29.895,53.773,28.084,53.633z M27.822,56.357
			c-0.531-0.041-0.936-0.354-0.904-0.695c0.035-0.342,0.492-0.585,1.023-0.543c0.533,0.041,0.938,0.352,0.902,0.693
			C28.811,56.154,28.354,56.399,27.822,56.357z"/>
	</g>
	<polygon fill="#003366" points="11.1,44.452 10.773,44.024 9.799,42.742 5.652,44.018 6.953,45.729 10.27,44.707 8.254,47.439 
		9.555,49.15 12.074,45.735 	"/>
	<polygon fill="#003366" points="40.961,51.441 38.58,52.201 37.363,54.522 36.727,52.794 34.611,53.47 35.971,57.173 
		38.086,56.498 37.453,54.77 39.939,55.905 42.32,55.145 39.656,53.927 	"/>
	<polygon fill="#003366" points="44.748,48.734 44.313,49.058 43.004,50.029 44.455,53.963 46.201,52.669 45.039,49.521 
		47.947,51.373 49.693,50.078 46.057,47.765 	"/>
	<path fill="#003366" d="M52.809,40.844c-1.01-0.652-2.027,0.623-2.643,1.528l-0.934,1.373l-0.309,0.453l-0.922,1.357l3.482,2.253
		l1.23-1.811l-2.553-1.652l0.672-0.987c0.223-0.332,0.916-0.268,0.996,0.229c0.08,0.496-0.199,1.056-0.199,1.056l2.316-0.458
		l1.385-2.036l-1.93,0.38C53.402,42.529,53.506,41.293,52.809,40.844z"/>
	<polygon fill="#003366" points="54.975,32.571 53.932,32.337 53.457,34.405 52.984,36.472 52.508,38.539 53.549,38.775 
		54.025,36.708 56.891,37.355 57.365,35.287 54.5,34.64 	"/>
	<path fill="#003366" d="M53.004,30c0-0.94-0.059-1.867-0.17-2.778l2.803-0.335c-0.121-1.033-0.309-2.059-0.557-3.069l-2.746,0.675
		c-0.223-0.905-0.5-1.79-0.826-2.648l2.645-1.004c-0.369-0.973-0.797-1.921-1.281-2.843l-2.506,1.317
		c-0.434-0.82-0.914-1.613-1.439-2.373l2.33-1.611c-0.592-0.856-1.238-1.677-1.926-2.455l-2.121,1.881
		c-0.615-0.694-1.271-1.352-1.965-1.966l1.879-2.119c-0.777-0.69-1.598-1.337-2.453-1.929l-1.611,2.333
		c-0.76-0.526-1.551-1.008-2.373-1.44l1.318-2.508c-0.92-0.483-1.873-0.912-2.846-1.28l-1.002,2.646
		c-0.857-0.328-1.744-0.605-2.648-0.829l0.674-2.745c-1.01-0.248-2.035-0.437-3.066-0.557l-0.34,2.803
		c-0.91-0.11-1.836-0.168-2.775-0.168V4.174c-1.039,0-2.08,0.063-3.113,0.188l0.338,2.803c-0.93,0.112-1.84,0.279-2.732,0.499
		l-0.674-2.745c-1.008,0.249-2.004,0.56-2.977,0.928l1.002,2.646c-0.869,0.331-1.713,0.713-2.529,1.143l-1.316-2.508
		c-0.92,0.485-1.811,1.026-2.67,1.615l1.613,2.333c-0.764,0.528-1.492,1.101-2.184,1.715l-1.883-2.119
		c-0.777,0.688-1.514,1.425-2.205,2.204l2.121,1.881c-0.615,0.692-1.188,1.422-1.717,2.186L8.746,15.33
		c-0.592,0.853-1.131,1.744-1.617,2.667l2.506,1.317c-0.43,0.815-0.811,1.659-1.141,2.528L5.85,20.84
		c-0.369,0.971-0.68,1.967-0.928,2.978l2.744,0.674c-0.219,0.892-0.389,1.803-0.5,2.73l-2.803-0.335
		c-0.125,1.031-0.182,2.072-0.186,3.112L1.348,30c0-1.169,0.072-2.32,0.209-3.453l2.807,0.34c0.123-1.033,0.313-2.059,0.559-3.069
		L2.18,23.144c0.277-1.131,0.623-2.232,1.031-3.305L5.85,20.84c0.369-0.973,0.797-1.921,1.279-2.843l-2.494-1.313
		c0.541-1.023,1.141-2.012,1.797-2.959l2.314,1.604c0.592-0.856,1.236-1.677,1.924-2.455l-2.104-1.868
		c0.766-0.862,1.58-1.679,2.443-2.442l1.865,2.106c0.781-0.69,1.602-1.337,2.453-1.929L13.73,6.427
		c0.945-0.654,1.932-1.254,2.955-1.793l1.313,2.493c0.922-0.483,1.871-0.912,2.844-1.28L19.84,3.208
		c1.072-0.407,2.178-0.753,3.307-1.031l0.672,2.742c1.012-0.248,2.037-0.437,3.068-0.557l-0.338-2.808
		C27.682,1.418,28.832,1.347,30,1.347v2.827c1.041,0,2.082,0.063,3.115,0.188l0.338-2.808c1.156,0.14,2.293,0.349,3.402,0.622
		l-0.674,2.742c1.01,0.249,2.008,0.56,2.977,0.928l1.002-2.639c1.086,0.413,2.139,0.891,3.158,1.427l-1.314,2.492
		c0.92,0.485,1.811,1.026,2.666,1.615l1.602-2.314c0.949,0.658,1.857,1.371,2.719,2.136l-1.867,2.107
		c0.779,0.688,1.516,1.425,2.207,2.204l2.105-1.867c0.764,0.862,1.479,1.77,2.135,2.718l-2.314,1.604
		c0.592,0.853,1.131,1.744,1.615,2.667l2.494-1.313c0.537,1.017,1.012,2.07,1.424,3.154l-2.637,1.001
		c0.369,0.971,0.68,1.967,0.928,2.978l2.742-0.674c0.273,1.11,0.482,2.246,0.621,3.403l-2.807,0.34
		c0.127,1.031,0.186,2.072,0.188,3.112L53.004,30z"/>
</g>
<g>
	<polygon fill="#003366" points="29.243,49.6 29.987,51.086 30.715,49.591 32.359,49.341 31.159,48.188 31.429,46.546 29.964,47.33 
		28.487,46.565 28.78,48.204 27.596,49.372 	"/>
	<polygon fill="#003366" points="34.442,48.654 35.177,49.638 35.509,48.457 36.672,48.066 35.652,47.382 35.638,46.157 
		34.675,46.915 33.502,46.549 33.926,47.698 33.218,48.698 	"/>
	<polygon fill="#003366" points="25.561,48.688 26.787,48.726 26.07,47.73 26.488,46.578 25.318,46.948 24.351,46.197 
		24.345,47.423 23.327,48.112 24.49,48.497 24.832,49.673 	"/>
</g>
<g>
	<path fill="#003366" d="M47.145,23.401c-0.109-0.352-0.223-0.685-0.34-0.996c0.045-0.433,0.047-1.249-0.352-2.068
		c-0.586-1.191-1.57-1.442-1.57-1.442s-0.432,0.876,0.154,2.068c0.396,0.815,1.057,1.336,1.432,1.586
		c0.266,0.723,0.525,1.553,0.73,2.477c-0.174-0.311-0.412-0.644-0.74-0.938c-0.945-0.849-1.871-0.696-1.871-0.696
		s-0.037,0.951,0.908,1.797c0.701,0.627,1.527,0.828,1.908,0.892c0.115,0.693,0.199,1.427,0.24,2.196
		c-0.189-0.403-0.512-0.938-1.041-1.37c-0.984-0.798-1.898-0.6-1.898-0.6s0.016,0.957,1,1.754c0.736,0.601,1.582,0.756,1.959,0.795
		c0.014,0.787-0.018,1.608-0.113,2.461c-0.168-0.412-0.506-1.057-1.123-1.558c-0.982-0.797-1.898-0.599-1.898-0.599
		s0.016,0.956,1,1.753c0.75,0.607,1.602,0.759,1.973,0.797c-0.053,0.386-0.113,0.776-0.191,1.173l0.369,0.099
		c0.172-0.864,0.273-1.701,0.324-2.511c0.383-0.017,1.275-0.125,2.018-0.723c0.971-0.786,0.902-1.792,0.902-1.792
		s-0.98-0.265-1.951,0.521c-0.479,0.388-0.77,0.881-0.938,1.278c0.02-0.724-0.004-1.422-0.059-2.091
		c0.344-0.108,1.188-0.446,1.746-1.245c0.717-1.023,0.398-1.998,0.398-1.998s-1.002-0.003-1.717,1.022
		c-0.303,0.428-0.449,0.895-0.527,1.291c-0.09-0.684-0.213-1.33-0.355-1.938c0.307-0.213,0.988-0.773,1.293-1.693
		c0.398-1.202-0.176-2.067-0.176-2.067s-0.941,0.272-1.336,1.475C47.201,22.814,47.156,23.119,47.145,23.401z"/>
	<path fill="#003366" d="M12.854,23.457c0.111-0.352,0.223-0.685,0.34-0.996c-0.043-0.433-0.047-1.249,0.354-2.068
		c0.584-1.191,1.568-1.442,1.568-1.442s0.434,0.876-0.152,2.068c-0.396,0.815-1.059,1.336-1.434,1.586
		c-0.266,0.723-0.523,1.553-0.73,2.477c0.176-0.311,0.414-0.644,0.74-0.938c0.945-0.849,1.873-0.696,1.873-0.696
		s0.035,0.951-0.91,1.797c-0.701,0.627-1.527,0.828-1.906,0.892c-0.115,0.693-0.199,1.427-0.24,2.196
		c0.188-0.403,0.512-0.938,1.041-1.37c0.984-0.798,1.898-0.6,1.898-0.6s-0.016,0.957-1.002,1.754
		c-0.734,0.601-1.58,0.756-1.957,0.795c-0.016,0.787,0.018,1.608,0.113,2.461c0.166-0.412,0.504-1.057,1.123-1.558
		c0.982-0.797,1.898-0.599,1.898-0.599s-0.018,0.956-1,1.753c-0.75,0.607-1.602,0.759-1.973,0.797
		c0.053,0.386,0.111,0.776,0.189,1.173l-0.369,0.099c-0.17-0.864-0.273-1.701-0.322-2.511c-0.385-0.017-1.277-0.125-2.018-0.723
		c-0.971-0.786-0.904-1.792-0.904-1.792s0.982-0.265,1.951,0.521c0.48,0.388,0.77,0.881,0.939,1.278
		c-0.02-0.724,0.002-1.422,0.057-2.091c-0.344-0.108-1.188-0.446-1.746-1.245c-0.715-1.023-0.396-1.998-0.396-1.998
		s1.002-0.003,1.717,1.022c0.303,0.428,0.449,0.895,0.525,1.291c0.09-0.684,0.215-1.33,0.355-1.938
		c-0.305-0.213-0.988-0.773-1.291-1.693c-0.4-1.202,0.174-2.067,0.174-2.067s0.941,0.272,1.338,1.475
		C12.797,22.87,12.844,23.175,12.854,23.457z"/>
</g>
<g>
	<g>
		<path fill="#FFEE7B" d="M29.846,13.013l0.188-0.002v0.003c1.222,0.014,2.334,0.125,3.355,0.316
			c-0.055-1.578-1.728-2.407-3.39-2.407c-1.647,0-3.303,0.817-3.385,2.369c0.986-0.171,2.06-0.267,3.231-0.276V13.013z"/>
		<path fill="#FFEE7B" d="M29.999,21.728c4.547,0,9.184,0.726,11.954,2.021c0.026,0.116,0.05,0.235,0.076,0.352
			c-0.373-1.801-0.931-3.391-1.726-4.74c-2.552-1.175-6.252-1.933-10.305-1.933c-4.101,0-7.844,0.775-10.398,1.975
			c-0.761,1.298-1.267,2.787-1.615,4.378C20.747,22.465,25.417,21.728,29.999,21.728z"/>
		<path fill="#EEB633" d="M39.561,18.266c-1.939-2.498-4.973-3.926-9.668-3.951c-4.727,0.032-7.691,1.581-9.549,3.987
			c2.549-0.98,5.909-1.574,9.655-1.574C33.699,16.728,37.024,17.306,39.561,18.266z"/>
		<path fill="#EEB633" d="M29.999,22.428c-5.62,0-9.979,0.972-12.195,2.21c-0.313,1.757-0.442,3.623-0.492,5.5
			c0.548-0.177,1.145-0.338,1.772-0.485c0.431-0.102,0.877-0.196,1.338-0.283c1.157-0.221,2.395-0.4,3.688-0.533
			c1.207-0.123,2.455-0.206,3.711-0.252c0.727-0.026,1.454-0.044,2.179-0.044s1.452,0.018,2.179,0.044
			c1.256,0.046,2.504,0.129,3.711,0.252c1.293,0.133,2.53,0.313,3.688,0.533c0.461,0.087,0.907,0.182,1.338,0.283
			c0.625,0.146,1.218,0.307,1.764,0.481c-0.065-2.002-0.239-3.847-0.551-5.531C39.892,23.382,35.566,22.428,29.999,22.428z"/>
		<path fill="#FEF81D" d="M39.636,18.36c0.208,0.274,0.401,0.563,0.584,0.863C40.037,18.924,39.844,18.635,39.636,18.36z"/>
		<path fill="#EEB633" d="M40.129,38.523c-0.839-0.289-2.16-0.583-3.967-0.8c0.008,0.128,0.02,0.255,0.02,0.385
			c0,0.525-0.073,1.032-0.197,1.519C38.551,39.318,39.959,38.85,40.129,38.523z"/>
		<path fill="#EEB633" d="M19.865,38.524c0.156,0.322,1.567,0.793,4.148,1.104c-0.124-0.487-0.197-0.994-0.197-1.52
			c0-0.13,0.012-0.257,0.02-0.385C22.026,37.94,20.703,38.235,19.865,38.524z"/>
		<path fill="#FFEE7B" d="M14.755,35.327c0.225-0.144,0.475-0.281,0.743-0.413c3.07-1.514,8.905-2.312,14.501-2.312
			S41.43,33.4,44.5,34.914c0.269,0.132,0.519,0.27,0.743,0.413c0.228,0.146,0.433,0.297,0.61,0.454
			c-0.353-1.605-1.73-3.374-4.076-3.562v-0.009c-0.008,0.001-0.014,0.009-0.021,0.009c-0.117,0-0.215-0.096-0.215-0.215
			s0.098-0.215,0.215-0.215c0.008,0,0.014,0.009,0.023,0.01v-0.008c0.339,0,0.652,0.04,0.965,0.081
			c-0.01-0.005-0.021-0.009-0.031-0.014c-0.003-0.424-0.016-0.832-0.025-1.244c0.002,0.098,0.004,0.195,0.006,0.293
			c-0.896-0.306-1.959-0.584-3.163-0.822c-0.525-0.104-1.067-0.204-1.645-0.292c-1.683-0.255-3.588-0.432-5.654-0.508
			c-0.727-0.027-1.466-0.046-2.232-0.046s-1.506,0.019-2.232,0.046c-2.066,0.076-3.972,0.253-5.654,0.508
			c-0.577,0.088-1.119,0.188-1.645,0.292c-1.211,0.24-2.278,0.52-3.178,0.827c-0.005,0.316-0.009,0.633-0.01,0.948
			c-0.008,0.005-0.018,0.008-0.026,0.013c0.313-0.042,0.627-0.082,0.966-0.082V31.8c0.01-0.001,0.016-0.01,0.023-0.01
			c0.117,0,0.215,0.096,0.215,0.215s-0.098,0.215-0.215,0.215c-0.008,0-0.014-0.008-0.021-0.009v0.009
			c-2.341,0.187-3.703,1.945-4.059,3.548C14.337,35.615,14.535,35.469,14.755,35.327z"/>
		<path fill="#EEB633" d="M44.5,35.741c-0.259-0.141-0.545-0.279-0.865-0.414c-2.712-1.141-7.577-2.024-13.636-2.024
			s-10.924,0.884-13.636,2.024c-0.32,0.135-0.606,0.273-0.865,0.414c-0.736,0.401-1.228,0.822-1.409,1.242
			c0.366,2.761,4.461,4.598,11.251,5.167c-0.462-0.529-0.834-1.136-1.095-1.8c-2.347-0.249-4.603-0.711-5.021-1.563
			c-0.214,0.112-0.351,0.221-0.395,0.317c-0.006,0.008-0.01,0.017-0.018,0.024c-0.092,0.109-0.227,0.183-0.381,0.183
			c-0.279,0-0.508-0.227-0.508-0.508c0-0.068,0.014-0.133,0.039-0.191c0.039-0.065,0.088-0.129,0.145-0.19
			c0.836-0.934,3.363-1.438,5.875-1.71c0.176-0.02,0.352-0.038,0.529-0.055c0.186-0.018,0.369-0.035,0.553-0.05
			c2.482-0.211,4.697-0.218,4.908-0.218c0.008,0,0.039,0,0.053,0c0.211,0,2.426,0.007,4.908,0.218
			c0.184,0.015,0.367,0.032,0.553,0.05c0.178,0.017,0.354,0.035,0.529,0.055c2.512,0.272,5.039,0.776,5.875,1.71
			c0.057,0.062,0.105,0.125,0.145,0.19c0.025,0.059,0.039,0.123,0.039,0.191c0,0.281-0.229,0.508-0.508,0.508
			c-0.154,0-0.289-0.073-0.381-0.183c-0.008-0.008-0.012-0.017-0.018-0.024c-0.044-0.097-0.181-0.205-0.395-0.317
			c-0.418,0.853-2.674,1.314-5.021,1.563c-0.261,0.664-0.633,1.271-1.095,1.8c6.789-0.569,10.885-2.405,11.252-5.166
			C45.729,36.564,45.237,36.144,44.5,35.741z"/>
		<path fill="#000D49" d="M44.02,32.166c-0.017-8.11-1.295-16.333-9.447-18.562c0.005-0.067,0.025-0.131,0.025-0.199
			c0-2.134-1.934-3.683-4.599-3.683S25.4,11.271,25.4,13.405c0,0.05,0.016,0.097,0.019,0.146c-8.129,2.095-9.425,10.064-9.44,18.614
			c-2.122,0.749-3.345,2.537-3.345,4.412c0,4.245,5.22,6.736,14.775,7.12c0.782,0.36,1.648,0.566,2.563,0.566
			c0.009,0,0.018-0.001,0.026-0.001s0.018,0.001,0.026,0.001c0.915,0,1.781-0.206,2.563-0.566c9.556-0.384,14.776-2.875,14.776-7.12
			C47.365,34.703,46.142,32.915,44.02,32.166z M40.22,19.224c-0.183-0.3-0.376-0.589-0.584-0.863
			C39.844,18.635,40.037,18.924,40.22,19.224z M29.999,10.923c1.662,0,3.335,0.829,3.39,2.407c-1.021-0.191-2.134-0.303-3.355-0.316
			v-0.003l-0.188,0.002v0.003c-1.172,0.01-2.245,0.105-3.231,0.276C26.696,11.74,28.352,10.923,29.999,10.923z M29.893,14.314
			c4.695,0.025,7.729,1.453,9.668,3.951c-2.536-0.96-5.861-1.538-9.562-1.538c-3.746,0-7.106,0.594-9.655,1.574
			C22.201,15.896,25.166,14.347,29.893,14.314z M19.602,19.4c0,0-0.001,0.001-0.001,0.002c2.555-1.199,6.298-1.975,10.398-1.975
			c4.053,0,7.753,0.758,10.305,1.933c0.795,1.35,1.353,2.939,1.726,4.74c-0.026-0.116-0.05-0.235-0.076-0.352
			c-2.771-1.296-7.407-2.021-11.954-2.021c-4.582,0-9.252,0.737-12.014,2.053c0.349-1.591,0.854-3.08,1.615-4.378
			C19.601,19.401,19.602,19.4,19.602,19.4z M18.222,32.22v-0.009c0.008,0.001,0.014,0.009,0.021,0.009
			c0.117,0,0.215-0.096,0.215-0.215s-0.098-0.215-0.215-0.215c-0.008,0-0.014,0.009-0.023,0.01v-0.008
			c-0.339,0-0.653,0.04-0.966,0.082c0.009-0.005,0.019-0.008,0.026-0.013c0.001-0.315,0.005-0.632,0.01-0.948
			c0-0.005,0-0.01,0-0.015c0,0.005,0,0.01,0,0.015c0.899-0.308,1.967-0.587,3.178-0.827c0.525-0.104,1.067-0.204,1.645-0.292
			c1.683-0.255,3.588-0.432,5.654-0.508c0.727-0.027,1.466-0.046,2.232-0.046s1.506,0.019,2.232,0.046
			c2.066,0.076,3.972,0.253,5.654,0.508c0.577,0.088,1.119,0.188,1.645,0.292c1.204,0.238,2.267,0.517,3.163,0.822
			c-0.002-0.098-0.004-0.195-0.006-0.293c-0.003-0.161-0.005-0.323-0.01-0.481c-0.546-0.175-1.139-0.335-1.764-0.481
			c-0.431-0.102-0.877-0.196-1.338-0.283c-1.157-0.221-2.395-0.4-3.688-0.533c-1.207-0.123-2.455-0.206-3.711-0.252
			c-0.727-0.026-1.454-0.044-2.179-0.044s-1.452,0.018-2.179,0.044c-1.256,0.046-2.504,0.129-3.711,0.252
			c-1.293,0.133-2.53,0.313-3.688,0.533c-0.461,0.087-0.907,0.182-1.338,0.283c-0.628,0.147-1.225,0.309-1.772,0.485
			c0.05-1.877,0.179-3.743,0.492-5.5c0.001-0.006,0.002-0.012,0.003-0.018c-0.001,0.006-0.002,0.012-0.003,0.018
			c2.216-1.238,6.575-2.21,12.195-2.21c5.567,0,9.893,0.954,12.128,2.175c0.312,1.685,0.485,3.529,0.551,5.531
			c0.005,0.158,0.007,0.32,0.01,0.481c0.01,0.412,0.022,0.82,0.025,1.244c0.01,0.005,0.021,0.009,0.031,0.014
			c-0.313-0.041-0.626-0.081-0.965-0.081V31.8c-0.01-0.001-0.016-0.01-0.023-0.01c-0.117,0-0.215,0.096-0.215,0.215
			s0.098,0.215,0.215,0.215c0.008,0,0.014-0.008,0.021-0.009v0.009c2.346,0.188,3.724,1.956,4.076,3.562
			c-0.178-0.157-0.383-0.308-0.61-0.454c-0.225-0.144-0.475-0.281-0.743-0.413c-3.07-1.514-8.905-2.312-14.501-2.312
			S18.568,33.4,15.498,34.914c-0.269,0.132-0.519,0.27-0.743,0.413c-0.22,0.142-0.418,0.288-0.592,0.44
			C14.519,34.165,15.881,32.406,18.222,32.22z M14.099,36.045c-0.03,0.182-0.053,0.361-0.053,0.533
			C14.046,36.406,14.068,36.227,14.099,36.045z M30.025,43.265c-0.018,0-0.035-0.005-0.053-0.005v0.005
			c-1.137,0-2.18-0.381-3.032-1.007c-0.643-0.471-1.162-1.087-1.53-1.799c-0.12-0.23-0.22-0.469-0.304-0.719
			c-0.174-0.516-0.29-1.058-0.29-1.632c0-0.169,0.033-0.329,0.049-0.494c1.459-0.137,3.158-0.225,5.107-0.225v0.001
			c0.019,0,0.034-0.001,0.053-0.001c1.949,0,3.648,0.088,5.107,0.225c0.016,0.165,0.049,0.325,0.049,0.494
			c0,0.574-0.116,1.116-0.29,1.632c-0.084,0.249-0.184,0.488-0.304,0.719c-0.368,0.712-0.888,1.328-1.53,1.799
			C32.205,42.884,31.162,43.265,30.025,43.265z M24.014,39.628c-2.581-0.311-3.992-0.781-4.148-1.104
			c0.838-0.289,2.161-0.584,3.971-0.801c-0.008,0.128-0.02,0.255-0.02,0.385C23.816,38.634,23.89,39.141,24.014,39.628z
			 M36.162,37.724c1.807,0.217,3.128,0.511,3.967,0.8c-0.17,0.326-1.578,0.795-4.145,1.104c0.124-0.486,0.197-0.993,0.197-1.519
			C36.182,37.979,36.17,37.852,36.162,37.724z M34.658,42.15c0.462-0.529,0.834-1.136,1.095-1.8
			c2.347-0.249,4.603-0.711,5.021-1.563c0.214,0.112,0.351,0.221,0.395,0.317c0.006,0.008,0.01,0.017,0.018,0.024
			c0.092,0.109,0.227,0.183,0.381,0.183c0.279,0,0.508-0.227,0.508-0.508c0-0.068-0.014-0.133-0.039-0.191
			c-0.039-0.065-0.088-0.129-0.145-0.19c-0.836-0.934-3.363-1.438-5.875-1.71c-0.176-0.02-0.352-0.038-0.529-0.055
			c-0.186-0.018-0.369-0.035-0.553-0.05c-2.482-0.211-4.697-0.218-4.908-0.218c-0.014,0-0.045,0-0.053,0
			c-0.211,0-2.426,0.007-4.908,0.218c-0.184,0.015-0.367,0.032-0.553,0.05c-0.178,0.017-0.354,0.035-0.529,0.055
			c-2.512,0.272-5.039,0.776-5.875,1.71c-0.057,0.062-0.105,0.125-0.145,0.19c-0.025,0.059-0.039,0.123-0.039,0.191
			c0,0.281,0.229,0.508,0.508,0.508c0.154,0,0.289-0.073,0.381-0.183c0.008-0.008,0.012-0.017,0.018-0.024
			c0.044-0.097,0.181-0.205,0.395-0.317c0.418,0.853,2.674,1.314,5.021,1.563c0.261,0.664,0.633,1.271,1.095,1.8
			c-6.79-0.569-10.885-2.406-11.251-5.167c0.182-0.42,0.673-0.841,1.409-1.242c0.259-0.141,0.545-0.279,0.865-0.414
			c2.712-1.141,7.577-2.024,13.636-2.024s10.924,0.884,13.636,2.024c0.32,0.135,0.606,0.273,0.865,0.414
			c0.737,0.402,1.229,0.823,1.41,1.243C45.543,39.745,41.447,41.581,34.658,42.15z M45.9,36.042c0.03,0.183,0.053,0.363,0.053,0.536
			C45.953,36.405,45.931,36.225,45.9,36.042z"/>
		<path fill="none" stroke="#000D49" stroke-width="0" stroke-linecap="round" stroke-linejoin="round" d="M17.804,24.638
			c0.001-0.006,0.002-0.012,0.003-0.018"/>
		<path fill="none" stroke="#000D49" stroke-width="0" stroke-linecap="round" stroke-linejoin="round" d="M14.046,36.578
			c0-0.172,0.022-0.352,0.053-0.533"/>
		<path fill="none" stroke="#000D49" stroke-width="0" stroke-linecap="round" stroke-linejoin="round" d="M45.9,36.042
			c0.03,0.183,0.053,0.363,0.053,0.536"/>
		
			<line fill="none" stroke="#000D49" stroke-width="0" stroke-linecap="round" stroke-linejoin="round" x1="19.601" y1="19.402" x2="19.602" y2="19.4"/>
		
			<line fill="none" stroke="#000D49" stroke-width="0" stroke-linecap="round" stroke-linejoin="round" x1="17.29" y1="30.913" x2="17.29" y2="30.898"/>
		<path fill="none" stroke="#000D49" stroke-width="0" stroke-linecap="round" stroke-linejoin="round" d="M42.688,30.615
			c-0.003-0.161-0.005-0.323-0.01-0.481"/>
		<path fill="#FFFFFF" d="M34.588,40.459c0.12-0.23,0.22-0.47,0.304-0.719c0.174-0.516,0.29-1.058,0.29-1.632
			c0-0.169-0.033-0.329-0.049-0.494c-1.459-0.137-3.158-0.225-5.107-0.225c-0.019,0-0.034,0.001-0.053,0.001V37.39
			c-1.949,0-3.648,0.088-5.107,0.225c-0.016,0.165-0.049,0.325-0.049,0.494c0,0.574,0.116,1.116,0.29,1.632
			c0.084,0.25,0.184,0.488,0.304,0.719c0.368,0.712,0.888,1.328,1.53,1.799c0.853,0.626,1.896,1.007,3.032,1.007V43.26
			c0.018,0,0.035,0.005,0.053,0.005c1.137,0,2.18-0.381,3.032-1.007C33.7,41.787,34.22,41.171,34.588,40.459z"/>
	</g>
	<g>
		<g>
			<path fill="#000D49" d="M26.471,21.463c-0.551,0-1.298,0.36-1.298,4.247c0,3.882,0.814,3.962,1.298,3.962
				c0.488,0,1.072-0.443,1.072-3.962C27.543,22.468,27.217,21.463,26.471,21.463z"/>
			<path fill="#FFFFFF" d="M26.406,24.699c-0.419,0-0.486-0.6-0.486-1.335c0-0.737,0.131-1.336,0.486-1.336s0.488,0.599,0.488,1.336
				C26.895,24.1,26.827,24.699,26.406,24.699z"/>
		</g>
		<g>
			<path fill="#000D49" d="M33.979,21.463c-0.551,0-1.299,0.36-1.299,4.247c0,3.882,0.812,3.962,1.299,3.962s1.07-0.443,1.07-3.962
				C35.05,22.468,34.725,21.463,33.979,21.463z"/>
			<path fill="#FFFFFF" d="M33.915,24.699c-0.423,0-0.486-0.6-0.486-1.335c0-0.737,0.131-1.336,0.486-1.336
				c0.356,0,0.487,0.599,0.487,1.336C34.402,24.1,34.336,24.699,33.915,24.699z"/>
		</g>
	</g>
</g>
</svg>
