<?xml version="1.0" encoding="utf-8"?>
<!-- Generator: Adobe Illustrator 16.2.0, SVG Export Plug-In . SVG Version: 6.00 Build 0)  -->
<!DOCTYPE svg PUBLIC "-//W3C//DTD SVG 1.1//EN" "http://www.w3.org/Graphics/SVG/1.1/DTD/svg11.dtd">
<svg version="1.1" id="レイヤー_1" xmlns="http://www.w3.org/2000/svg" xmlns:xlink="http://www.w3.org/1999/xlink" x="0px"
	 y="0px" width="60px" height="60px" viewBox="0 0 60 60" enable-background="new 0 0 60 60" xml:space="preserve">
<g>
	<g>
		<path fill="#E2C000" d="M12.639,30.942c0.014,0.093,0.034,0.189,0.059,0.297c0.852,3.293,3.225,5.836,6.307,6.842
			c0.219,1.98,1.063,4.587,3.869,5.59c2.227,0.794,4.477,1.046,5.998,1.053c0.002,0,0.533,0.003,0.533,0.003
			c0.012,0.008,0.491,0.006,0.491,0.006l0.471,0.002c0.008-0.008,0.541-0.011,0.541-0.011c1.521-0.007,3.764-0.282,5.998-1.053
			c2.645-0.912,3.486-3.482,3.729-5.479c3.525-1.017,5.865-4.145,6.643-6.916l0.01-0.036c0.004-0.013,0.072-0.296,0.072-0.296
			l0.006-0.021c0.869-4.155-0.174-9.057-2.787-13.113l0,0v-0.007l-0.125-0.195c-3.352-5.044-8.432-7.911-14.311-8.078l-0.01-0.001
			h-0.195l-0.01,0.001c-5.911,0.168-11.01,3.019-14.357,8.026c-0.007,0.011-0.132,0.202-0.132,0.202
			c-2.61,4.033-3.682,9.085-2.8,13.191C12.639,30.948,12.639,30.944,12.639,30.942z"/>
		<path fill="#E2C000" d="M36.561,42.379c-2.066,0.808-4.217,0.983-5.656,0.99l-0.537,0.001c0,0.009-0.469,0.006-0.471,0.006
			c-0.012,0-0.479,0.003-0.479,0.003c-0.004-0.009-0.543-0.01-0.543-0.01c-1.438-0.007-3.588-0.183-5.653-0.99
			c-3.12-1.218-3.253-4.91-3.253-6.202c0-0.184,0.004-0.229,0.01-0.304c1.772-2.053,5.494-3.31,9.887-3.321
			c4.443,0.012,8.08,1.469,9.854,3.348c0.002,0.077,0.008,0.121,0.008,0.305C39.727,37.496,39.684,41.161,36.561,42.379z"/>
		<path fill="#E2C000" d="M43.803,19.164c0.703,1.263,1.346,2.674,1.729,3.782c0.523,1.654,0.799,3.342,0.799,4.971
			c0,0.79-0.064,1.564-0.195,2.316c-1.771-1.966-2.787-4.736-2.787-7.728C43.348,21.37,43.506,20.25,43.803,19.164z"/>
		<path fill="#E2C000" d="M16.833,18.078c3.101-4.499,7.752-7.058,13.127-7.213h0.148c5.363,0.154,10.012,2.747,13.109,7.307
			c0.039,0.062,0.078,0.126,0.117,0.189l-0.006,0.015c-0.432,1.333-0.65,2.721-0.65,4.13c0,3.334,1.193,6.427,3.275,8.528
			c-0.652,2.184-2.514,4.729-5.232,5.723c0.004-0.685-0.049-1.135-0.051-1.15l-0.014-0.13l-0.078-0.108
			c-1.945-2.506-5.92-4.119-10.66-4.132c-4.795,0.013-8.95,1.593-10.827,4.136l-0.078,0.109l-0.012,0.128
			c-0.002,0.015-0.057,0.411-0.065,1.026c-2.366-0.945-4.182-2.979-4.901-5.566c2.105-2.1,3.31-5.204,3.31-8.563
			c0-1.429-0.227-2.834-0.67-4.177C16.729,18.244,16.781,18.16,16.833,18.078z"/>
		<path fill="#E2C000" d="M14.537,22.737c0.392-1.084,1.007-2.415,1.673-3.609c0.304,1.096,0.469,2.227,0.469,3.377
			c0,3.013-1.025,5.792-2.813,7.758c-0.132-0.743-0.198-1.517-0.198-2.309C13.669,26.254,13.97,24.472,14.537,22.737z"/>
	</g>
	<g>
		<path fill="#E2C000" d="M30.074,28.775c4.865,0,8.824-3.86,8.824-8.605c0-4.744-3.959-8.603-8.824-8.603
			c-4.865,0-8.822,3.859-8.822,8.603C21.252,24.915,25.209,28.775,30.074,28.775z"/>
		<path fill="#E2C000" d="M30.074,12.235c4.496,0,8.156,3.559,8.156,7.935c0,4.376-3.66,7.937-8.156,7.937
			c-4.497,0-8.154-3.561-8.154-7.937C21.92,15.794,25.578,12.235,30.074,12.235z"/>
	</g>
	<g>
		<path fill="#E2C000" d="M33.734,34.032c-0.887-0.082-0.885,1.334-0.885,2.969s0.131,2.967,0.91,2.959
			c0.814-0.01,0.92-1.389,0.92-3.021C34.68,35.305,34.506,34.103,33.734,34.032z"/>
		<path fill="#E2C000" d="M34.063,36.047c-0.082,0.212-0.207,0.289-0.348,0.289c-0.141,0.001-0.264-0.077-0.348-0.291
			c-0.064-0.165-0.105-0.434-0.105-0.663c-0.002-0.237,0.033-0.5,0.1-0.668c0.082-0.206,0.211-0.291,0.348-0.291
			c0.139,0,0.27,0.102,0.354,0.311c0.066,0.167,0.1,0.41,0.1,0.645C34.164,35.611,34.127,35.88,34.063,36.047z"/>
	</g>
	<g>
		<path fill="#E2C000" d="M26.333,34.032c-0.771,0.07-0.944,1.272-0.944,2.906c0,1.633,0.104,3.012,0.92,3.021
			c0.777,0.008,0.91-1.324,0.91-2.959S27.219,33.95,26.333,34.032z"/>
		<path fill="#E2C000" d="M26.699,36.045c-0.083,0.214-0.207,0.292-0.347,0.291c-0.14,0-0.267-0.077-0.349-0.289
			c-0.064-0.167-0.1-0.436-0.1-0.669c0.001-0.234,0.033-0.478,0.1-0.645c0.084-0.209,0.217-0.311,0.354-0.311
			s0.265,0.085,0.347,0.291c0.067,0.168,0.102,0.431,0.102,0.668C26.804,35.611,26.763,35.88,26.699,36.045z"/>
	</g>
	<polygon fill="#003366" points="30.777,47.03 30,45.453 29.223,47.03 27.487,47.281 28.742,48.507 28.447,50.237 30,49.422 
		31.555,50.237 31.258,48.507 32.514,47.281 	"/>
	<polygon fill="#003366" points="38.619,45.612 37.281,45.946 36.248,45.036 36.152,46.411 34.969,47.112 36.246,47.628 
		36.545,48.972 37.43,47.915 38.803,48.045 38.07,46.877 	"/>
	<polygon fill="#003366" points="23.751,45.036 22.718,45.946 21.382,45.612 21.929,46.877 21.199,48.045 22.57,47.915 
		23.455,48.972 23.754,47.628 25.033,47.112 23.847,46.411 	"/>
	<path fill="#003366" d="M47.656,35.807c0.318-1.044-0.131-1.747-0.131-1.747s-0.752,0.285-1.07,1.328
		c-0.217,0.713-0.113,1.395-0.027,1.756c-0.246,0.584-0.559,1.225-0.951,1.895c0.07-0.283,0.113-0.615,0.082-0.977
		c-0.094-1.039-0.734-1.468-0.734-1.468s-0.555,0.551-0.461,1.589c0.068,0.771,0.451,1.354,0.645,1.605
		c-0.318,0.48-0.68,0.968-1.088,1.452c0.113-0.347,0.221-0.85,0.143-1.405c-0.143-1.031-0.803-1.426-0.803-1.426
		s-0.527,0.582-0.385,1.613c0.109,0.773,0.529,1.342,0.73,1.577c-0.432,0.479-0.912,0.954-1.445,1.413
		c0.131-0.34,0.289-0.917,0.199-1.563c-0.143-1.031-0.805-1.426-0.805-1.426s-0.527,0.583-0.383,1.613
		c0.107,0.783,0.535,1.354,0.736,1.584c-0.248,0.202-0.502,0.402-0.771,0.598l0.166,0.266c0.588-0.423,1.117-0.869,1.602-1.326
		c0.24,0.205,0.838,0.641,1.617,0.697c1.023,0.072,1.549-0.567,1.549-0.567s-0.441-0.71-1.465-0.782
		c-0.506-0.037-0.955,0.097-1.281,0.24c0.418-0.424,0.797-0.854,1.139-1.287c0.27,0.128,0.965,0.398,1.746,0.232
		c1.006-0.213,1.359-0.977,1.359-0.977s-0.6-0.563-1.604-0.351c-0.42,0.089-0.771,0.284-1.039,0.481
		c0.328-0.461,0.619-0.918,0.873-1.362c0.305,0.042,1.027,0.089,1.725-0.293c0.912-0.499,1.057-1.338,1.057-1.338
		s-0.719-0.366-1.633,0.134c-0.23,0.127-0.426,0.283-0.594,0.447c0.133-0.273,0.25-0.536,0.357-0.789
		C46.979,37.01,47.439,36.522,47.656,35.807z"/>
	<path fill="#003366" d="M17.095,42.759c0.484,0.457,1.016,0.903,1.602,1.326l0.167-0.266c-0.27-0.195-0.524-0.396-0.772-0.598
		c0.201-0.23,0.629-0.801,0.737-1.584c0.144-1.03-0.383-1.613-0.383-1.613s-0.662,0.395-0.806,1.426
		c-0.088,0.646,0.07,1.223,0.201,1.563c-0.535-0.459-1.016-0.934-1.447-1.413c0.203-0.235,0.623-0.804,0.73-1.577
		c0.143-1.031-0.384-1.613-0.384-1.613s-0.661,0.395-0.804,1.426c-0.076,0.556,0.029,1.059,0.145,1.405
		c-0.41-0.484-0.771-0.972-1.09-1.452c0.194-0.251,0.577-0.835,0.645-1.605c0.093-1.038-0.461-1.589-0.461-1.589
		s-0.641,0.429-0.733,1.468c-0.032,0.361,0.011,0.693,0.081,0.977c-0.393-0.67-0.705-1.311-0.95-1.895
		c0.086-0.361,0.188-1.043-0.028-1.756c-0.318-1.043-1.069-1.328-1.069-1.328s-0.45,0.703-0.132,1.747
		c0.218,0.716,0.679,1.203,0.947,1.438c0.106,0.253,0.224,0.516,0.355,0.789c-0.166-0.164-0.363-0.32-0.594-0.447
		c-0.912-0.5-1.631-0.134-1.631-0.134s0.144,0.839,1.056,1.338c0.697,0.382,1.42,0.335,1.724,0.293
		c0.255,0.444,0.545,0.901,0.875,1.362c-0.268-0.197-0.62-0.393-1.04-0.481c-1.005-0.213-1.604,0.351-1.604,0.351
		s0.353,0.764,1.358,0.977c0.783,0.166,1.478-0.104,1.748-0.232c0.341,0.433,0.719,0.863,1.137,1.287
		c-0.326-0.144-0.775-0.277-1.281-0.24c-1.022,0.072-1.464,0.782-1.464,0.782s0.525,0.64,1.548,0.567
		C16.257,43.399,16.855,42.964,17.095,42.759z"/>
	<g>
		<g>
			<path fill="#FFFFFF" d="M14.538,22.737c0.392-1.084,1.007-2.415,1.673-3.609c0.305,1.096,0.469,2.227,0.469,3.377
				c0,3.013-1.025,5.792-2.813,7.758c-0.132-0.743-0.197-1.517-0.197-2.309C13.669,26.254,13.97,24.472,14.538,22.737z"/>
			<path fill="#FFEAB7" d="M36.561,42.379c-2.066,0.808-4.217,0.983-5.656,0.99l-0.537,0.001c0,0.009-0.469,0.006-0.471,0.006
				c-0.012,0-0.479,0.003-0.479,0.003c-0.002-0.009-0.543-0.01-0.543-0.01c-1.436-0.007-3.588-0.183-5.652-0.99
				c-3.121-1.218-3.253-4.91-3.253-6.202c0-0.184,0.003-0.229,0.009-0.304c1.773-2.053,5.494-3.31,9.887-3.321
				c4.443,0.012,8.08,1.469,9.854,3.348c0.002,0.077,0.008,0.121,0.008,0.305C39.727,37.496,39.684,41.161,36.561,42.379z"/>
			<path fill="#FFFFFF" d="M43.803,19.164c0.703,1.263,1.346,2.674,1.729,3.782c0.523,1.654,0.799,3.342,0.799,4.971
				c0,0.79-0.064,1.564-0.195,2.316c-1.771-1.966-2.787-4.736-2.787-7.728C43.348,21.37,43.506,20.25,43.803,19.164z"/>
			<path fill="#DE001F" d="M16.833,18.078c3.101-4.499,7.752-7.058,13.129-7.213h0.146c5.365,0.154,10.012,2.747,13.109,7.307
				c0.039,0.062,0.078,0.126,0.117,0.189l-0.006,0.015c-0.432,1.333-0.65,2.721-0.65,4.13c0,3.334,1.193,6.427,3.275,8.528
				c-0.652,2.184-2.514,4.729-5.232,5.723c0.004-0.685-0.049-1.135-0.051-1.15l-0.012-0.13l-0.078-0.108
				c-1.947-2.506-5.922-4.119-10.662-4.132c-4.795,0.013-8.95,1.593-10.827,4.136l-0.078,0.109l-0.012,0.128
				c-0.001,0.015-0.057,0.411-0.065,1.026c-2.366-0.945-4.182-2.979-4.901-5.566c2.105-2.1,3.31-5.204,3.31-8.563
				c0-1.429-0.227-2.834-0.67-4.177C16.73,18.244,16.782,18.16,16.833,18.078z"/>
			<g>
				<path fill="#FFFFFF" d="M29.996,12.235c4.496,0,8.154,3.559,8.154,7.935c0,4.376-3.658,7.937-8.154,7.937
					c-4.497,0-8.155-3.561-8.155-7.937C21.841,15.794,25.5,12.235,29.996,12.235z"/>
			</g>
		</g>
		<g>
			<path fill="#000D49" d="M33.734,34.032c-0.887-0.082-0.885,1.334-0.885,2.969s0.131,2.967,0.91,2.959
				c0.816-0.01,0.92-1.389,0.92-3.021C34.68,35.305,34.506,34.103,33.734,34.032z"/>
			<path fill="#FFFFFF" d="M34.063,36.047c-0.082,0.212-0.207,0.289-0.348,0.289c-0.141,0.001-0.264-0.077-0.346-0.291
				c-0.066-0.165-0.105-0.434-0.107-0.663c-0.002-0.237,0.033-0.5,0.1-0.668c0.082-0.206,0.211-0.291,0.348-0.291
				c0.139,0,0.271,0.102,0.354,0.311c0.066,0.167,0.1,0.41,0.1,0.645C34.164,35.611,34.127,35.88,34.063,36.047z"/>
		</g>
		<g>
			<path fill="#000D49" d="M26.333,34.032c-0.771,0.07-0.944,1.272-0.944,2.906c0,1.633,0.104,3.012,0.92,3.021
				c0.779,0.008,0.91-1.324,0.91-2.959S27.219,33.95,26.333,34.032z"/>
			<path fill="#FFFFFF" d="M26.699,36.045c-0.083,0.214-0.207,0.292-0.347,0.291c-0.14,0-0.267-0.077-0.349-0.289
				c-0.063-0.167-0.1-0.436-0.1-0.669c0.002-0.234,0.033-0.478,0.1-0.645c0.084-0.209,0.217-0.311,0.355-0.311
				c0.137,0,0.266,0.085,0.348,0.291c0.065,0.168,0.1,0.431,0.1,0.668C26.804,35.611,26.763,35.88,26.699,36.045z"/>
		</g>
	</g>
	<path fill="#000D49" d="M44.578,17.81L44.578,17.81v-0.007l-0.125-0.195c-3.352-5.044-8.432-7.911-14.311-8.078l-0.01-0.001h-0.195
		l-0.01,0.001c-5.911,0.168-11.01,3.019-14.357,8.026c-0.007,0.011-0.132,0.202-0.132,0.202c-2.61,4.033-3.682,9.085-2.8,13.191
		c0,0,0-0.004,0-0.006c0.014,0.093,0.034,0.189,0.059,0.297c0.852,3.293,3.225,5.836,6.307,6.842c0.219,1.98,1.063,4.587,3.869,5.59
		c2.227,0.794,4.477,1.046,5.998,1.053c0.002,0,0.533,0.003,0.533,0.003c0.012,0.008,0.491,0.006,0.491,0.006l0.471,0.002
		c0.008-0.008,0.541-0.011,0.541-0.011c1.521-0.007,3.764-0.282,5.998-1.053c2.645-0.912,3.486-3.482,3.729-5.479
		c3.525-1.017,5.865-4.145,6.643-6.916l0.01-0.036c0.004-0.013,0.072-0.296,0.072-0.296l0.006-0.021
		C48.234,26.768,47.191,21.866,44.578,17.81z M13.669,27.955c0-1.701,0.301-3.482,0.868-5.217c0.392-1.084,1.007-2.415,1.673-3.609
		c0.304,1.096,0.469,2.227,0.469,3.377c0,3.013-1.025,5.792-2.813,7.758C13.734,29.521,13.669,28.747,13.669,27.955z M36.561,42.379
		c-2.066,0.808-4.217,0.983-5.656,0.99l-0.537,0.001c0,0.009-0.469,0.006-0.471,0.006c-0.012,0-0.479,0.003-0.479,0.003
		c-0.004-0.009-0.543-0.01-0.543-0.01c-1.438-0.007-3.588-0.183-5.653-0.99c-3.12-1.218-3.253-4.91-3.253-6.202
		c0-0.184,0.004-0.229,0.01-0.304c1.772-2.053,5.494-3.31,9.887-3.321c4.443,0.012,8.08,1.469,9.854,3.348
		c0.002,0.077,0.008,0.121,0.008,0.305C39.727,37.496,39.684,41.161,36.561,42.379z M40.723,36.757
		c0.004-0.685-0.049-1.135-0.051-1.15l-0.014-0.13l-0.078-0.108c-1.945-2.506-5.92-4.119-10.66-4.132
		c-4.795,0.013-8.95,1.593-10.827,4.136l-0.078,0.109l-0.012,0.128c-0.002,0.015-0.057,0.411-0.065,1.026
		c-2.366-0.945-4.182-2.979-4.901-5.566c2.105-2.1,3.31-5.204,3.31-8.563c0-1.429-0.227-2.834-0.67-4.177
		c0.052-0.085,0.104-0.168,0.156-0.25c3.101-4.499,7.752-7.058,13.127-7.213h0.148c5.363,0.154,10.012,2.747,13.109,7.307
		c0.039,0.062,0.078,0.126,0.117,0.189l-0.006,0.015c-0.432,1.333-0.65,2.721-0.65,4.13c0,3.334,1.193,6.427,3.275,8.528
		C45.303,33.218,43.441,35.763,40.723,36.757z M46.135,30.233c-1.771-1.966-2.787-4.736-2.787-7.728
		c0-1.136,0.158-2.255,0.455-3.342c0.703,1.263,1.346,2.674,1.729,3.782c0.523,1.654,0.799,3.342,0.799,4.971
		C46.33,28.707,46.266,29.481,46.135,30.233z"/>
	<g>
		<path fill="#000D49" d="M29.98,11.567c-4.864,0-8.822,3.859-8.822,8.603c0,4.745,3.958,8.605,8.822,8.605
			c4.865,0,8.824-3.86,8.824-8.605C38.805,15.427,34.846,11.567,29.98,11.567z M29.98,28.107c-4.497,0-8.154-3.561-8.154-7.937
			c0-4.376,3.657-7.935,8.154-7.935c4.496,0,8.156,3.559,8.156,7.935C38.137,24.547,34.477,28.107,29.98,28.107z"/>
	</g>
	<g>
		<g>
			<path fill="#003366" d="M30,0C13.455,0,0,13.457,0,30.001C0,46.542,13.455,60,30,60c16.543,0,30-13.458,30-29.999
				C60,13.457,46.543,0,30,0z M30,58.653c-15.801,0-28.652-12.854-28.652-28.652v-0.002h2.828c0.001-1.039,0.061-2.081,0.188-3.111
				l-2.808-0.34c0.141-1.157,0.349-2.293,0.623-3.404l2.74,0.674c0.249-1.011,0.559-2.006,0.928-2.978l-2.638-1
				c0.413-1.084,0.89-2.137,1.426-3.154l2.493,1.313c0.483-0.923,1.023-1.813,1.615-2.667L6.43,13.728
				c0.658-0.95,1.37-1.857,2.136-2.719l2.104,1.867c0.69-0.778,1.428-1.514,2.207-2.204l-1.868-2.107
				c0.862-0.764,1.77-1.478,2.719-2.135l1.602,2.313c0.856-0.589,1.747-1.129,2.667-1.614l-1.313-2.493
				c1.018-0.536,2.072-1.013,3.156-1.426l1.002,2.638c0.969-0.367,1.967-0.679,2.977-0.926l-0.674-2.743
				c1.109-0.274,2.246-0.483,3.402-0.623l0.338,2.808C27.919,4.238,28.96,4.176,30,4.176V1.347c1.168,0,2.32,0.072,3.451,0.208
				l-0.338,2.808c1.031,0.121,2.057,0.31,3.068,0.558l0.674-2.744c1.129,0.278,2.232,0.624,3.305,1.032l-1.002,2.638
				c0.973,0.369,1.922,0.797,2.846,1.281l1.311-2.494c1.023,0.539,2.01,1.139,2.957,1.793L44.67,8.743
				c0.855,0.593,1.674,1.238,2.455,1.929l1.867-2.106c0.861,0.764,1.676,1.58,2.441,2.442l-2.104,1.868
				c0.688,0.779,1.332,1.6,1.924,2.455l2.316-1.603c0.654,0.946,1.254,1.934,1.795,2.958l-2.494,1.313
				c0.48,0.922,0.912,1.87,1.279,2.842l2.639-1.001c0.408,1.072,0.754,2.175,1.031,3.305l-2.742,0.674
				c0.248,1.011,0.436,2.036,0.559,3.07l2.807-0.34c0.139,1.132,0.209,2.283,0.209,3.453C58.652,45.799,45.799,58.653,30,58.653z"/>
		</g>
		<path fill="#003366" d="M30,8.262c11.988,0,21.738,9.75,21.738,21.739c0,11.985-9.75,21.738-21.738,21.738
			c-11.989,0-21.738-9.753-21.738-21.738C8.262,18.012,18.011,8.262,30,8.262 M30,6.987c-12.69,0-23.014,10.324-23.014,23.014
			C6.986,42.69,17.31,53.013,30,53.013c12.691,0,23.014-10.322,23.014-23.012C53.014,17.311,42.691,6.987,30,6.987L30,6.987z"/>
		<polygon fill="#003366" points="7.697,37.845 6.279,36.817 6.971,35.208 6.389,33.1 2.29,33.662 2.871,35.771 4.729,35.517 
			4.168,37.397 5.615,38.728 3.887,39.461 4.469,41.57 8.278,39.952 		"/>
		<path fill="#003366" d="M16.951,49.825l-1.383-0.932l-0.458-0.306l-1.37-0.923l-2.391,3.304l1.827,1.229l1.754-2.423l0.996,0.67
			c0.334,0.226,0.252,0.892-0.259,0.956c-0.512,0.064-1.077-0.217-1.077-0.217l0.413,2.242l2.054,1.383l-0.344-1.867
			c0,0,1.266,0.126,1.744-0.533C19.148,51.45,17.865,50.44,16.951,49.825z"/>
		<polygon fill="#003366" points="19.816,55.77 21.707,56.438 22.974,52.935 21.083,52.268 		"/>
		<g>
			<path fill="#003366" d="M28.085,53.633c-1.807-0.142-3.365,0.687-3.479,1.851c-0.111,1.162,1.264,2.218,3.072,2.359
				c1.809,0.141,3.368-0.686,3.479-1.85C31.271,54.829,29.895,53.773,28.085,53.633z M27.822,56.357
				c-0.531-0.04-0.936-0.353-0.902-0.695c0.033-0.342,0.49-0.585,1.023-0.543c0.531,0.041,0.936,0.352,0.902,0.694
				C28.812,56.154,28.355,56.399,27.822,56.357z"/>
		</g>
		<polygon fill="#003366" points="11.1,44.452 10.774,44.024 9.799,42.742 5.653,44.019 6.954,45.729 10.271,44.707 8.255,47.44 
			9.555,49.151 12.075,45.735 		"/>
		<polygon fill="#003366" points="40.963,51.441 38.58,52.202 37.363,54.522 36.729,52.794 34.613,53.47 35.973,57.173 
			38.088,56.498 37.453,54.77 39.939,55.905 42.322,55.146 39.656,53.927 		"/>
		<polygon fill="#003366" points="44.75,48.735 44.313,49.058 43.004,50.03 44.457,53.963 46.203,52.669 45.041,49.521 
			47.949,51.373 49.693,50.078 46.057,47.765 		"/>
		<path fill="#003366" d="M52.809,40.844c-1.01-0.652-2.025,0.624-2.643,1.528l-0.934,1.373l-0.307,0.453l-0.924,1.357l3.484,2.253
			l1.23-1.811l-2.555-1.652l0.672-0.987c0.225-0.332,0.916-0.268,0.996,0.229c0.08,0.496-0.199,1.056-0.199,1.056l2.316-0.458
			l1.385-2.036l-1.93,0.381C53.402,42.53,53.506,41.294,52.809,40.844z"/>
		<polygon fill="#003366" points="54.975,32.571 53.932,32.337 53.457,34.405 52.984,36.472 52.508,38.539 53.551,38.775 
			54.025,36.708 56.891,37.355 57.365,35.287 54.5,34.64 		"/>
		<path fill="#003366" d="M53.004,30.001c0-0.941-0.059-1.868-0.168-2.779l2.801-0.335c-0.121-1.033-0.307-2.058-0.557-3.069
			l-2.744,0.675c-0.225-0.905-0.502-1.79-0.828-2.649l2.646-1.004c-0.369-0.973-0.797-1.921-1.283-2.842l-2.504,1.317
			c-0.434-0.821-0.914-1.614-1.441-2.373l2.332-1.611c-0.592-0.857-1.24-1.677-1.926-2.456l-2.121,1.881
			c-0.615-0.694-1.271-1.352-1.965-1.966l1.877-2.119c-0.777-0.69-1.596-1.336-2.451-1.928l-1.611,2.333
			c-0.76-0.526-1.553-1.008-2.373-1.44l1.316-2.508c-0.92-0.483-1.871-0.912-2.844-1.28l-1.002,2.646
			c-0.859-0.328-1.746-0.605-2.65-0.829l0.674-2.745c-1.008-0.249-2.035-0.437-3.066-0.557l-0.338,2.802
			C31.865,7.055,30.939,6.997,30,6.997V4.174c-1.038,0-2.079,0.063-3.112,0.188l0.336,2.802c-0.928,0.112-1.84,0.28-2.73,0.5
			L23.82,4.919c-1.008,0.249-2.006,0.56-2.977,0.927l1.002,2.646c-0.869,0.331-1.713,0.713-2.531,1.143l-1.316-2.508
			c-0.918,0.485-1.811,1.026-2.668,1.616l1.612,2.333c-0.762,0.528-1.491,1.101-2.183,1.715l-1.883-2.119
			c-0.776,0.688-1.513,1.425-2.204,2.204l2.12,1.881c-0.614,0.693-1.188,1.422-1.716,2.186l-2.329-1.611
			c-0.591,0.853-1.131,1.744-1.616,2.667l2.505,1.317c-0.429,0.815-0.811,1.659-1.14,2.528L5.85,20.84
			c-0.369,0.971-0.68,1.967-0.928,2.978l2.744,0.674c-0.219,0.891-0.388,1.802-0.5,2.73l-2.802-0.335
			c-0.126,1.031-0.183,2.073-0.186,3.112l-2.831,0.002c0-1.17,0.072-2.321,0.209-3.454l2.808,0.34
			c0.123-1.033,0.312-2.058,0.558-3.069L2.18,23.144c0.277-1.13,0.623-2.232,1.031-3.305L5.85,20.84
			c0.369-0.973,0.797-1.921,1.28-2.842l-2.494-1.313c0.54-1.024,1.141-2.012,1.796-2.959l2.314,1.604
			c0.593-0.857,1.236-1.677,1.925-2.456l-2.104-1.868c0.765-0.862,1.58-1.678,2.442-2.442l1.865,2.106
			c0.782-0.69,1.602-1.336,2.454-1.928L13.73,6.427c0.946-0.655,1.933-1.254,2.957-1.793l1.311,2.493
			c0.922-0.483,1.873-0.912,2.846-1.28l-1.004-2.638c1.074-0.408,2.178-0.753,3.307-1.031l0.674,2.742
			c1.012-0.249,2.035-0.437,3.068-0.557L26.55,1.555c1.131-0.137,2.283-0.208,3.45-0.208v2.828c1.041,0,2.082,0.063,3.115,0.188
			l0.338-2.808c1.158,0.14,2.293,0.349,3.404,0.623l-0.676,2.742c1.01,0.249,2.008,0.56,2.979,0.927l1.002-2.638
			c1.084,0.413,2.137,0.89,3.156,1.426l-1.314,2.492c0.92,0.485,1.813,1.026,2.668,1.616l1.602-2.314
			c0.949,0.658,1.857,1.371,2.719,2.135l-1.869,2.107c0.779,0.688,1.518,1.425,2.209,2.204l2.104-1.867
			c0.766,0.862,1.479,1.77,2.137,2.718l-2.314,1.604c0.59,0.853,1.131,1.744,1.613,2.667l2.494-1.313
			c0.537,1.016,1.012,2.07,1.426,3.154l-2.637,1c0.367,0.971,0.678,1.967,0.926,2.978l2.742-0.674
			c0.273,1.11,0.482,2.246,0.621,3.403l-2.807,0.34c0.127,1.031,0.188,2.073,0.188,3.112L53.004,30.001z"/>
	</g>
</g>
</svg>
