<?xml version="1.0" encoding="utf-8"?>
<!-- Generator: Adobe Illustrator 16.2.0, SVG Export Plug-In . SVG Version: 6.00 Build 0)  -->
<!DOCTYPE svg PUBLIC "-//W3C//DTD SVG 1.1//EN" "http://www.w3.org/Graphics/SVG/1.1/DTD/svg11.dtd">
<svg version="1.1" id="レイヤー_1" xmlns="http://www.w3.org/2000/svg" xmlns:xlink="http://www.w3.org/1999/xlink" x="0px"
	 y="0px" width="60px" height="60px" viewBox="0 0 60 60" enable-background="new 0 0 60 60" xml:space="preserve">
<g>
	<polygon fill="#003366" points="30.775,45.267 30,43.689 29.223,45.267 27.486,45.518 28.742,46.743 28.447,48.474 30,47.658 
		31.555,48.474 31.258,46.743 32.514,45.518 	"/>
	<polygon fill="#003366" points="26.153,46.249 24.816,46.583 23.783,45.673 23.689,47.046 22.501,47.748 23.78,48.263 
		24.08,49.607 24.964,48.552 26.335,48.681 25.605,47.514 	"/>
	<polygon fill="#003366" points="36.217,45.673 35.184,46.583 33.846,46.249 34.395,47.514 33.662,48.681 35.035,48.552 
		35.918,49.607 36.219,48.263 37.496,47.748 36.311,47.046 	"/>
	<path fill="#000D49" d="M15.429,29.79c1.792,1.645,3.634,3.194,4.352,3.791c-0.23,0.903-0.811,3.233-1.295,5.613
		c-0.58,2.84-0.785,4.537-0.785,5.578c0,1.151,0.252,1.5,0.52,1.703c0.543,0.409,1.518,0.556,6.873-2.463
		c2.129-1.2,4.184-2.478,4.975-2.975c0.785,0.493,2.814,1.754,4.92,2.944c5.285,2.984,6.295,2.872,6.826,2.532
		c0.313-0.197,0.59-0.541,0.59-1.756c0-1.051-0.207-2.752-0.779-5.575c-0.49-2.419-1.076-4.796-1.311-5.711
		c0.715-0.589,2.531-2.108,4.299-3.721c3.75-3.424,4.461-4.653,4.461-5.336c0-0.131-0.025-0.242-0.061-0.343
		c-0.219-0.63-0.939-1.304-7.002-2.012c-2.412-0.282-4.805-0.459-5.734-0.522c-0.34-0.866-1.23-3.084-2.227-5.287
		c-2.514-5.547-3.422-6.012-4.078-6.012c-0.656,0-1.567,0.465-4.102,6.017c-1.007,2.206-1.905,4.428-2.25,5.294
		c-0.925,0.06-3.29,0.225-5.678,0.495c-6.009,0.678-6.741,1.38-6.955,1.984c-0.037,0.104-0.063,0.216-0.063,0.35
		C10.925,25.07,11.646,26.317,15.429,29.79z"/>
	<path fill="#FEF81D" d="M12.257,24.468c0.078-0.403,1.56-0.683,6.156-1.185c2.889-0.315,5.665-0.476,5.692-0.478
		c0.25-0.014,0.471-0.173,0.561-0.407c0.011-0.026,1.03-2.636,2.234-5.303c1.931-4.274,2.613-5.525,3.07-5.52
		c0.504-0.003,1.243,1.23,3.061,5.44c0.746,1.725,1.527,3.628,2.199,5.366c0.09,0.234,0.309,0.395,0.559,0.41
		c0.029,0.002,2.828,0.177,5.742,0.506c4.623,0.522,6.09,0.833,6.211,1.21c0.105,0.393-0.869,1.469-4.258,4.536
		c-2.137,1.937-4.275,3.68-4.297,3.697c-0.15,0.124-0.234,0.309-0.234,0.498c0,0.054,0.006,0.108,0.02,0.162
		c0.008,0.026,0.717,2.768,1.318,5.664c0.83,3.982,1.252,5.998,0.783,6.332c-0.461,0.275-1.898-0.467-5.727-2.686
		c-2.535-1.469-4.912-2.957-4.936-2.971c-0.209-0.135-0.479-0.135-0.69,0c-0.023,0.014-2.396,1.524-4.949,2.98
		c-3.756,2.144-5.252,3.085-5.748,2.682c-0.402-0.324,0.103-2.998,0.785-6.279c0.598-2.87,1.307-5.586,1.313-5.611
		c0.015-0.055,0.021-0.109,0.021-0.164c0-0.189-0.084-0.372-0.234-0.496c-0.021-0.018-2.187-1.794-4.349-3.765
		C13.114,25.948,12.175,24.91,12.257,24.468z"/>
	<path fill="#003366" d="M15.265,20.689c0.197-0.31,0.401-0.604,0.608-0.888c0.266,0.205,0.922,0.639,1.791,0.707
		c1.145,0.092,1.751-0.525,1.751-0.525s-0.475-0.703-1.62-0.793c-0.717-0.056-1.342,0.155-1.708,0.321
		c0.47-0.618,0.961-1.178,1.462-1.685c0.272,0.209,0.926,0.634,1.783,0.702c1.144,0.091,1.75-0.526,1.75-0.526
		s-0.475-0.702-1.62-0.792c-0.616-0.049-1.163,0.101-1.538,0.25c0.507-0.482,1.02-0.911,1.527-1.293
		c0.289,0.197,0.957,0.58,1.81,0.605c1.148,0.035,1.72-0.611,1.72-0.611s-0.514-0.678-1.664-0.711
		c-0.398-0.012-0.764,0.058-1.07,0.153c0.713-0.477,1.398-0.861,2.025-1.17c0.402,0.071,1.16,0.14,1.931-0.146
		c1.128-0.417,1.394-1.262,1.394-1.262s-0.805-0.45-1.933-0.032c-0.773,0.286-1.28,0.824-1.522,1.135
		c-0.271,0.134-0.555,0.28-0.845,0.442c0.169-0.193,0.329-0.419,0.454-0.682c0.492-1.037,0.041-1.804,0.041-1.804
		s-0.914,0.212-1.406,1.249c-0.375,0.792-0.275,1.586-0.209,1.917c-0.473,0.31-0.957,0.659-1.443,1.051
		c0.199-0.307,0.393-0.707,0.463-1.176c0.17-1.12-0.489-1.742-0.489-1.742s-0.819,0.438-0.987,1.559
		c-0.132,0.873,0.211,1.62,0.369,1.908c-0.454,0.404-0.904,0.849-1.345,1.336c0.138-0.368,0.257-0.871,0.183-1.426
		c-0.146-1.12-0.956-1.561-0.956-1.561s-0.67,0.62-0.524,1.742c0.112,0.854,0.63,1.484,0.871,1.734
		c-0.471,0.563-0.927,1.175-1.354,1.849L15.265,20.689z"/>
	<path fill="#003366" d="M16.445,41.564l0.25-0.24c-0.236-0.28-0.455-0.563-0.664-0.847c0.275-0.191,0.887-0.687,1.213-1.496
		c0.431-1.063,0.023-1.828,0.023-1.828s-0.813,0.244-1.242,1.307c-0.269,0.668-0.256,1.327-0.207,1.727
		c-0.449-0.634-0.835-1.27-1.167-1.9c0.28-0.196,0.881-0.69,1.205-1.49c0.43-1.063,0.023-1.828,0.023-1.828
		s-0.812,0.244-1.243,1.309c-0.231,0.574-0.252,1.14-0.223,1.542c-0.309-0.628-0.564-1.247-0.775-1.847
		c0.274-0.216,0.84-0.738,1.121-1.543c0.378-1.086-0.066-1.824-0.066-1.824s-0.801,0.287-1.179,1.374
		c-0.131,0.376-0.175,0.745-0.177,1.067c-0.239-0.823-0.4-1.594-0.506-2.283c0.188-0.363,0.481-1.066,0.441-1.886
		c-0.06-1.202-0.786-1.707-0.786-1.707s-0.671,0.631-0.61,1.833c0.04,0.824,0.402,1.469,0.625,1.793
		c0.045,0.299,0.102,0.611,0.168,0.938c-0.133-0.22-0.301-0.439-0.516-0.638c-0.841-0.78-1.707-0.582-1.707-0.582
		s-0.073,0.936,0.769,1.716c0.644,0.595,1.43,0.74,1.766,0.776c0.152,0.543,0.34,1.109,0.568,1.691
		c-0.233-0.281-0.557-0.586-0.982-0.793c-1.018-0.5-1.809-0.059-1.809-0.059s0.171,0.913,1.189,1.41
		c0.793,0.389,1.608,0.287,1.93,0.223c0.251,0.554,0.539,1.117,0.871,1.683c-0.309-0.241-0.753-0.505-1.304-0.603
		c-1.113-0.196-1.775,0.443-1.775,0.443s0.389,0.826,1.502,1.023c0.85,0.148,1.605-0.156,1.917-0.311
		C15.484,40.335,15.931,40.954,16.445,41.564z"/>
	<path fill="#003366" d="M35.797,14.286c0.771,0.286,1.529,0.217,1.932,0.146c0.627,0.309,1.313,0.693,2.027,1.17
		c-0.309-0.095-0.674-0.165-1.072-0.153c-1.148,0.034-1.664,0.711-1.664,0.711s0.57,0.646,1.721,0.611
		c0.852-0.025,1.52-0.409,1.809-0.605c0.508,0.382,1.02,0.811,1.527,1.293c-0.375-0.148-0.92-0.299-1.539-0.25
		c-1.145,0.09-1.619,0.792-1.619,0.792s0.605,0.617,1.75,0.526c0.859-0.068,1.512-0.493,1.785-0.702
		c0.498,0.507,0.99,1.067,1.459,1.685c-0.365-0.166-0.99-0.377-1.707-0.321c-1.145,0.09-1.621,0.793-1.621,0.793
		s0.607,0.617,1.752,0.525c0.869-0.068,1.525-0.502,1.791-0.707c0.207,0.284,0.412,0.578,0.609,0.888l0.303-0.167
		c-0.43-0.673-0.885-1.286-1.355-1.849c0.24-0.25,0.76-0.88,0.871-1.734c0.146-1.122-0.525-1.742-0.525-1.742
		s-0.809,0.44-0.955,1.561c-0.072,0.555,0.045,1.059,0.182,1.426c-0.439-0.487-0.891-0.932-1.344-1.336
		c0.158-0.288,0.5-1.035,0.369-1.908c-0.168-1.121-0.988-1.559-0.988-1.559s-0.658,0.622-0.488,1.742
		c0.07,0.469,0.264,0.869,0.463,1.176c-0.486-0.393-0.971-0.741-1.443-1.051c0.066-0.331,0.166-1.124-0.209-1.917
		c-0.492-1.037-1.406-1.249-1.406-1.249s-0.449,0.767,0.043,1.804c0.123,0.263,0.283,0.489,0.451,0.682
		c-0.289-0.162-0.572-0.309-0.844-0.442c-0.242-0.311-0.748-0.849-1.521-1.135c-1.129-0.418-1.932,0.032-1.932,0.032
		S34.67,13.869,35.797,14.286z"/>
	<path fill="#003366" d="M47.332,33.734c0.064-0.327,0.121-0.64,0.166-0.938c0.225-0.324,0.586-0.969,0.627-1.793
		c0.059-1.202-0.611-1.833-0.611-1.833s-0.727,0.505-0.785,1.707c-0.041,0.819,0.252,1.522,0.441,1.886
		c-0.107,0.689-0.268,1.46-0.508,2.283c-0.002-0.322-0.045-0.691-0.176-1.067c-0.377-1.087-1.18-1.374-1.18-1.374
		s-0.445,0.738-0.066,1.824c0.281,0.805,0.848,1.327,1.121,1.543c-0.211,0.6-0.467,1.219-0.773,1.847
		c0.029-0.402,0.006-0.968-0.223-1.542c-0.432-1.064-1.244-1.309-1.244-1.309s-0.406,0.765,0.023,1.828
		c0.322,0.8,0.926,1.294,1.205,1.49c-0.332,0.631-0.719,1.267-1.168,1.9c0.049-0.399,0.063-1.059-0.207-1.727
		c-0.43-1.063-1.242-1.307-1.242-1.307s-0.406,0.766,0.023,1.828c0.328,0.81,0.938,1.305,1.215,1.496
		c-0.211,0.283-0.43,0.566-0.666,0.847l0.25,0.24c0.514-0.61,0.961-1.229,1.357-1.849c0.311,0.154,1.066,0.459,1.916,0.311
		c1.113-0.197,1.502-1.023,1.502-1.023s-0.662-0.64-1.775-0.443c-0.551,0.098-0.996,0.361-1.305,0.603
		c0.332-0.565,0.621-1.129,0.871-1.683c0.322,0.064,1.137,0.166,1.932-0.223c1.016-0.497,1.189-1.41,1.189-1.41
		s-0.791-0.441-1.811,0.059c-0.426,0.207-0.748,0.512-0.982,0.793c0.229-0.582,0.416-1.148,0.57-1.691
		c0.336-0.036,1.121-0.182,1.766-0.776c0.842-0.78,0.77-1.716,0.77-1.716s-0.867-0.198-1.709,0.582
		C47.633,33.295,47.463,33.515,47.332,33.734z"/>
	<path fill="#000D49" d="M26.833,32.015c0.98,0.011,1.145-1.666,1.145-3.721c0-2.056,0-3.838-1.113-3.735
		c-0.97,0.089-1.189,1.601-1.189,3.657C25.675,30.27,25.807,32.004,26.833,32.015z"/>
	<path fill="#FFFFFF" d="M26.452,25.442c0.104-0.263,0.271-0.392,0.445-0.391c0.173,0,0.334,0.106,0.437,0.365
		c0.085,0.211,0.127,0.542,0.126,0.84c0,0.291-0.053,0.627-0.134,0.835c-0.105,0.268-0.262,0.367-0.438,0.367
		c-0.176-0.001-0.334-0.099-0.437-0.365c-0.082-0.208-0.126-0.548-0.126-0.841C26.326,25.957,26.367,25.65,26.452,25.442z"/>
	<path fill="#000D49" d="M33.277,32.015c1.025-0.011,1.158-1.745,1.158-3.799c0-2.056-0.221-3.568-1.189-3.657
		c-1.115-0.103-1.113,1.679-1.113,3.735C32.133,30.349,32.297,32.025,33.277,32.015z"/>
	<path fill="#FFFFFF" d="M32.65,26.256c-0.002-0.298,0.041-0.629,0.125-0.84c0.104-0.259,0.266-0.365,0.438-0.365
		c0.176-0.001,0.34,0.128,0.445,0.391c0.084,0.208,0.125,0.515,0.125,0.811c0.002,0.292-0.043,0.632-0.125,0.841
		c-0.102,0.266-0.262,0.364-0.436,0.365c-0.178,0-0.334-0.099-0.438-0.367C32.703,26.883,32.65,26.546,32.65,26.256z"/>
	<g>
		<g>
			<path fill="#003366" d="M30,0C13.455,0,0,13.457,0,30.001C0,46.542,13.455,60,30,60c16.543,0,30-13.458,30-29.999
				C60,13.457,46.543,0,30,0z M30,58.653c-15.8,0-28.652-12.854-28.652-28.652v-0.002h2.828c0.001-1.039,0.061-2.081,0.188-3.111
				l-2.808-0.34c0.141-1.157,0.349-2.293,0.623-3.404l2.74,0.674c0.249-1.011,0.559-2.006,0.928-2.978l-2.638-1
				c0.413-1.084,0.89-2.137,1.426-3.154l2.493,1.313c0.483-0.923,1.023-1.813,1.615-2.667L6.43,13.728
				c0.658-0.95,1.37-1.857,2.136-2.719l2.104,1.867c0.69-0.778,1.428-1.514,2.207-2.204l-1.868-2.107
				c0.862-0.764,1.77-1.478,2.719-2.135l1.602,2.313c0.856-0.589,1.747-1.129,2.667-1.614l-1.313-2.493
				c1.018-0.536,2.072-1.013,3.156-1.426l1.002,2.638c0.969-0.367,1.967-0.679,2.977-0.926l-0.674-2.743
				c1.109-0.274,2.246-0.483,3.402-0.623l0.338,2.808C27.919,4.238,28.96,4.176,30,4.176V1.347c1.168,0,2.321,0.072,3.452,0.208
				l-0.338,2.808c1.031,0.121,2.057,0.31,3.068,0.558l0.674-2.744c1.129,0.278,2.232,0.624,3.305,1.032l-1.002,2.638
				c0.973,0.369,1.922,0.797,2.846,1.281l1.311-2.494c1.023,0.539,2.01,1.139,2.957,1.793L44.67,8.743
				c0.855,0.593,1.674,1.238,2.455,1.929l1.867-2.106c0.861,0.764,1.676,1.58,2.441,2.442l-2.104,1.868
				c0.688,0.779,1.332,1.6,1.924,2.455l2.316-1.603c0.654,0.946,1.254,1.934,1.795,2.958l-2.494,1.313
				c0.48,0.922,0.912,1.87,1.279,2.842l2.639-1.001c0.408,1.072,0.754,2.175,1.031,3.305l-2.742,0.674
				c0.248,1.011,0.436,2.036,0.559,3.07l2.807-0.34c0.139,1.132,0.209,2.283,0.209,3.453C58.652,45.799,45.799,58.653,30,58.653z"/>
		</g>
		<path fill="#003366" d="M30,8.262c11.989,0,21.739,9.75,21.739,21.739c0,11.985-9.75,21.738-21.739,21.738
			c-11.988,0-21.738-9.753-21.738-21.738C8.262,18.012,18.011,8.262,30,8.262 M30,6.987c-12.689,0-23.013,10.324-23.013,23.014
			C6.986,42.69,17.31,53.013,30,53.013c12.692,0,23.014-10.322,23.014-23.012C53.014,17.311,42.691,6.987,30,6.987L30,6.987z"/>
		<polygon fill="#003366" points="7.697,37.845 6.279,36.817 6.971,35.208 6.389,33.1 2.29,33.662 2.871,35.771 4.729,35.517 
			4.168,37.397 5.615,38.728 3.887,39.461 4.469,41.57 8.278,39.952 		"/>
		<path fill="#003366" d="M16.951,49.825l-1.383-0.932l-0.458-0.306l-1.37-0.923l-2.391,3.304l1.827,1.229l1.754-2.423l0.996,0.67
			c0.334,0.226,0.252,0.892-0.259,0.956c-0.512,0.064-1.077-0.217-1.077-0.217l0.413,2.242l2.054,1.383l-0.344-1.867
			c0,0,1.266,0.126,1.744-0.533C19.148,51.45,17.865,50.44,16.951,49.825z"/>
		<polygon fill="#003366" points="19.816,55.77 21.707,56.438 22.974,52.935 21.083,52.268 		"/>
		<g>
			<path fill="#003366" d="M28.085,53.633c-1.807-0.142-3.365,0.687-3.479,1.851c-0.111,1.162,1.264,2.218,3.072,2.359
				c1.809,0.141,3.368-0.686,3.479-1.85C31.271,54.829,29.894,53.773,28.085,53.633z M27.822,56.357
				c-0.531-0.04-0.936-0.353-0.902-0.695c0.033-0.342,0.49-0.585,1.023-0.543c0.531,0.041,0.936,0.352,0.902,0.694
				C28.812,56.154,28.355,56.399,27.822,56.357z"/>
		</g>
		<polygon fill="#003366" points="11.1,44.452 10.774,44.024 9.799,42.742 5.653,44.019 6.954,45.729 10.271,44.707 8.255,47.44 
			9.555,49.151 12.075,45.735 		"/>
		<polygon fill="#003366" points="40.963,51.441 38.58,52.202 37.363,54.522 36.729,52.794 34.613,53.47 35.973,57.173 
			38.088,56.498 37.453,54.77 39.939,55.905 42.322,55.146 39.656,53.927 		"/>
		<polygon fill="#003366" points="44.75,48.735 44.313,49.058 43.004,50.03 44.457,53.963 46.203,52.669 45.041,49.521 
			47.949,51.373 49.693,50.078 46.057,47.765 		"/>
		<path fill="#003366" d="M52.809,40.844c-1.01-0.652-2.025,0.624-2.643,1.528l-0.934,1.373l-0.307,0.453l-0.924,1.357l3.484,2.253
			l1.23-1.811l-2.555-1.652l0.672-0.987c0.225-0.332,0.916-0.268,0.996,0.229c0.08,0.496-0.199,1.056-0.199,1.056l2.316-0.458
			l1.385-2.036l-1.93,0.381C53.402,42.53,53.506,41.294,52.809,40.844z"/>
		<polygon fill="#003366" points="54.975,32.571 53.932,32.337 53.457,34.405 52.984,36.472 52.508,38.539 53.551,38.775 
			54.025,36.708 56.891,37.355 57.365,35.287 54.5,34.64 		"/>
		<path fill="#003366" d="M53.004,30.001c0-0.941-0.059-1.868-0.168-2.779l2.801-0.335c-0.121-1.033-0.307-2.058-0.557-3.069
			l-2.744,0.675c-0.225-0.905-0.502-1.79-0.828-2.649l2.646-1.004c-0.369-0.973-0.797-1.921-1.283-2.842l-2.504,1.317
			c-0.434-0.821-0.914-1.614-1.441-2.373l2.332-1.611c-0.592-0.857-1.24-1.677-1.926-2.456l-2.121,1.881
			c-0.615-0.694-1.271-1.352-1.965-1.966l1.877-2.119c-0.777-0.69-1.596-1.336-2.451-1.928l-1.611,2.333
			c-0.76-0.526-1.553-1.008-2.373-1.44l1.316-2.508c-0.92-0.483-1.871-0.912-2.844-1.28l-1.002,2.646
			c-0.859-0.328-1.746-0.605-2.65-0.829l0.674-2.745c-1.008-0.249-2.035-0.437-3.066-0.557l-0.338,2.802
			C31.865,7.055,30.939,6.997,30,6.997V4.174c-1.037,0-2.078,0.063-3.111,0.188l0.336,2.802c-0.928,0.112-1.84,0.28-2.73,0.5
			L23.82,4.919c-1.008,0.249-2.006,0.56-2.977,0.927l1.002,2.646c-0.869,0.331-1.713,0.713-2.531,1.143l-1.316-2.508
			c-0.918,0.485-1.811,1.026-2.668,1.616l1.612,2.333c-0.762,0.528-1.491,1.101-2.183,1.715l-1.883-2.119
			c-0.776,0.688-1.513,1.425-2.204,2.204l2.12,1.881c-0.614,0.693-1.188,1.422-1.716,2.186l-2.329-1.611
			c-0.591,0.853-1.131,1.744-1.616,2.667l2.505,1.317c-0.429,0.815-0.811,1.659-1.14,2.528L5.85,20.84
			c-0.369,0.971-0.68,1.967-0.928,2.978l2.744,0.674c-0.219,0.891-0.388,1.802-0.5,2.73l-2.802-0.335
			c-0.126,1.031-0.183,2.073-0.186,3.112l-2.831,0.002c0-1.17,0.072-2.321,0.209-3.454l2.808,0.34
			c0.123-1.033,0.312-2.058,0.558-3.069L2.18,23.144c0.277-1.13,0.623-2.232,1.031-3.305L5.85,20.84
			c0.369-0.973,0.797-1.921,1.28-2.842l-2.494-1.313c0.54-1.024,1.141-2.012,1.796-2.959l2.314,1.604
			c0.593-0.857,1.236-1.677,1.925-2.456l-2.104-1.868c0.765-0.862,1.58-1.678,2.442-2.442l1.865,2.106
			c0.782-0.69,1.602-1.336,2.454-1.928L13.73,6.427c0.946-0.655,1.933-1.254,2.957-1.793l1.311,2.493
			c0.922-0.483,1.873-0.912,2.846-1.28l-1.004-2.638c1.074-0.408,2.178-0.753,3.307-1.031l0.674,2.742
			c1.012-0.249,2.035-0.437,3.068-0.557L26.55,1.555C27.681,1.418,28.833,1.347,30,1.347v2.828c1.042,0,2.083,0.063,3.116,0.188
			l0.338-2.808c1.158,0.14,2.293,0.349,3.404,0.623l-0.676,2.742c1.01,0.249,2.008,0.56,2.979,0.927l1.002-2.638
			c1.084,0.413,2.137,0.89,3.156,1.426l-1.314,2.492c0.92,0.485,1.813,1.026,2.668,1.616l1.602-2.314
			c0.949,0.658,1.857,1.371,2.719,2.135l-1.869,2.107c0.779,0.688,1.518,1.425,2.209,2.204l2.104-1.867
			c0.766,0.862,1.479,1.77,2.137,2.718l-2.314,1.604c0.59,0.853,1.131,1.744,1.613,2.667l2.494-1.313
			c0.537,1.016,1.012,2.07,1.426,3.154l-2.637,1c0.367,0.971,0.678,1.967,0.926,2.978l2.742-0.674
			c0.273,1.11,0.482,2.246,0.621,3.403l-2.807,0.34c0.127,1.031,0.188,2.073,0.188,3.112L53.004,30.001z"/>
	</g>
</g>
</svg>
