<?xml version="1.0" encoding="utf-8"?>
<!-- Generator: Adobe Illustrator 16.2.0, SVG Export Plug-In . SVG Version: 6.00 Build 0)  -->
<!DOCTYPE svg PUBLIC "-//W3C//DTD SVG 1.1//EN" "http://www.w3.org/Graphics/SVG/1.1/DTD/svg11.dtd">
<svg version="1.1" id="レイヤー_1" xmlns="http://www.w3.org/2000/svg" xmlns:xlink="http://www.w3.org/1999/xlink" x="0px"
	 y="0px" width="60px" height="60px" viewBox="0 0 60 60" enable-background="new 0 0 60 60" xml:space="preserve">
<g>
	<path fill="#003366" d="M38.047,13.923c0.596,0.223,1.182,0.171,1.493,0.116c0.483,0.24,1.014,0.54,1.563,0.909
		c-0.237-0.074-0.519-0.129-0.827-0.12c-0.889,0.024-1.288,0.547-1.288,0.547s0.44,0.5,1.329,0.476
		c0.658-0.017,1.175-0.313,1.4-0.465c0.391,0.296,0.786,0.629,1.176,1.003c-0.289-0.115-0.711-0.232-1.188-0.196
		c-0.885,0.067-1.254,0.61-1.254,0.61s0.469,0.478,1.352,0.41c0.665-0.051,1.169-0.379,1.381-0.539
		c0.386,0.392,0.763,0.826,1.126,1.304c-0.283-0.129-0.765-0.293-1.32-0.25c-0.885,0.067-1.253,0.609-1.253,0.609
		s0.467,0.478,1.353,0.411c0.671-0.051,1.179-0.386,1.386-0.544c0.158,0.22,0.315,0.448,0.468,0.688l0.234-0.129
		c-0.329-0.52-0.681-0.995-1.044-1.431c0.187-0.193,0.588-0.679,0.679-1.339c0.114-0.866-0.402-1.348-0.402-1.348
		s-0.627,0.339-0.744,1.206c-0.056,0.427,0.034,0.817,0.14,1.101c-0.339-0.377-0.687-0.721-1.036-1.034
		c0.123-0.223,0.39-0.801,0.29-1.475c-0.129-0.867-0.761-1.208-0.761-1.208s-0.511,0.48-0.382,1.346
		c0.053,0.362,0.201,0.672,0.354,0.911c-0.375-0.306-0.747-0.576-1.113-0.817c0.053-0.255,0.13-0.868-0.158-1.481
		c-0.377-0.803-1.084-0.968-1.084-0.968s-0.349,0.591,0.029,1.395c0.095,0.203,0.218,0.378,0.349,0.528
		c-0.225-0.126-0.441-0.24-0.65-0.343c-0.188-0.241-0.578-0.659-1.176-0.882c-0.871-0.325-1.493,0.021-1.493,0.021
		S37.176,13.598,38.047,13.923z"/>
	<polygon fill="#003366" points="22.235,19.683 20.617,19.134 21.166,20.751 20.146,22.122 21.854,22.097 22.84,23.494 
		23.345,21.862 24.977,21.356 23.582,20.371 23.604,18.662 	"/>
	<path fill="#003366" d="M12.559,33.436c-0.371,0.459-0.52,0.98-0.577,1.306c-0.202-0.606-0.352-1.2-0.461-1.774
		c0.268-0.088,0.859-0.332,1.307-0.883c0.593-0.732,0.458-1.432,0.458-1.432s-0.698-0.004-1.292,0.729
		c-0.32,0.397-0.473,0.838-0.548,1.16c-0.091-0.568-0.143-1.116-0.165-1.639c0.27-0.103,0.841-0.377,1.254-0.943
		c0.56-0.762,0.387-1.449,0.387-1.449s-0.699,0.031-1.257,0.795c-0.195,0.266-0.316,0.545-0.396,0.797
		c0.01-0.703,0.068-1.35,0.151-1.917c0.235-0.239,0.634-0.721,0.799-1.376c0.244-0.959-0.206-1.531-0.206-1.531
		s-0.68,0.335-0.922,1.295c-0.165,0.657-0.036,1.251,0.061,1.56c-0.035,0.246-0.067,0.506-0.093,0.778
		c-0.053-0.205-0.132-0.418-0.252-0.625c-0.475-0.815-1.203-0.869-1.203-0.869s-0.282,0.719,0.192,1.535
		c0.363,0.623,0.945,0.926,1.201,1.033c-0.011,0.467,0,0.956,0.041,1.469c-0.116-0.278-0.298-0.596-0.581-0.861
		c-0.682-0.637-1.411-0.479-1.411-0.479s-0.083,0.759,0.598,1.396c0.53,0.496,1.195,0.611,1.465,0.639
		c0.063,0.494,0.153,1.008,0.278,1.531c-0.185-0.264-0.471-0.578-0.88-0.787c-0.827-0.423-1.502-0.078-1.502-0.078
		s0.106,0.744,0.935,1.166c0.632,0.322,1.299,0.264,1.581,0.217c0.162,0.583,0.364,1.176,0.621,1.779l0.255-0.127
		c-0.117-0.277-0.222-0.553-0.319-0.826c0.264-0.085,0.864-0.326,1.313-0.884c0.597-0.735,0.461-1.433,0.461-1.433
		S13.153,32.701,12.559,33.436z"/>
	<path fill="#003366" d="M47.924,35.021c-0.098,0.273-0.201,0.549-0.32,0.826l0.256,0.127c0.256-0.604,0.458-1.196,0.62-1.779
		c0.282,0.047,0.95,0.105,1.582-0.217c0.827-0.422,0.935-1.166,0.935-1.166s-0.675-0.345-1.502,0.078
		c-0.409,0.209-0.696,0.523-0.88,0.787c0.124-0.523,0.216-1.037,0.277-1.531c0.27-0.027,0.937-0.143,1.466-0.639
		c0.68-0.637,0.597-1.396,0.597-1.396s-0.729-0.157-1.408,0.479c-0.285,0.266-0.467,0.583-0.581,0.861
		c0.038-0.513,0.05-1.002,0.039-1.469c0.256-0.107,0.838-0.41,1.201-1.033c0.475-0.816,0.192-1.535,0.192-1.535
		s-0.729,0.054-1.203,0.869c-0.121,0.207-0.199,0.42-0.251,0.625c-0.025-0.272-0.059-0.532-0.094-0.778
		c0.098-0.309,0.228-0.903,0.061-1.56c-0.242-0.96-0.922-1.295-0.922-1.295s-0.45,0.572-0.207,1.531
		c0.166,0.656,0.564,1.137,0.801,1.376c0.084,0.567,0.141,1.214,0.15,1.917c-0.078-0.252-0.2-0.531-0.396-0.797
		c-0.558-0.764-1.256-0.795-1.256-0.795s-0.172,0.688,0.387,1.449c0.414,0.566,0.985,0.841,1.253,0.943
		c-0.022,0.522-0.074,1.07-0.165,1.639c-0.073-0.322-0.227-0.763-0.547-1.16c-0.595-0.732-1.292-0.729-1.292-0.729
		s-0.136,0.699,0.458,1.432c0.446,0.551,1.039,0.795,1.308,0.883c-0.11,0.574-0.261,1.168-0.462,1.774
		c-0.059-0.325-0.205-0.847-0.577-1.306c-0.595-0.734-1.293-0.73-1.293-0.73s-0.136,0.697,0.46,1.433
		C47.061,34.695,47.66,34.937,47.924,35.021z"/>
	<path fill="#003366" d="M15.059,18.892c0.151-0.24,0.31-0.469,0.469-0.688c0.206,0.158,0.714,0.493,1.385,0.544
		c0.887,0.067,1.354-0.411,1.354-0.411s-0.37-0.542-1.254-0.609c-0.555-0.042-1.037,0.122-1.32,0.25
		c0.363-0.479,0.74-0.912,1.126-1.304c0.211,0.16,0.716,0.488,1.381,0.539c0.884,0.067,1.353-0.41,1.353-0.41
		s-0.369-0.542-1.254-0.61c-0.479-0.036-0.9,0.081-1.189,0.196c0.391-0.374,0.786-0.707,1.179-1.003
		c0.224,0.151,0.74,0.448,1.399,0.465c0.888,0.024,1.327-0.476,1.327-0.476s-0.398-0.523-1.286-0.547
		c-0.309-0.009-0.591,0.046-0.828,0.12c0.55-0.369,1.08-0.668,1.563-0.909c0.311,0.055,0.896,0.106,1.492-0.116
		c0.87-0.325,1.072-0.979,1.072-0.979s-0.621-0.346-1.492-0.021c-0.598,0.223-0.987,0.641-1.174,0.882
		c-0.21,0.103-0.428,0.217-0.651,0.343c0.13-0.15,0.252-0.326,0.348-0.528c0.379-0.803,0.028-1.395,0.028-1.395
		s-0.706,0.165-1.084,0.968c-0.288,0.614-0.21,1.227-0.157,1.481c-0.364,0.241-0.739,0.511-1.113,0.817
		c0.153-0.239,0.301-0.549,0.355-0.911c0.129-0.865-0.383-1.346-0.383-1.346s-0.631,0.341-0.76,1.208
		c-0.1,0.674,0.167,1.251,0.289,1.475c-0.35,0.313-0.696,0.656-1.036,1.034c0.105-0.284,0.196-0.674,0.139-1.101
		c-0.116-0.867-0.742-1.206-0.742-1.206s-0.518,0.481-0.401,1.348c0.089,0.66,0.489,1.146,0.677,1.339
		c-0.364,0.436-0.715,0.911-1.043,1.431L15.059,18.892z"/>
	<path fill="#000D49" d="M25.607,43.138c0.788,0,1.574-0.086,2.34-0.255c-0.17,1.189-0.725,2.391-1.217,3.455l-0.229,0.499
		l0.004,0.042c0.144,1.758,1.711,2.707,3.118,2.707c1.024,0,1.942-0.449,2.581-1.266l0.033-0.078
		c0.211-1.426,0.051-3.322-0.093-4.997l-0.032-0.396c0.851,0.182,1.691,0.272,2.504,0.272c0.001,0,0.001,0,0.001,0
		c5.55,0,8.788-4.216,9.826-6.706c1.747-4.191,1.581-9.227-0.445-13.469c-2.216-4.646-5.382-6.944-13.187-11.087
		c-0.326-0.173-0.542-0.279-0.783-0.279c-0.233,0-0.464,0.1-0.783,0.268c-0.255,0.135-0.533,0.28-0.83,0.435
		c-1.827,0.952-4.329,2.253-5.935,3.631c-0.193,0.166-0.287,0.407-0.235,0.617c0.043,0.186,0.189,0.321,0.4,0.375
		c2.645,0.648,3.839,2.086,3.654,4.396c-0.192,2.391-2.279,3.647-4.055,3.548c-2.006-0.113-3.375-1.305-3.574-3.113
		c-0.07-0.63-0.278-0.948-0.617-0.948c-0.312,0-0.677,0.293-1.148,0.927c-4.087,5.489-2.875,14.33,0.894,18.275
		C19.188,41.443,22.064,43.138,25.607,43.138z"/>
	<path fill="#C93A02" d="M25.647,41.871c-1.179,0-5.139-0.26-7.531-3.545h0.076c2.209,0,7.853,1.219,10.898,2.746
		C28.293,41.578,27.034,41.871,25.647,41.871z"/>
	<path fill="#C93A02" d="M34.338,41.871c-1.383,0-2.643-0.293-3.441-0.799c3.082-1.545,8.838-2.768,10.974-2.746
		C39.479,41.611,35.519,41.871,34.338,41.871z"/>
	<path fill="#C93A02" d="M30.45,13.099c2.735,1.395,5.021,2.725,6.976,4.058c-2.919,0.688-6.097,2.09-6.976,2.493V13.099z"/>
	<path fill="#EEB633" d="M30.45,20.716c2.45-1.171,5.907-2.402,7.963-2.835c1.353,0.932,3.352,3.425,4.155,4.939
		c-3.939,0.411-8.637,1.641-12.118,3.175V20.716z"/>
	<path fill="#C93A02" d="M30.45,27.059c2.227-1.072,7.272-2.92,12.622-3.305c0.385,0.872,1.388,3.482,1.325,6.766
		c-5.434,0.062-10.848,1.629-13.947,3.21V27.059z"/>
	<path fill="#EEB633" d="M30.45,34.779c4.087-2.087,9.03-3.26,13.947-3.309c0.023,2.06-1.038,4.908-1.8,5.893
		c-3.733,0.045-8.877,1.236-12.147,2.807V34.779z"/>
	<path fill="#C93A02" d="M29.961,41.627c0.104,0.021,0.523,0.336,0.752,0.77c0.047,0.33,0.528,3.66,0.324,5.372
		c-0.235,0.268-0.795,0.53-1.458,0.53c-0.423,0-1.437-0.128-1.846-1.295c1.087-1.785,1.557-4.441,1.621-4.825
		C29.671,41.781,29.895,41.638,29.961,41.627z"/>
	<path fill="#C93A02" d="M24.244,16.069c1.98-1.228,3.921-2.27,5.294-2.97v6.551c-0.406-0.188-1.31-0.589-2.439-1.031
		C26.527,17.417,25.523,16.523,24.244,16.069z"/>
	<path fill="#EEB633" d="M27.445,19.797c0.764,0.311,1.467,0.618,2.093,0.917v5.281c-1.075-0.474-2.264-0.92-3.542-1.33
		C27.655,22.91,27.614,20.857,27.445,19.797z"/>
	<path fill="#C93A02" d="M17.645,22.812c0.672,2.001,2.44,3.275,4.596,3.275c0.947,0,1.926-0.255,2.83-0.735
		c1.668,0.517,3.249,1.119,4.468,1.707v6.671c-3.102-1.581-8.515-3.148-13.946-3.21C15.541,27.721,16.42,24.454,17.645,22.812z"/>
	<path fill="#EEB633" d="M15.592,31.471c4.915,0.049,9.859,1.222,13.946,3.309v5.391c-3.271-1.57-8.417-2.762-12.148-2.807
		C16.627,36.376,15.566,33.529,15.592,31.471z"/>
	<path fill="#000D49" d="M26.289,26.045c-0.498,0-1.175,0.262-1.175,3.083c0,2.819,0.736,2.878,1.175,2.878
		c0.441,0,0.971-0.322,0.971-2.878C27.26,26.775,26.965,26.045,26.289,26.045z"/>
	<path fill="#FFFFFF" d="M26.23,28.395c-0.38,0-0.439-0.436-0.439-0.969c0-0.536,0.117-0.969,0.439-0.969s0.441,0.434,0.441,0.969
		C26.672,27.959,26.612,28.395,26.23,28.395z"/>
	<path fill="#000D49" d="M33.69,26.045c-0.498,0-1.176,0.262-1.176,3.083c0,2.819,0.735,2.878,1.176,2.878s0.969-0.322,0.969-2.878
		C34.659,26.775,34.365,26.045,33.69,26.045z"/>
	<path fill="#FFFFFF" d="M33.632,28.395c-0.382,0-0.439-0.436-0.439-0.969c0-0.536,0.117-0.969,0.439-0.969
		c0.323,0,0.44,0.434,0.44,0.969C34.072,27.959,34.014,28.395,33.632,28.395z"/>
	<path fill="#003366" d="M42.443,43.532c0.331-0.12,0.932-0.404,1.391-0.984c0.668-0.847,0.506-1.657,0.506-1.657
		s-0.793-0.01-1.462,0.838c-0.457,0.579-0.608,1.244-0.659,1.607c-0.436,0.449-0.955,0.928-1.559,1.404
		c0.167-0.236,0.327-0.527,0.427-0.871c0.29-0.99-0.146-1.617-0.146-1.617s-0.709,0.309-0.997,1.299
		c-0.215,0.734-0.072,1.41,0.016,1.711c-0.467,0.328-0.976,0.646-1.527,0.945c0.232-0.277,0.511-0.703,0.64-1.244
		c0.24-1.002-0.228-1.602-0.228-1.602s-0.693,0.347-0.935,1.348c-0.179,0.752,0.003,1.426,0.105,1.717
		c-0.569,0.287-1.183,0.551-1.841,0.779c0.242-0.266,0.595-0.74,0.746-1.367c0.239-1.002-0.228-1.602-0.228-1.602
		s-0.694,0.346-0.934,1.348c-0.183,0.761,0.007,1.439,0.107,1.725c-0.3,0.098-0.608,0.19-0.927,0.272l0.06,0.306
		c0.692-0.18,1.341-0.398,1.951-0.645c0.147,0.273,0.542,0.891,1.239,1.224C39.105,48.9,39.82,48.5,39.82,48.5
		s-0.151-0.813-1.066-1.248c-0.452-0.215-0.915-0.254-1.267-0.238c0.536-0.24,1.04-0.502,1.511-0.777
		c0.202,0.215,0.745,0.715,1.526,0.844c1.002,0.166,1.604-0.41,1.604-0.41s-0.349-0.735-1.352-0.901
		c-0.418-0.069-0.813-0.015-1.131,0.069c0.47-0.307,0.901-0.623,1.296-0.94c0.264,0.149,0.914,0.452,1.693,0.353
		c1.022-0.133,1.455-0.854,1.455-0.854s-0.53-0.596-1.551-0.465c-0.259,0.034-0.497,0.107-0.708,0.199
		C42.051,43.926,42.254,43.727,42.443,43.532z"/>
	<path fill="#003366" d="M24.242,45.584c-0.238-1.002-0.934-1.348-0.934-1.348s-0.468,0.6-0.228,1.602
		c0.15,0.627,0.503,1.102,0.747,1.367c-0.658-0.229-1.271-0.492-1.843-0.779c0.103-0.291,0.285-0.965,0.105-1.717
		c-0.239-1.001-0.934-1.348-0.934-1.348s-0.468,0.6-0.228,1.602c0.129,0.541,0.409,0.967,0.639,1.244
		c-0.552-0.299-1.06-0.617-1.527-0.945c0.09-0.301,0.232-0.977,0.017-1.711c-0.288-0.99-0.997-1.299-0.997-1.299
		s-0.436,0.627-0.146,1.617c0.1,0.344,0.26,0.635,0.427,0.871c-0.604-0.477-1.123-0.955-1.559-1.404
		c-0.051-0.363-0.202-1.028-0.659-1.607c-0.669-0.848-1.463-0.838-1.463-0.838s-0.161,0.811,0.507,1.657
		c0.46,0.58,1.06,0.864,1.392,0.984c0.188,0.194,0.393,0.394,0.611,0.599c-0.212-0.092-0.449-0.165-0.708-0.199
		c-1.021-0.131-1.55,0.465-1.55,0.465s0.432,0.721,1.454,0.854c0.78,0.1,1.429-0.203,1.692-0.353
		c0.396,0.317,0.827,0.634,1.298,0.94c-0.318-0.084-0.712-0.139-1.132-0.069c-1.003,0.166-1.352,0.901-1.352,0.901
		s0.601,0.576,1.604,0.41c0.781-0.129,1.323-0.629,1.527-0.844c0.469,0.275,0.973,0.537,1.51,0.777
		c-0.352-0.016-0.814,0.023-1.267,0.238c-0.915,0.436-1.066,1.248-1.066,1.248s0.715,0.4,1.63-0.034
		c0.699-0.333,1.093-0.95,1.239-1.224c0.61,0.246,1.26,0.465,1.952,0.645l0.059-0.306c-0.318-0.082-0.626-0.175-0.926-0.272
		C24.236,47.023,24.424,46.345,24.242,45.584z"/>
	<g>
		<g>
			<path fill="#003366" d="M30,0c-16.545,0-30,13.457-30,30C0,46.542,13.455,60,30,60c16.542,0,30-13.458,30-29.999
				C60,13.457,46.542,0,30,0z M30,58.654c-15.801,0-28.652-12.855-28.652-28.653V30h2.828c0.001-1.04,0.061-2.082,0.188-3.112
				l-2.808-0.34c0.141-1.157,0.349-2.293,0.623-3.404l2.74,0.674c0.249-1.011,0.559-2.006,0.928-2.978l-2.638-1
				c0.413-1.084,0.89-2.137,1.426-3.154l2.493,1.313c0.483-0.923,1.023-1.813,1.615-2.667L6.43,13.728
				c0.658-0.95,1.37-1.857,2.136-2.719l2.104,1.867c0.69-0.778,1.428-1.514,2.207-2.204l-1.868-2.107
				c0.862-0.764,1.77-1.478,2.719-2.135l1.602,2.313c0.855-0.589,1.747-1.129,2.667-1.614l-1.313-2.493
				c1.019-0.536,2.072-1.013,3.156-1.426l1.002,2.638c0.97-0.367,1.968-0.679,2.978-0.926l-0.675-2.743
				c1.11-0.274,2.246-0.483,3.403-0.623l0.338,2.808C27.919,4.239,28.961,4.176,30,4.176V1.348c1.167,0,2.319,0.072,3.45,0.208
				l-0.338,2.808c1.032,0.121,2.057,0.31,3.068,0.558l0.674-2.744c1.13,0.278,2.232,0.624,3.305,1.032l-1.001,2.638
				c0.973,0.369,1.922,0.797,2.846,1.281l1.31-2.494c1.023,0.539,2.01,1.139,2.957,1.793L44.67,8.744
				c0.855,0.593,1.673,1.238,2.455,1.929l1.866-2.106c0.861,0.764,1.677,1.58,2.442,2.442l-2.104,1.868
				c0.688,0.779,1.332,1.6,1.925,2.455l2.316-1.603c0.654,0.946,1.254,1.934,1.794,2.958l-2.494,1.313
				c0.481,0.922,0.912,1.87,1.28,2.842l2.639-1.001c0.408,1.072,0.754,2.175,1.031,3.305l-2.742,0.674
				c0.247,1.011,0.436,2.036,0.558,3.07l2.808-0.34c0.138,1.131,0.209,2.284,0.209,3.453C58.652,45.799,45.798,58.654,30,58.654z"/>
		</g>
		<path fill="#003366" d="M30,8.262c11.987,0,21.738,9.75,21.738,21.739c0,11.985-9.751,21.738-21.738,21.738
			c-11.988,0-21.738-9.753-21.738-21.738C8.262,18.013,18.012,8.262,30,8.262 M30,6.988c-12.689,0-23.014,10.324-23.014,23.013
			c0,12.69,10.324,23.013,23.014,23.013c12.69,0,23.014-10.322,23.014-23.013C53.014,17.312,42.69,6.988,30,6.988L30,6.988z"/>
		<polygon fill="#003366" points="7.697,37.846 6.279,36.818 6.971,35.209 6.389,33.1 2.29,33.662 2.871,35.771 4.729,35.517 
			4.168,37.398 5.615,38.729 3.887,39.461 4.469,41.57 8.278,39.953 		"/>
		<path fill="#003366" d="M16.95,49.826l-1.383-0.932l-0.458-0.307l-1.37-0.922l-2.391,3.303l1.827,1.23l1.754-2.424l0.996,0.67
			c0.334,0.227,0.252,0.892-0.26,0.957c-0.512,0.064-1.077-0.218-1.077-0.218l0.413,2.243l2.055,1.382l-0.344-1.867
			c0,0,1.265,0.126,1.743-0.533C19.148,51.451,17.864,50.44,16.95,49.826z"/>
		<polygon fill="#003366" points="19.816,55.77 21.707,56.438 22.975,52.936 21.083,52.268 		"/>
		<g>
			<path fill="#003366" d="M28.085,53.633c-1.807-0.142-3.365,0.688-3.478,1.851c-0.111,1.163,1.264,2.218,3.072,2.36
				c1.809,0.141,3.367-0.686,3.479-1.851C31.271,54.83,29.895,53.773,28.085,53.633z M27.822,56.357
				c-0.531-0.04-0.936-0.353-0.903-0.695c0.034-0.342,0.491-0.584,1.023-0.543s0.937,0.352,0.902,0.694
				C28.812,56.154,28.354,56.4,27.822,56.357z"/>
		</g>
		<polygon fill="#003366" points="11.1,44.453 10.774,44.025 9.799,42.742 5.653,44.019 6.954,45.729 10.271,44.707 8.255,47.44 
			9.555,49.151 12.075,45.736 		"/>
		<polygon fill="#003366" points="40.962,51.441 38.58,52.202 37.363,54.523 36.728,52.795 34.612,53.471 35.972,57.174 
			38.087,56.498 37.453,54.77 39.939,55.906 42.321,55.146 39.656,53.928 		"/>
		<polygon fill="#003366" points="44.749,48.735 44.313,49.059 43.004,50.03 44.456,53.963 46.202,52.67 45.04,49.521 
			47.948,51.373 49.693,50.078 46.057,47.766 		"/>
		<path fill="#003366" d="M52.809,40.844c-1.01-0.652-2.026,0.624-2.643,1.529l-0.934,1.373l-0.308,0.453l-0.923,1.357l3.483,2.252
			l1.23-1.811l-2.554-1.652l0.672-0.986c0.224-0.332,0.916-0.268,0.996,0.229s-0.199,1.057-0.199,1.057l2.316-0.459l1.385-2.035
			l-1.93,0.38C53.402,42.53,53.506,41.294,52.809,40.844z"/>
		<polygon fill="#003366" points="54.975,32.572 53.932,32.338 53.457,34.406 52.984,36.473 52.508,38.539 53.55,38.775 
			54.025,36.709 56.891,37.355 57.365,35.287 54.5,34.641 		"/>
		<path fill="#003366" d="M53.004,30.001c0-0.94-0.059-1.868-0.169-2.778l2.802-0.335c-0.121-1.033-0.308-2.058-0.557-3.069
			l-2.745,0.675c-0.224-0.905-0.501-1.79-0.827-2.649l2.646-1.004c-0.369-0.973-0.797-1.921-1.282-2.842l-2.505,1.317
			c-0.434-0.821-0.914-1.614-1.44-2.373l2.331-1.611c-0.592-0.857-1.239-1.677-1.926-2.456l-2.121,1.881
			c-0.615-0.694-1.271-1.352-1.965-1.966l1.878-2.119c-0.777-0.69-1.597-1.336-2.452-1.928l-1.611,2.333
			c-0.76-0.526-1.552-1.008-2.373-1.44l1.317-2.508c-0.92-0.483-1.872-0.912-2.845-1.28l-1.002,2.646
			c-0.858-0.328-1.745-0.605-2.649-0.829l0.674-2.745c-1.009-0.249-2.035-0.437-3.066-0.557l-0.339,2.802
			C31.865,7.056,30.939,6.998,30,6.998V4.175c-1.038,0-2.079,0.063-3.112,0.188l0.337,2.802c-0.929,0.112-1.84,0.28-2.731,0.5
			L23.819,4.92c-1.008,0.249-2.005,0.56-2.977,0.927l1.002,2.646c-0.869,0.331-1.713,0.713-2.53,1.143l-1.316-2.508
			c-0.919,0.485-1.811,1.026-2.669,1.616l1.612,2.333c-0.763,0.528-1.491,1.101-2.184,1.715l-1.883-2.119
			c-0.776,0.688-1.513,1.425-2.204,2.204l2.12,1.881c-0.614,0.693-1.188,1.422-1.716,2.186l-2.329-1.611
			c-0.591,0.853-1.131,1.744-1.616,2.667l2.505,1.317c-0.429,0.815-0.811,1.659-1.14,2.528L5.85,20.84
			c-0.369,0.971-0.68,1.967-0.928,2.978l2.744,0.674c-0.219,0.891-0.388,1.802-0.5,2.73l-2.802-0.335
			C4.238,27.918,4.182,28.96,4.179,30l-2.831,0.001c0-1.169,0.072-2.321,0.209-3.454l2.808,0.34
			c0.123-1.033,0.312-2.058,0.558-3.069L2.18,23.144c0.277-1.13,0.623-2.232,1.031-3.305L5.85,20.84
			c0.369-0.973,0.797-1.921,1.28-2.842l-2.494-1.313c0.54-1.024,1.141-2.012,1.796-2.959l2.314,1.604
			c0.593-0.857,1.236-1.677,1.925-2.456l-2.104-1.868c0.765-0.862,1.58-1.678,2.442-2.442l1.865,2.106
			c0.782-0.69,1.602-1.336,2.454-1.928L13.73,6.428c0.946-0.655,1.933-1.254,2.956-1.793l1.312,2.493
			c0.922-0.483,1.872-0.912,2.845-1.28L19.84,3.209c1.073-0.408,2.178-0.753,3.307-1.031l0.673,2.742
			c1.012-0.249,2.036-0.437,3.068-0.557L26.55,1.555c1.132-0.137,2.283-0.208,3.45-0.208v2.828c1.041,0,2.082,0.063,3.115,0.188
			l0.338-2.808c1.157,0.14,2.293,0.349,3.403,0.623L36.182,4.92c1.01,0.249,2.008,0.56,2.978,0.927l1.002-2.638
			c1.085,0.413,2.138,0.89,3.157,1.426l-1.314,2.492c0.92,0.485,1.812,1.026,2.667,1.616l1.602-2.314
			c0.949,0.658,1.857,1.371,2.719,2.135l-1.868,2.107c0.779,0.688,1.517,1.425,2.208,2.204l2.104-1.867
			c0.765,0.862,1.479,1.77,2.136,2.718l-2.314,1.604c0.591,0.853,1.131,1.744,1.614,2.667l2.494-1.313
			c0.537,1.016,1.012,2.07,1.425,3.154l-2.637,1c0.368,0.971,0.679,1.967,0.927,2.978l2.742-0.674
			c0.273,1.11,0.482,2.246,0.621,3.403l-2.807,0.34c0.127,1.031,0.187,2.073,0.188,3.113L53.004,30.001z"/>
	</g>
</g>
</svg>
