<?xml version="1.0" encoding="utf-8"?>
<!-- Generator: Adobe Illustrator 16.2.0, SVG Export Plug-In . SVG Version: 6.00 Build 0)  -->
<!DOCTYPE svg PUBLIC "-//W3C//DTD SVG 1.1//EN" "http://www.w3.org/Graphics/SVG/1.1/DTD/svg11.dtd">
<svg version="1.1" id="レイヤー_1" xmlns="http://www.w3.org/2000/svg" xmlns:xlink="http://www.w3.org/1999/xlink" x="0px"
	 y="0px" width="60px" height="60px" viewBox="0 0 60 60" enable-background="new 0 0 60 60" xml:space="preserve">
<g>
	<g>
		<path fill="#003366" d="M30,0C13.455,0,0,13.456,0,30c0,16.541,13.455,30,30,30c16.542,0,30-13.459,30-30C60,13.456,46.542,0,30,0
			z M30,58.653C14.199,58.653,1.348,45.799,1.348,30v-0.001h2.828c0.001-1.04,0.061-2.081,0.188-3.111l-2.808-0.34
			c0.141-1.157,0.349-2.294,0.623-3.404l2.74,0.674c0.249-1.011,0.559-2.006,0.928-2.978L3.21,19.839
			c0.413-1.084,0.89-2.137,1.426-3.154l2.493,1.313c0.483-0.923,1.023-1.813,1.615-2.667L6.43,13.728
			c0.658-0.95,1.37-1.857,2.136-2.719l2.104,1.866c0.69-0.778,1.428-1.514,2.207-2.203l-1.868-2.107
			c0.862-0.764,1.77-1.478,2.719-2.135l1.602,2.313c0.855-0.589,1.747-1.13,2.667-1.614l-1.313-2.493
			c1.019-0.536,2.072-1.013,3.156-1.426l1.002,2.638c0.97-0.367,1.968-0.679,2.978-0.927l-0.675-2.742
			c1.11-0.274,2.246-0.483,3.403-0.623l0.338,2.808C27.919,4.238,28.961,4.176,30,4.176V1.347c1.167,0,2.319,0.072,3.45,0.209
			l-0.338,2.808c1.032,0.121,2.057,0.31,3.068,0.558l0.674-2.743c1.13,0.278,2.232,0.624,3.305,1.032l-1.001,2.638
			c0.973,0.368,1.922,0.797,2.846,1.281l1.31-2.494c1.023,0.539,2.01,1.139,2.957,1.793L44.67,8.743
			c0.855,0.593,1.673,1.237,2.455,1.929l1.866-2.106c0.861,0.764,1.677,1.58,2.442,2.442l-2.104,1.867
			c0.688,0.779,1.332,1.6,1.925,2.455l2.316-1.603c0.654,0.946,1.254,1.934,1.794,2.957l-2.494,1.313
			c0.481,0.922,0.912,1.87,1.28,2.843l2.639-1.001c0.408,1.072,0.754,2.175,1.031,3.305l-2.742,0.674
			c0.247,1.012,0.436,2.036,0.558,3.07l2.808-0.34c0.138,1.132,0.209,2.283,0.209,3.452C58.652,45.799,45.798,58.653,30,58.653z"/>
	</g>
	<path fill="#003366" d="M30,8.262c11.987,0,21.738,9.75,21.738,21.738c0,11.986-9.751,21.738-21.738,21.738
		C18.012,51.738,8.262,41.986,8.262,30C8.262,18.012,18.012,8.262,30,8.262 M30,6.987C17.311,6.987,6.986,17.311,6.986,30
		c0,12.69,10.324,23.013,23.014,23.013c12.69,0,23.014-10.322,23.014-23.013C53.014,17.311,42.69,6.987,30,6.987L30,6.987z"/>
	<polygon fill="#003366" points="7.697,37.845 6.279,36.817 6.971,35.208 6.389,33.1 2.29,33.662 2.871,35.771 4.729,35.516 
		4.168,37.397 5.615,38.728 3.887,39.461 4.469,41.57 8.278,39.952 	"/>
	<path fill="#003366" d="M16.95,49.825l-1.383-0.932l-0.458-0.306l-1.37-0.923l-2.391,3.304l1.827,1.229l1.754-2.423l0.996,0.67
		c0.334,0.226,0.252,0.891-0.26,0.956c-0.512,0.064-1.077-0.218-1.077-0.218l0.413,2.243l2.055,1.382l-0.344-1.867
		c0,0,1.265,0.127,1.743-0.533C19.148,51.45,17.864,50.439,16.95,49.825z"/>
	<polygon fill="#003366" points="19.816,55.77 21.707,56.438 22.975,52.935 21.083,52.268 	"/>
	<g>
		<path fill="#003366" d="M28.085,53.633c-1.807-0.143-3.365,0.687-3.478,1.85c-0.111,1.163,1.264,2.219,3.072,2.36
			c1.809,0.141,3.367-0.686,3.479-1.851C31.271,54.829,29.895,53.773,28.085,53.633z M27.822,56.357
			c-0.531-0.041-0.936-0.354-0.903-0.695c0.034-0.342,0.491-0.585,1.023-0.543c0.532,0.041,0.937,0.352,0.902,0.693
			C28.812,56.154,28.354,56.399,27.822,56.357z"/>
	</g>
	<polygon fill="#003366" points="11.1,44.452 10.774,44.024 9.799,42.742 5.653,44.018 6.954,45.729 10.271,44.707 8.255,47.439 
		9.555,49.15 12.075,45.735 	"/>
	<polygon fill="#003366" points="40.962,51.441 38.58,52.201 37.363,54.522 36.728,52.794 34.612,53.47 35.972,57.173 
		38.087,56.498 37.453,54.77 39.939,55.905 42.321,55.145 39.656,53.927 	"/>
	<polygon fill="#003366" points="44.749,48.734 44.313,49.058 43.004,50.029 44.456,53.963 46.202,52.669 45.04,49.521 
		47.948,51.373 49.693,50.078 46.057,47.765 	"/>
	<path fill="#003366" d="M52.809,40.844c-1.01-0.652-2.026,0.623-2.643,1.528l-0.934,1.373l-0.308,0.453l-0.923,1.357l3.483,2.253
		l1.23-1.811l-2.554-1.652l0.672-0.987c0.224-0.332,0.916-0.268,0.996,0.229c0.08,0.496-0.199,1.056-0.199,1.056l2.316-0.458
		l1.385-2.036l-1.93,0.38C53.402,42.529,53.506,41.293,52.809,40.844z"/>
	<polygon fill="#003366" points="54.975,32.571 53.932,32.337 53.457,34.405 52.984,36.472 52.508,38.539 53.55,38.775 
		54.025,36.708 56.891,37.355 57.365,35.287 54.5,34.64 	"/>
	<path fill="#003366" d="M53.004,30c0-0.94-0.059-1.867-0.169-2.778l2.802-0.335c-0.121-1.033-0.308-2.059-0.557-3.069l-2.745,0.675
		c-0.224-0.905-0.501-1.79-0.827-2.648l2.646-1.004c-0.369-0.973-0.797-1.921-1.282-2.843l-2.505,1.317
		c-0.434-0.82-0.914-1.613-1.44-2.373l2.331-1.611c-0.592-0.856-1.239-1.677-1.926-2.455l-2.121,1.881
		c-0.615-0.694-1.271-1.352-1.965-1.966l1.878-2.119c-0.777-0.69-1.597-1.337-2.452-1.929l-1.611,2.333
		c-0.76-0.526-1.552-1.008-2.373-1.44l1.317-2.508c-0.92-0.483-1.872-0.912-2.845-1.28l-1.002,2.646
		c-0.858-0.328-1.745-0.605-2.649-0.829l0.674-2.745c-1.009-0.248-2.035-0.437-3.066-0.557l-0.339,2.803
		C31.865,7.055,30.939,6.997,30,6.997V4.174c-1.038,0-2.079,0.063-3.112,0.188l0.337,2.803c-0.929,0.112-1.84,0.279-2.731,0.499
		l-0.674-2.745c-1.008,0.249-2.005,0.56-2.977,0.928l1.002,2.646c-0.869,0.331-1.713,0.713-2.53,1.143l-1.316-2.508
		c-0.919,0.485-1.811,1.026-2.669,1.615l1.612,2.333c-0.763,0.528-1.491,1.101-2.184,1.715l-1.883-2.119
		c-0.776,0.688-1.513,1.425-2.204,2.204l2.12,1.881c-0.614,0.692-1.188,1.422-1.716,2.186L8.746,15.33
		c-0.591,0.853-1.131,1.744-1.616,2.667l2.505,1.317c-0.429,0.815-0.811,1.659-1.14,2.528L5.85,20.84
		c-0.369,0.971-0.68,1.967-0.928,2.978l2.744,0.674c-0.219,0.892-0.388,1.803-0.5,2.73l-2.802-0.335
		c-0.126,1.031-0.183,2.072-0.186,3.112L1.348,30c0-1.169,0.072-2.32,0.209-3.453l2.808,0.34c0.123-1.033,0.312-2.059,0.558-3.069
		L2.18,23.144c0.277-1.131,0.623-2.232,1.031-3.305L5.85,20.84c0.369-0.973,0.797-1.921,1.28-2.843l-2.494-1.313
		c0.54-1.023,1.141-2.012,1.796-2.959l2.314,1.604c0.593-0.856,1.236-1.677,1.925-2.455l-2.104-1.868
		c0.765-0.862,1.58-1.679,2.442-2.442l1.865,2.106c0.782-0.69,1.602-1.337,2.454-1.929L13.73,6.427
		c0.946-0.654,1.933-1.254,2.956-1.793l1.312,2.493c0.922-0.483,1.872-0.912,2.845-1.28L19.84,3.208
		c1.073-0.407,2.178-0.753,3.307-1.031l0.673,2.742c1.012-0.248,2.036-0.437,3.068-0.557L26.55,1.555
		c1.132-0.137,2.283-0.208,3.45-0.208v2.827c1.041,0,2.082,0.063,3.115,0.188l0.338-2.808c1.157,0.14,2.293,0.349,3.403,0.622
		l-0.675,2.742c1.01,0.249,2.008,0.56,2.978,0.928l1.002-2.639c1.085,0.413,2.138,0.891,3.157,1.427l-1.314,2.492
		c0.92,0.485,1.812,1.026,2.667,1.615l1.602-2.314c0.949,0.658,1.857,1.371,2.719,2.136l-1.868,2.107
		c0.779,0.688,1.517,1.425,2.208,2.204l2.104-1.867c0.765,0.862,1.479,1.77,2.136,2.718l-2.314,1.604
		c0.591,0.853,1.131,1.744,1.614,2.667l2.494-1.313c0.537,1.017,1.012,2.07,1.425,3.154l-2.637,1.001
		c0.368,0.971,0.679,1.967,0.927,2.978l2.742-0.674c0.273,1.11,0.482,2.246,0.621,3.403l-2.807,0.34
		c0.127,1.031,0.187,2.072,0.188,3.112L53.004,30z"/>
</g>
<g>
	<path fill="#FFFFFF" d="M38.866,30.77c0-4.179,2.351-7.578,5.244-7.596c-0.095-0.533-0.191-1.066-0.327-1.581
		c-0.875-3.313-2.511-5.785-4.602-6.959c-1.277-0.802-2.849-1.198-4.696-1.198c-0.116,0-0.233,0.011-0.35,0.014
		c1.304,0.468,2.261,1.237,2.731,2.271c1.444,3.179-1.068,7.445-5.601,9.509c-1.57,0.715-3.224,1.094-4.772,1.094
		c-2.69,0-4.956-1.147-6.058-3.071c-0.474-0.823-0.7-1.708-0.685-2.614c-0.849,0.949-1.602,1.963-2.223,3.024
		c-4.211,7.208-2.274,15.979,4.409,19.967c2.057,1.218,4.411,1.86,6.797,1.86c5.111,0,10.033-2.89,12.843-7.542
		c0.076-0.123,0.134-0.262,0.205-0.389C40.057,36.311,38.866,33.74,38.866,30.77z M27.494,44.366c-4.506,0-8.174-3.503-8.174-7.809
		c0-4.308,3.668-7.81,8.174-7.81s8.174,3.502,8.174,7.81C35.668,40.863,32,44.366,27.494,44.366z"/>
	<path fill="#00C617" d="M21.274,22.771c0.944,1.643,2.848,2.585,5.22,2.585c1.412,0,2.925-0.349,4.372-1.007
		c4.046-1.844,6.343-5.533,5.118-8.226c-0.633-1.394-2.555-2.225-5.139-2.225c-0.012,0-0.023,0.002-0.038,0.003
		c-3.535,0.86-7.095,2.866-9.884,5.53C20.564,20.584,20.685,21.737,21.274,22.771z"/>
	<path fill="#00C617" d="M44.259,24.149c-0.043-0.002-0.085-0.01-0.125-0.01c-2.372,0-4.299,2.975-4.299,6.63
		c0,2.602,0.979,4.852,2.399,5.937C44.073,33.013,44.807,28.42,44.259,24.149z"/>
	<path fill="#000D49" d="M45.793,24.655c-0.02-0.197-0.046-0.393-0.067-0.588c-0.025-0.19-0.046-0.382-0.075-0.57
		c-0.114-0.773-0.269-1.533-0.465-2.274c-0.976-3.698-2.855-6.489-5.262-7.838c-1.484-0.932-3.313-1.403-5.438-1.403
		c-2.048,0-4.197,0.439-6.299,1.222c-1.29,0.479-2.564,1.092-3.787,1.813c-0.474,0.254-0.906,0.528-1.301,0.819
		c-0.854,0.578-1.673,1.21-2.445,1.886c-1.749,1.533-3.261,3.297-4.378,5.208c-4.619,7.905-2.458,17.546,4.923,21.949
		c2.283,1.352,4.89,2.064,7.537,2.064c5.619,0,11.017-3.158,14.087-8.243c0.097-0.157,0.182-0.321,0.271-0.482
		c0.085-0.146,0.172-0.29,0.248-0.439c0.078-0.146,0.148-0.297,0.221-0.444C45.415,33.595,46.209,28.992,45.793,24.655z
		 M41.578,37.947c-2.81,4.652-7.731,7.542-12.843,7.542c-2.386,0-4.74-0.643-6.797-1.86c-6.684-3.988-8.62-12.759-4.409-19.967
		c0.621-1.062,1.374-2.075,2.223-3.024c-0.016,0.906,0.211,1.791,0.685,2.614c1.102,1.924,3.367,3.071,6.058,3.071
		c1.549,0,3.202-0.379,4.772-1.094c4.532-2.063,7.045-6.33,5.601-9.509c-0.471-1.034-1.428-1.804-2.731-2.271
		c0.116-0.003,0.233-0.014,0.35-0.014c1.848,0,3.419,0.396,4.696,1.198c2.091,1.174,3.727,3.646,4.602,6.959
		c0.136,0.515,0.232,1.048,0.327,1.581c-2.894,0.018-5.244,3.417-5.244,7.596c0,2.971,1.19,5.541,2.917,6.789
		C41.712,37.686,41.654,37.824,41.578,37.947z M30.808,13.901c0.015-0.001,0.026-0.003,0.038-0.003c2.584,0,4.506,0.831,5.139,2.225
		c1.225,2.692-1.072,6.382-5.118,8.226c-1.447,0.658-2.96,1.007-4.372,1.007c-2.372,0-4.275-0.942-5.22-2.585
		c-0.59-1.033-0.71-2.187-0.351-3.339C23.713,16.768,27.272,14.762,30.808,13.901z M39.835,30.77c0-3.655,1.927-6.63,4.299-6.63
		c0.04,0,0.082,0.008,0.125,0.01c0.548,4.271-0.186,8.863-2.024,12.557C40.814,35.621,39.835,33.371,39.835,30.77z"/>
	<path fill="#00C617" d="M27.494,29.716c-3.974,0-7.204,3.068-7.204,6.842c0,3.771,3.23,6.84,7.204,6.84
		c3.973,0,7.205-3.068,7.205-6.84C34.699,32.784,31.467,29.716,27.494,29.716z"/>
	<path fill="#000D49" d="M27.494,28.748c-4.506,0-8.174,3.502-8.174,7.81c0,4.306,3.668,7.809,8.174,7.809s8.174-3.503,8.174-7.809
		C35.668,32.25,32,28.748,27.494,28.748z M27.494,43.397c-3.974,0-7.204-3.068-7.204-6.84c0-3.773,3.23-6.842,7.204-6.842
		c3.973,0,7.205,3.068,7.205,6.842C34.699,40.329,31.467,43.397,27.494,43.397z"/>
</g>
<g>
	<g>
		<polygon fill="#003366" points="49.658,27.69 48.895,26.137 48.129,27.69 46.419,27.938 47.654,29.145 47.364,30.85 
			48.895,30.046 50.425,30.85 50.133,29.145 51.369,27.938 		"/>
		<path fill="#003366" d="M47.592,36.199c0.091-0.321,0.172-0.63,0.24-0.923c0.248-0.306,0.658-0.92,0.764-1.739
			c0.153-1.192-0.466-1.874-0.466-1.874s-0.763,0.446-0.917,1.641c-0.104,0.813,0.133,1.537,0.294,1.914
			c-0.16,0.679-0.38,1.435-0.684,2.236c0.021-0.32,0.01-0.692-0.093-1.078c-0.291-1.113-1.068-1.461-1.068-1.461
			s-0.502,0.701-0.209,1.813c0.218,0.823,0.742,1.388,0.998,1.624c-0.259,0.583-0.561,1.18-0.916,1.781
			c0.061-0.398,0.082-0.963-0.102-1.555c-0.346-1.095-1.138-1.4-1.138-1.4s-0.465,0.73-0.119,1.824
			c0.259,0.822,0.821,1.361,1.085,1.58c-0.381,0.602-0.815,1.206-1.313,1.803c0.08-0.395,0.146-1.05-0.071-1.737
			c-0.345-1.093-1.138-1.399-1.138-1.399s-0.462,0.731-0.118,1.824c0.264,0.833,0.834,1.373,1.094,1.586
			c-0.232,0.266-0.472,0.531-0.729,0.793l0.229,0.259c0.561-0.569,1.055-1.15,1.497-1.737c0.299,0.178,1.028,0.541,1.887,0.459
			c1.125-0.109,1.578-0.903,1.578-0.903s-0.611-0.689-1.736-0.58c-0.556,0.054-1.021,0.282-1.348,0.499
			c0.376-0.539,0.708-1.078,0.999-1.61c0.315,0.089,1.12,0.255,1.943-0.07c1.052-0.417,1.296-1.313,1.296-1.313
			s-0.755-0.502-1.81-0.083c-0.439,0.173-0.786,0.45-1.04,0.714c0.272-0.563,0.504-1.112,0.7-1.643
			c0.337-0.009,1.131-0.093,1.819-0.635c0.901-0.713,0.9-1.651,0.9-1.651s-0.849-0.266-1.748,0.446
			C47.927,35.784,47.74,35.99,47.592,36.199z"/>
		<g>
			<polygon fill="#003366" points="42.595,44.785 41.458,44.567 40.991,43.509 40.435,44.522 39.281,44.639 40.074,45.482 
				39.828,46.613 40.876,46.121 41.875,46.704 41.73,45.557 			"/>
			<polygon fill="#003366" points="39.171,47.14 37.779,46.708 37.346,45.317 36.507,46.506 35.049,46.488 35.921,47.655 
				35.454,49.035 36.833,48.566 38,49.437 37.981,47.981 			"/>
			<polygon fill="#003366" points="34.598,48.837 33.609,48.335 33.461,47.237 32.68,48.022 31.588,47.823 32.094,48.81 
				31.567,49.785 32.662,49.61 33.427,50.411 33.597,49.317 			"/>
		</g>
	</g>
	<g>
		<polygon fill="#003366" points="11.448,30.235 10.089,29.162 10.068,30.895 8.632,31.854 10.268,32.411 10.739,34.074 
			11.774,32.689 13.501,32.755 12.503,31.343 13.099,29.721 		"/>
		<path fill="#003366" d="M12.241,23.697c-0.104,0.316-0.198,0.621-0.279,0.911c-0.262,0.295-0.697,0.892-0.838,1.705
			c-0.204,1.186,0.385,1.893,0.385,1.893s0.782-0.413,0.987-1.6c0.14-0.809-0.066-1.542-0.212-1.925
			c0.19-0.672,0.442-1.417,0.78-2.205c-0.036,0.319-0.039,0.691,0.046,1.08c0.243,1.125,1.005,1.506,1.005,1.506
			s0.531-0.679,0.286-1.803c-0.182-0.832-0.682-1.419-0.927-1.666c0.283-0.57,0.61-1.154,0.991-1.74
			c-0.077,0.396-0.123,0.96,0.035,1.559c0.299,1.108,1.076,1.447,1.076,1.447s0.496-0.709,0.197-1.817
			c-0.224-0.832-0.762-1.396-1.017-1.624c0.407-0.586,0.867-1.171,1.39-1.746c-0.097,0.392-0.19,1.043-0.003,1.739
			c0.298,1.106,1.076,1.447,1.076,1.447s0.494-0.711,0.196-1.817c-0.228-0.844-0.773-1.408-1.024-1.632
			c0.243-0.256,0.494-0.511,0.762-0.761l-0.219-0.269c-0.584,0.545-1.103,1.104-1.569,1.672c-0.29-0.19-1.004-0.585-1.865-0.54
			c-1.13,0.062-1.616,0.835-1.616,0.835s0.582,0.715,1.71,0.654c0.559-0.03,1.032-0.238,1.368-0.44
			c-0.398,0.521-0.753,1.046-1.067,1.565c-0.312-0.103-1.108-0.303-1.945-0.013c-1.068,0.371-1.351,1.256-1.351,1.256
			s0.732,0.534,1.805,0.161c0.447-0.154,0.805-0.417,1.07-0.669c-0.297,0.55-0.551,1.09-0.77,1.611
			c-0.338-0.006-1.136,0.044-1.847,0.557c-0.931,0.673-0.971,1.61-0.971,1.61s0.837,0.302,1.766-0.371
			C11.89,24.098,12.084,23.899,12.241,23.697z"/>
		<g>
			<polygon fill="#003366" points="28.077,9.875 27.516,10.887 28.03,11.923 26.896,11.701 26.066,12.513 25.927,11.362 
				24.901,10.826 25.951,10.338 26.144,9.197 26.932,10.044 			"/>
			<polygon fill="#003366" points="24.11,10.927 23.552,12.272 24.341,13.496 22.891,13.378 21.969,14.509 21.633,13.092 
				20.274,12.565 21.517,11.808 21.598,10.354 22.703,11.301 			"/>
			<polygon fill="#003366" points="19.843,13.417 19.595,14.498 20.343,15.315 19.238,15.411 18.691,16.377 18.259,15.356 
				17.172,15.135 18.008,14.407 17.883,13.307 18.832,13.877 			"/>
		</g>
	</g>
</g>
</svg>
