<?xml version="1.0" encoding="utf-8"?>
<!-- Generator: Adobe Illustrator 16.2.0, SVG Export Plug-In . SVG Version: 6.00 Build 0)  -->
<!DOCTYPE svg PUBLIC "-//W3C//DTD SVG 1.1//EN" "http://www.w3.org/Graphics/SVG/1.1/DTD/svg11.dtd">
<svg version="1.1" id="レイヤー_1" xmlns="http://www.w3.org/2000/svg" xmlns:xlink="http://www.w3.org/1999/xlink" x="0px"
	 y="0px" width="60px" height="60px" viewBox="0 0 60 60" enable-background="new 0 0 60 60" xml:space="preserve">
<g>
	<polygon fill="#003366" points="19.368,32.18 20.284,33.476 20.756,31.96 22.273,31.487 20.976,30.572 20.997,28.983 
		19.724,29.934 18.219,29.423 18.729,30.928 17.78,32.2 	"/>
	<polygon fill="#003366" points="36.033,45.922 34.924,46.749 33.614,46.303 34.06,47.615 33.231,48.726 34.613,48.706 
		35.411,49.836 35.823,48.513 37.146,48.103 36.017,47.305 	"/>
	<path fill="#003366" d="M31.944,47.419l-0.031,0.002c-0.574,0.029-1.135,0.035-1.682,0.023c0.023-0.341,0.023-1.174-0.439-1.945
		c-0.599-1-1.498-1.105-1.498-1.105s-0.333,0.843,0.265,1.843c0.371,0.619,0.917,0.995,1.279,1.192
		c-0.828-0.033-1.621-0.109-2.378-0.222c0.053-0.339,0.109-1.089-0.239-1.826c-0.471-0.992-1.305-1.173-1.305-1.173
		s-0.39,0.76,0.08,1.753c0.268,0.565,0.69,0.946,1.007,1.175c-0.771-0.131-1.503-0.298-2.193-0.49
		c0.083-0.301,0.209-0.957-0.02-1.646c-0.312-0.938-1.039-1.189-1.039-1.189s-0.43,0.637-0.117,1.574
		c0.173,0.521,0.498,0.901,0.754,1.141c-0.646-0.194-1.254-0.409-1.824-0.638c0.084-0.298,0.215-0.96-0.017-1.656
		c-0.312-0.938-1.037-1.188-1.037-1.188s-0.431,0.636-0.118,1.573c0.154,0.464,0.431,0.82,0.671,1.063
		c-0.553-0.238-1.064-0.486-1.535-0.734c0.067-0.303,0.162-0.969-0.104-1.649c-0.36-0.922-1.098-1.133-1.098-1.133
		s-0.397,0.657-0.036,1.577c0.128,0.325,0.314,0.589,0.502,0.798c-0.67-0.39-1.235-0.769-1.692-1.1
		c-0.073-0.341-0.267-0.972-0.778-1.484c-0.735-0.737-1.536-0.633-1.536-0.633s-0.106,0.802,0.628,1.538
		c0.492,0.493,1.096,0.694,1.443,0.774c0.231,0.17,0.492,0.353,0.78,0.543c-0.243-0.078-0.517-0.136-0.818-0.137
		c-1.041-0.004-1.535,0.636-1.535,0.636s0.489,0.643,1.529,0.646c0.859,0.004,1.527-0.428,1.734-0.579
		c0.44,0.26,0.925,0.523,1.455,0.782c-0.345-0.059-0.79-0.08-1.259,0.052c-1.002,0.28-1.303,1.03-1.303,1.03
		s0.647,0.484,1.649,0.203c0.803-0.225,1.318-0.793,1.494-1.012c0.516,0.232,1.068,0.458,1.656,0.668
		c-0.355-0.021-0.82,0.008-1.288,0.204c-0.959,0.401-1.166,1.182-1.166,1.182s0.701,0.401,1.661,0
		c0.774-0.323,1.219-0.956,1.362-1.19c0.528,0.172,1.085,0.329,1.666,0.469c-0.39,0.041-0.901,0.158-1.382,0.467
		c-0.949,0.61-1.024,1.484-1.024,1.484s0.826,0.297,1.775-0.313c0.74-0.474,1.099-1.201,1.223-1.504
		c0.619,0.131,1.264,0.242,1.936,0.323c-0.425,0.081-1.002,0.263-1.518,0.675c-0.957,0.768-0.938,1.72-0.938,1.72
		s0.926,0.228,1.883-0.54c0.766-0.612,1.066-1.471,1.156-1.791c0.629,0.06,1.279,0.093,1.95,0.1
		c-0.439,0.114-0.993,0.334-1.484,0.756c-1.008,0.868-0.951,1.9-0.951,1.9s1.012,0.211,2.021-0.655
		c0.822-0.706,1.112-1.672,1.192-2.007c0.204-0.006,0.408-0.01,0.616-0.021l0.031-0.002c0.049-0.002,0.088-0.026,0.114-0.062
		c0.021-0.027,0.031-0.062,0.029-0.098C32.101,47.479,32.028,47.415,31.944,47.419z"/>
	<path fill="#00A0CD" d="M32.604,35.407c0.035,0.207,0.071,0.439,0.144,0.688c0.068,0.248,0.142,0.521,0.258,0.793
		c0.11,0.275,0.23,0.565,0.388,0.851s0.332,0.57,0.521,0.854c0.104,0.135,0.202,0.275,0.313,0.41l0.349,0.416
		c0.114,0.119,0.219,0.238,0.35,0.354c0.14,0.119,0.283,0.246,0.426,0.354c0.141,0.102,0.275,0.213,0.422,0.303
		c0.145,0.086,0.287,0.178,0.43,0.25c0.288,0.158,0.573,0.293,0.853,0.396c0.275,0.107,0.543,0.193,0.793,0.256
		c0.992,0.267,1.689,0.219,1.689,0.219l0.012-0.001c0.014,0,0.026-0.011,0.029-0.026c0.006-0.018-0.006-0.034-0.023-0.037
		c0,0-0.64-0.154-1.545-0.541c-0.45-0.195-0.966-0.449-1.483-0.778c-0.261-0.164-0.517-0.349-0.767-0.549
		c-0.127-0.102-0.241-0.212-0.365-0.318l-0.345-0.347c-0.214-0.24-0.432-0.49-0.625-0.746c-0.195-0.256-0.379-0.518-0.541-0.775
		c-0.327-0.519-0.587-1.03-0.776-1.482c-0.382-0.908-0.483-1.561-0.483-1.561c-0.003-0.014-0.014-0.027-0.029-0.028
		c-0.018-0.002-0.033,0.012-0.036,0.03l-0.003,0.009c0,0-0.02,0.172-0.008,0.47C32.562,35.019,32.566,35.201,32.604,35.407z"/>
	<polygon fill="#003366" points="47.947,31.563 46.349,32.759 44.457,32.116 45.102,34.007 43.906,35.604 45.902,35.581 
		47.054,37.209 47.646,35.304 49.55,34.712 47.923,33.56 	"/>
	<path fill="#003366" d="M34.555,13.456l0.031,0.012c0.574,0.234,1.124,0.483,1.651,0.745c-0.178,0.318-0.56,1.13-0.46,2.1
		c0.128,1.248,0.958,1.76,0.958,1.76s0.708-0.669,0.582-1.917c-0.079-0.775-0.441-1.392-0.705-1.749
		c0.793,0.41,1.532,0.847,2.221,1.302c-0.206,0.306-0.604,1.012-0.601,1.891c0.006,1.184,0.737,1.74,0.737,1.74
		s0.727-0.563,0.722-1.746c-0.004-0.675-0.241-1.239-0.446-1.607c0.692,0.48,1.33,0.977,1.917,1.48
		c-0.219,0.255-0.642,0.838-0.732,1.614c-0.124,1.058,0.47,1.635,0.47,1.635s0.71-0.425,0.833-1.482
		c0.068-0.589-0.075-1.108-0.216-1.458c0.542,0.484,1.037,0.973,1.489,1.456c-0.218,0.252-0.648,0.839-0.74,1.622
		c-0.123,1.057,0.47,1.633,0.47,1.633s0.711-0.424,0.833-1.481c0.062-0.524-0.045-0.998-0.169-1.342
		c0.431,0.484,0.816,0.958,1.162,1.416c-0.204,0.265-0.602,0.872-0.651,1.658c-0.068,1.063,0.554,1.606,0.554,1.606
		s0.688-0.46,0.756-1.523c0.023-0.374-0.038-0.716-0.125-1.006c0.476,0.685,0.854,1.313,1.147,1.844
		c-0.083,0.366-0.182,1.07,0.084,1.804c0.379,1.054,1.208,1.318,1.208,1.318s0.471-0.733,0.09-1.787
		c-0.255-0.707-0.752-1.177-1.055-1.415c-0.148-0.272-0.319-0.569-0.515-0.886c0.202,0.188,0.444,0.369,0.737,0.508
		c1.014,0.48,1.788,0.082,1.788,0.082s-0.185-0.85-1.196-1.33c-0.831-0.392-1.679-0.281-1.957-0.227
		c-0.313-0.454-0.664-0.933-1.063-1.427c0.311,0.215,0.734,0.438,1.252,0.525c1.104,0.184,1.741-0.412,1.741-0.412
		s-0.411-0.768-1.517-0.952c-0.886-0.146-1.648,0.174-1.919,0.307c-0.396-0.463-0.832-0.934-1.31-1.407
		c0.337,0.182,0.803,0.366,1.348,0.388c1.119,0.046,1.678-0.621,1.678-0.621s-0.501-0.712-1.62-0.757
		c-0.902-0.038-1.624,0.376-1.872,0.539c-0.438-0.41-0.909-0.817-1.412-1.219c0.398,0.138,0.951,0.258,1.562,0.177
		c1.204-0.162,1.676-0.979,1.676-0.979s-0.67-0.668-1.874-0.507c-0.942,0.126-1.623,0.673-1.879,0.909
		c-0.544-0.411-1.122-0.813-1.742-1.2c0.452,0.115,1.099,0.202,1.79,0.034c1.284-0.31,1.699-1.249,1.699-1.249
		s-0.798-0.644-2.081-0.333c-1.036,0.25-1.719,0.955-1.946,1.22c-0.585-0.345-1.206-0.674-1.857-0.986
		c0.481,0.088,1.121,0.126,1.793-0.061c1.381-0.386,1.796-1.419,1.796-1.419s-0.891-0.667-2.271-0.283
		c-1.123,0.314-1.847,1.124-2.078,1.415c-0.202-0.088-0.403-0.177-0.61-0.262l-0.031-0.013c-0.048-0.019-0.099-0.015-0.141,0.008
		c-0.032,0.017-0.059,0.045-0.073,0.082C34.432,13.326,34.472,13.421,34.555,13.456z"/>
	<path fill="#003366" d="M12.526,29.265c-0.067,0.248-0.136,0.495-0.198,0.75l-0.009,0.037c-0.015,0.061-0.001,0.117,0.032,0.162
		c0.026,0.034,0.063,0.059,0.108,0.07c0.103,0.025,0.206-0.038,0.23-0.142l0.01-0.037c0.172-0.704,0.366-1.383,0.577-2.037
		c0.402,0.151,1.406,0.451,2.504,0.17c1.422-0.362,1.871-1.409,1.871-1.409s-0.896-0.706-2.316-0.344
		c-0.88,0.225-1.53,0.747-1.898,1.112c0.338-0.986,0.715-1.915,1.123-2.787c0.391,0.186,1.274,0.523,2.288,0.369
		c1.366-0.21,1.884-1.151,1.884-1.151s-0.774-0.744-2.142-0.535c-0.778,0.12-1.39,0.492-1.778,0.792
		c0.436-0.883,0.899-1.705,1.38-2.469c0.333,0.209,1.078,0.598,1.992,0.568c1.243-0.037,1.808-0.823,1.808-0.823
		s-0.613-0.747-1.855-0.708c-0.691,0.021-1.266,0.275-1.646,0.498c0.466-0.709,0.944-1.365,1.425-1.969
		c0.33,0.208,1.082,0.604,2.003,0.574c1.243-0.038,1.807-0.824,1.807-0.824s-0.612-0.748-1.854-0.708
		c-0.616,0.02-1.145,0.225-1.522,0.426c0.485-0.58,0.968-1.107,1.438-1.586c0.341,0.191,1.111,0.545,2.026,0.469
		c1.24-0.104,1.761-0.918,1.761-0.918s-0.648-0.714-1.889-0.61c-0.438,0.037-0.822,0.167-1.142,0.318
		c0.709-0.667,1.368-1.212,1.932-1.642c0.439,0.034,1.274,0.022,2.072-0.408c1.153-0.62,1.315-1.624,1.315-1.624
		s-0.928-0.417-2.081,0.205c-0.769,0.414-1.23,1.07-1.454,1.462c-0.285,0.215-0.595,0.461-0.923,0.736
		c0.177-0.262,0.341-0.572,0.448-0.93c0.381-1.253-0.213-2.081-0.213-2.081s-0.951,0.358-1.331,1.612
		c-0.31,1.025-0.037,1.986,0.073,2.301c-0.471,0.438-0.962,0.926-1.465,1.471c0.194-0.394,0.381-0.922,0.391-1.534
		c0.022-1.309-0.774-1.941-0.774-1.941s-0.817,0.605-0.84,1.915c-0.017,1.049,0.482,1.876,0.684,2.166
		c-0.466,0.537-0.936,1.119-1.399,1.751c0.152-0.42,0.282-0.99,0.216-1.621c-0.139-1.302-1.006-1.832-1.006-1.832
		s-0.737,0.701-0.6,2.002c0.112,1.05,0.715,1.813,0.946,2.072c-0.397,0.575-0.788,1.19-1.166,1.84
		c0.091-0.484,0.134-1.143-0.064-1.833c-0.394-1.365-1.421-1.77-1.421-1.77s-0.656,0.888-0.263,2.253
		c0.306,1.062,1.054,1.756,1.374,2.015c-0.382,0.7-0.747,1.438-1.087,2.22c0.055-0.542,0.044-1.305-0.269-2.076
		c-0.579-1.429-1.735-1.748-1.735-1.748s-0.606,1.032-0.028,2.463c0.465,1.144,1.392,1.816,1.745,2.041
		c-0.298,0.736-0.571,1.51-0.82,2.318c0.019-0.573-0.047-1.32-0.38-2.064c-0.683-1.529-1.947-1.832-1.947-1.832
		s-0.619,1.145,0.063,2.674C11.091,28.35,12.149,29.048,12.526,29.265z"/>
	<path fill="#000D49" d="M26.769,38.772c0.359-0.357,0.829-0.965,1.197-1.468l0.35,0.774c0.445,0.864,2.128,3.824,5.074,5.549
		c1.674,0.98,3.421,1.478,5.202,1.478c0.54,0,1.083-0.046,1.608-0.142c1.949-0.348,3.162-1.422,3.744-1.936l0.19-0.171
		c0.226-0.204,0.417-0.378,0.496-0.378c0.032,0,0.114,0.011,0.289,0.086c0.181,0.076,0.372,0.116,0.569,0.116
		c0.794,0,1.521-0.655,1.521-1.375c0-0.614-0.522-1.53-1.297-1.919c-0.831-0.416-1.831-0.377-2.878,0.121
		c-0.356,0.169-0.882,0.268-1.441,0.268c-0.532,0-1.055-0.087-1.468-0.242c-1.664-0.633-2.607-2.049-3.103-3.125
		c-0.155-0.337-0.302-0.711-0.422-1.046c0.45,0.056,1.051,0.069,1.644-0.009c2.082-0.268,3.855-1.758,4.748-3.987
		c0.437-1.093,0.519-1.946,0.577-2.568c0.03-0.305,0.057-0.593,0.119-0.719c0.025-0.052,0.064-0.076,0.204-0.167
		c0.202-0.125,0.48-0.3,0.706-0.685c0.146-0.251,0.157-0.55,0.032-0.822c-0.238-0.506-0.921-0.831-1.33-0.9
		c-0.106-0.016-0.303-0.05-0.539-0.05c-0.865,0-1.601,0.429-2.121,1.24c-0.352,0.549-0.994,1.137-1.623,1.69
		c-1.1,0.974-2.017,1.227-2.693,1.338c-0.295,0.051-0.522,0.074-0.685,0.08c-0.098-0.335-0.225-0.912-0.256-1.693
		c-0.02-0.464-0.021-1.186-0.023-2.022c-0.002-1.721-0.005-3.861-0.173-5.176c-0.11-0.872-0.585-3.827-2.043-5.063
		c-0.221-0.188-0.421-0.328-0.596-0.451c-0.419-0.292-0.575-0.402-0.653-0.836c-0.075-0.412-0.018-0.93,0.052-1.527
		c0.065-0.578,0.141-1.233,0.129-2.007c-0.014-0.592-0.611-1.349-1.1-1.576c-0.32-0.152-0.863-0.175-1.159-0.175
		c-1.016,0-1.292,0.241-1.382,0.317c-0.565,0.487-0.813,1.113-0.694,1.762c0.03,0.172,0.097,0.39,0.178,0.669
		c0.146,0.488,0.346,1.157,0.332,1.556c-0.027,1.057-0.16,1.622-0.242,1.745c-0.045,0.067-0.185,0.211-0.321,0.348
		c-0.395,0.399-0.988,1.002-1.447,1.879c-0.614,1.171-0.704,2.208-0.866,4.092l-0.055,0.619c-0.094,1.042-0.153,2.22-0.209,3.258
		c-0.059,1.147-0.112,2.231-0.189,2.595c-0.191,0.905-0.196,2.058-0.136,2.551c0.081,0.693-0.087,1.391-0.486,2.017
		c-1.296,2.029-2.547,2.819-4.464,2.819c-0.453,0-0.939-0.04-1.492-0.132c-2.056-0.338-3.974-1.466-4.896-2.009l-0.044-0.025
		c-0.416-0.246-0.891-0.374-1.375-0.374c-0.762,0-1.467,0.316-1.751,0.79c-0.128,0.217-0.41,0.775-0.22,1.292
		c0.105,0.282,0.332,0.495,0.638,0.596c0.212,0.07,0.398,0.093,0.546,0.109c0.209,0.026,0.295,0.034,0.427,0.147
		c0.18,0.149,0.396,0.377,0.676,0.664c0.498,0.52,1.182,1.231,2.193,2.078c1.982,1.663,4.119,2.482,6.723,2.582
		C23.437,41.311,24.801,40.74,26.769,38.772z"/>
	<polygon fill="#00A0CD" points="43.223,26.805 43.228,26.808 43.216,26.815 	"/>
	<path fill="#FFF52A" d="M12.993,35.745c-0.2-0.21-0.372-0.387-0.531-0.539c0.306-0.321,0.662-0.49,0.666-0.492
		c0.017-0.008,0.028-0.021,0.043-0.031c1.092,0.625,2.854,1.537,4.781,1.853c0.613,0.1,1.167,0.148,1.684,0.148
		c2.319,0,3.951-1.007,5.457-3.364c0.548-0.861,0.779-1.824,0.665-2.79c-0.049-0.421-0.035-1.437,0.119-2.17
		c0.097-0.454,0.149-1.479,0.215-2.777c0.052-1.028,0.113-2.195,0.205-3.214l0.053-0.624c0.157-1.788,0.233-2.684,0.738-3.646
		c0.374-0.719,0.876-1.226,1.24-1.596c0.198-0.201,0.356-0.36,0.463-0.521c0.098-0.146,0.394-0.589,0.441-2.369
		c0.015-0.526-0.16-1.173-0.325-1.732c0.176,0.031,0.366,0.053,0.571,0.053c0.089,0,0.183-0.003,0.277-0.012
		c0.378-0.035,0.683-0.109,0.923-0.189c-0.021,0.421-0.063,0.812-0.104,1.169c-0.077,0.69-0.146,1.285-0.038,1.873
		c0.167,0.909,0.66,1.256,1.137,1.59c0.162,0.112,0.329,0.23,0.508,0.381c0.743,0.632,1.388,2.326,1.639,4.315
		c0.157,1.243,0.159,3.343,0.161,5.03c0.003,0.848,0.004,1.579,0.023,2.068c0.045,1.063,0.241,1.804,0.367,2.183
		c0.011,0.033,0.015,0.067,0.026,0.101c0.014,0.041,0.036,0.078,0.052,0.117s0.026,0.064,0.029,0.07l0.127,0.287l0.039,0.006
		c0.1,0.147,0.206,0.289,0.343,0.4c0.186,0.15,0.368,0.273,0.568,0.346c0.201,0.072,0.383,0.106,0.521,0.116
		c0.134,0.016,0.225,0.005,0.225,0.005l0.046-0.005c0.004,0,0.013-0.003,0.02-0.007c0.017-0.013,0.023-0.037,0.008-0.059
		c0,0-0.127-0.176-0.325-0.431c-0.073-0.095-0.147-0.212-0.226-0.333c0.158-0.018,0.32-0.039,0.496-0.068
		c0.831-0.137,1.955-0.447,3.28-1.617c0.599-0.526,1.21-1.085,1.645-1.665c0.102,0.001,0.374,0.016,0.744,0.116
		c0.132,0.035,0.241,0.101,0.326,0.167c-0.063,0.241-0.09,0.505-0.119,0.798c-0.055,0.582-0.123,1.308-0.498,2.242
		c-1.084,2.706-3.185,3.176-3.803,3.256c-0.24,0.031-0.48,0.048-0.71,0.048c-0.904,0-1.42-0.241-1.42-0.241l-1.213-0.607
		l0.383,1.303c0.016,0.051,0.367,1.242,0.816,2.215c0.591,1.277,1.72,2.963,3.756,3.735c0.544,0.205,1.216,0.319,1.887,0.319
		c0.726,0,1.402-0.131,1.914-0.369c0.083,0.265,0.228,0.662,0.449,1.041c-0.135,0.104-0.269,0.223-0.413,0.352l-0.184,0.164
		c-0.801,0.711-1.74,1.405-3.168,1.659c-0.459,0.081-0.929,0.123-1.4,0.123c-1.567,0-3.116-0.443-4.605-1.315
		c-2.123-1.244-3.779-3.435-4.61-5.044l-1.189-2.647l-0.595,0.871c-0.011,0.014-1.055,1.549-1.656,2.146
		c-1.742,1.742-2.814,2.186-4.83,2.105c-2.328-0.09-4.237-0.823-6.01-2.31C14.133,36.929,13.474,36.243,12.993,35.745z"/>
	<path fill="#79C14F" d="M30.792,17.082c-0.243,0.109-1.497,0.013-1.869-0.092c-0.371-0.104-0.595-0.488-0.595-0.488
		c0.198-0.201,0.356-0.36,0.463-0.521c0.098-0.146,0.394-0.589,0.441-2.369c0.015-0.526-0.16-1.173-0.325-1.732
		c0.176,0.031,0.366,0.053,0.571,0.053c0.089,0,0.183-0.003,0.277-0.012c0.378-0.035,0.683-0.109,0.923-0.189
		c-0.021,0.421-0.063,0.812-0.104,1.169c-0.077,0.69-0.146,1.285-0.038,1.873c0.167,0.909,0.66,1.256,1.137,1.59
		C31.673,16.365,31.157,16.966,30.792,17.082z"/>
	<path fill="#000D49" d="M30.629,27.299c0.522,0,0.653-0.937,0.671-1.723c0.015-0.683-0.104-1.172-0.338-1.413
		c-0.109-0.11-0.241-0.168-0.395-0.168c-0.225,0-0.75,0.16-0.795,1.642c-0.021,0.73,0.084,1.209,0.327,1.459
		C30.233,27.231,30.404,27.299,30.629,27.299z"/>
	<path fill="#FFFFFF" d="M30.426,24.355c0.208,0,0.321,0.257,0.312,0.701c-0.008,0.444-0.094,0.765-0.283,0.765
		c-0.188,0-0.387-0.103-0.369-0.737C30.104,24.451,30.313,24.355,30.426,24.355z"/>
	<path fill="#000D49" d="M27.462,27.031h0.028c0.343-0.024,0.562-0.643,0.562-1.58c0-0.828-0.062-1.678-0.542-1.705
		c-0.01-0.001-0.016-0.001-0.023-0.001c-0.314,0-0.689,0.297-0.689,1.707C26.797,26.876,27.263,27.031,27.462,27.031z"/>
	<path fill="#FFFFFF" d="M27.4,24.063c0.186,0.009,0.22,0.339,0.22,0.736c0,0.394-0.09,0.669-0.229,0.678
		c-0.138,0.009-0.284-0.155-0.284-0.678C27.106,24.273,27.227,24.053,27.4,24.063z"/>
	<path fill="#000D49" d="M26.771,31.078c0.022-0.001,0.211-0.021,0.419-0.2c0.02-0.02,0.04-0.037,0.058-0.053
		c0.196,0.242,0.571,0.607,1.155,0.791c0.168,0.056,0.343,0.082,0.526,0.082c0.539,0,1.017-0.225,1.231-0.344
		c0.055,0.046,0.126,0.104,0.205,0.166c0.179,0.139,0.313,0.165,0.396,0.165c0.017,0,0.062-0.005,0.076-0.011
		c0.067-0.02,0.119-0.074,0.132-0.143c0.01-0.07-0.021-0.139-0.074-0.182c-0.004,0-0.31-0.22-0.413-0.582
		c-0.066-0.239,0.013-0.637,0.05-0.768c0.02-0.08-0.015-0.165-0.085-0.207c-0.073-0.042-0.162-0.029-0.22,0.028
		c-0.023,0.024-0.224,0.229-0.297,0.501c-0.038,0.143-0.059,0.266-0.071,0.346c-0.158,0.1-0.602,0.347-1.063,0.295
		c-0.479-0.057-0.91-0.151-1.323-0.74c-0.063-0.079-0.155-0.43-0.196-0.708c-0.016-0.098-0.104-0.169-0.204-0.154
		c-0.096,0.013-0.167,0.099-0.16,0.196c0.018,0.213,0.035,0.599,0.009,0.73c-0.06,0.307-0.261,0.456-0.269,0.46
		c-0.066,0.048-0.093,0.132-0.066,0.21C26.616,31.034,26.691,31.085,26.771,31.078z"/>
	<g>
		<g>
			<path fill="#003366" d="M30,0C13.455,0,0,13.457,0,30.001C0,46.542,13.455,60,30,60c16.542,0,30-13.458,30-29.999
				C60,13.457,46.542,0,30,0z M30,58.653c-15.801,0-28.652-12.854-28.652-28.652v-0.002h2.828c0.001-1.039,0.061-2.081,0.188-3.111
				l-2.808-0.34c0.141-1.157,0.349-2.293,0.623-3.404l2.74,0.674c0.249-1.011,0.559-2.006,0.928-2.978l-2.638-1
				c0.413-1.084,0.89-2.137,1.426-3.154l2.493,1.313c0.483-0.923,1.023-1.813,1.615-2.667L6.43,13.728
				c0.658-0.95,1.37-1.857,2.136-2.719l2.104,1.867c0.69-0.778,1.428-1.514,2.207-2.204l-1.868-2.107
				c0.862-0.764,1.77-1.478,2.719-2.135l1.602,2.313c0.855-0.589,1.747-1.129,2.667-1.614l-1.313-2.493
				c1.019-0.536,2.072-1.013,3.156-1.426l1.002,2.638c0.97-0.367,1.968-0.679,2.978-0.926l-0.675-2.743
				c1.11-0.274,2.246-0.483,3.403-0.623l0.338,2.808C27.919,4.238,28.961,4.176,30,4.176V1.347c1.167,0,2.319,0.072,3.45,0.208
				l-0.338,2.808c1.032,0.121,2.057,0.31,3.068,0.558l0.674-2.744c1.13,0.278,2.232,0.624,3.305,1.032l-1.001,2.638
				c0.973,0.369,1.922,0.797,2.846,1.281l1.31-2.494c1.023,0.539,2.01,1.139,2.957,1.793L44.67,8.743
				c0.855,0.593,1.673,1.238,2.455,1.929l1.866-2.106c0.861,0.764,1.677,1.58,2.442,2.442l-2.104,1.868
				c0.688,0.779,1.332,1.6,1.925,2.455l2.316-1.603c0.654,0.946,1.254,1.934,1.794,2.958l-2.494,1.313
				c0.481,0.922,0.912,1.87,1.28,2.842l2.639-1.001c0.408,1.072,0.754,2.175,1.031,3.305l-2.742,0.674
				c0.247,1.011,0.436,2.036,0.558,3.07l2.808-0.34c0.138,1.132,0.209,2.283,0.209,3.453C58.652,45.799,45.798,58.653,30,58.653z"/>
		</g>
		<path fill="#003366" d="M30,8.262c11.987,0,21.738,9.75,21.738,21.739c0,11.985-9.751,21.738-21.738,21.738
			c-11.988,0-21.738-9.753-21.738-21.738C8.262,18.012,18.012,8.262,30,8.262 M30,6.987c-12.689,0-23.014,10.324-23.014,23.014
			C6.986,42.69,17.311,53.013,30,53.013c12.69,0,23.014-10.322,23.014-23.012C53.014,17.311,42.69,6.987,30,6.987L30,6.987z"/>
		<polygon fill="#003366" points="7.697,37.845 6.279,36.817 6.971,35.208 6.389,33.1 2.29,33.662 2.871,35.771 4.729,35.517 
			4.168,37.397 5.615,38.728 3.887,39.461 4.469,41.57 8.278,39.952 		"/>
		<path fill="#003366" d="M16.95,49.825l-1.383-0.932l-0.458-0.306l-1.37-0.923l-2.391,3.304l1.827,1.229l1.754-2.423l0.996,0.67
			c0.334,0.226,0.252,0.892-0.26,0.956s-1.077-0.217-1.077-0.217l0.413,2.242l2.055,1.383l-0.344-1.867c0,0,1.265,0.126,1.743-0.533
			C19.148,51.45,17.864,50.44,16.95,49.825z"/>
		<polygon fill="#003366" points="19.816,55.77 21.707,56.438 22.975,52.935 21.083,52.268 		"/>
		<g>
			<path fill="#003366" d="M28.085,53.633c-1.807-0.142-3.365,0.687-3.478,1.851c-0.111,1.162,1.264,2.218,3.072,2.359
				c1.809,0.141,3.367-0.686,3.479-1.85C31.271,54.829,29.895,53.773,28.085,53.633z M27.822,56.357
				c-0.531-0.04-0.936-0.353-0.903-0.695c0.034-0.342,0.491-0.585,1.023-0.543c0.532,0.041,0.937,0.352,0.902,0.694
				C28.812,56.154,28.354,56.399,27.822,56.357z"/>
		</g>
		<polygon fill="#003366" points="11.1,44.452 10.774,44.024 9.799,42.742 5.653,44.019 6.954,45.729 10.271,44.707 8.255,47.44 
			9.555,49.151 12.075,45.735 		"/>
		<polygon fill="#003366" points="40.962,51.441 38.58,52.202 37.363,54.522 36.728,52.794 34.612,53.47 35.972,57.173 
			38.087,56.498 37.453,54.77 39.939,55.905 42.321,55.146 39.656,53.927 		"/>
		<polygon fill="#003366" points="44.749,48.735 44.313,49.058 43.004,50.03 44.456,53.963 46.202,52.669 45.04,49.521 
			47.948,51.373 49.693,50.078 46.057,47.765 		"/>
		<path fill="#003366" d="M52.809,40.844c-1.01-0.652-2.026,0.624-2.643,1.528l-0.934,1.373l-0.308,0.453l-0.923,1.357l3.483,2.253
			l1.23-1.811l-2.554-1.652l0.672-0.987c0.224-0.332,0.916-0.268,0.996,0.229c0.08,0.496-0.199,1.056-0.199,1.056l2.316-0.458
			l1.385-2.036l-1.93,0.381C53.402,42.53,53.506,41.294,52.809,40.844z"/>
		<polygon fill="#003366" points="54.975,32.571 53.932,32.337 53.457,34.405 52.984,36.472 52.508,38.539 53.55,38.775 
			54.025,36.708 56.891,37.355 57.365,35.287 54.5,34.64 		"/>
		<path fill="#003366" d="M53.004,30.001c0-0.941-0.059-1.868-0.169-2.779l2.802-0.335c-0.121-1.033-0.308-2.058-0.557-3.069
			l-2.745,0.675c-0.224-0.905-0.501-1.79-0.827-2.649l2.646-1.004c-0.369-0.973-0.797-1.921-1.282-2.842l-2.505,1.317
			c-0.434-0.821-0.914-1.614-1.44-2.373l2.331-1.611c-0.592-0.857-1.239-1.677-1.926-2.456l-2.121,1.881
			c-0.615-0.694-1.271-1.352-1.965-1.966l1.878-2.119c-0.777-0.69-1.597-1.336-2.452-1.928l-1.611,2.333
			c-0.76-0.526-1.552-1.008-2.373-1.44l1.317-2.508c-0.92-0.483-1.872-0.912-2.845-1.28l-1.002,2.646
			c-0.858-0.328-1.745-0.605-2.649-0.829l0.674-2.745c-1.009-0.249-2.035-0.437-3.066-0.557l-0.339,2.802
			C31.865,7.055,30.939,6.997,30,6.997V4.174c-1.038,0-2.079,0.063-3.112,0.188l0.337,2.802c-0.929,0.112-1.84,0.28-2.731,0.5
			l-0.674-2.745c-1.008,0.249-2.005,0.56-2.977,0.927l1.002,2.646c-0.869,0.331-1.713,0.713-2.53,1.143l-1.316-2.508
			c-0.919,0.485-1.811,1.026-2.669,1.616l1.612,2.333c-0.763,0.528-1.491,1.101-2.184,1.715l-1.883-2.119
			c-0.776,0.688-1.513,1.425-2.204,2.204l2.12,1.881c-0.614,0.693-1.188,1.422-1.716,2.186l-2.329-1.611
			c-0.591,0.853-1.131,1.744-1.616,2.667l2.505,1.317c-0.429,0.815-0.811,1.659-1.14,2.528L5.85,20.84
			c-0.369,0.971-0.68,1.967-0.928,2.978l2.744,0.674c-0.219,0.891-0.388,1.802-0.5,2.73l-2.802-0.335
			c-0.126,1.031-0.183,2.073-0.186,3.112l-2.831,0.002c0-1.17,0.072-2.321,0.209-3.454l2.808,0.34
			c0.123-1.033,0.312-2.058,0.558-3.069L2.18,23.144c0.277-1.13,0.623-2.232,1.031-3.305L5.85,20.84
			c0.369-0.973,0.797-1.921,1.28-2.842l-2.494-1.313c0.54-1.024,1.141-2.012,1.796-2.959l2.314,1.604
			c0.593-0.857,1.236-1.677,1.925-2.456l-2.104-1.868c0.765-0.862,1.58-1.678,2.442-2.442l1.865,2.106
			c0.782-0.69,1.602-1.336,2.454-1.928L13.73,6.427c0.946-0.655,1.933-1.254,2.956-1.793l1.312,2.493
			c0.922-0.483,1.872-0.912,2.845-1.28L19.84,3.208c1.073-0.408,2.178-0.753,3.307-1.031l0.673,2.742
			c1.012-0.249,2.036-0.437,3.068-0.557L26.55,1.555c1.132-0.137,2.283-0.208,3.45-0.208v2.828c1.041,0,2.082,0.063,3.115,0.188
			l0.338-2.808c1.157,0.14,2.293,0.349,3.403,0.623l-0.675,2.742c1.01,0.249,2.008,0.56,2.978,0.927l1.002-2.638
			c1.085,0.413,2.138,0.89,3.157,1.426l-1.314,2.492c0.92,0.485,1.812,1.026,2.667,1.616l1.602-2.314
			c0.949,0.658,1.857,1.371,2.719,2.135l-1.868,2.107c0.779,0.688,1.517,1.425,2.208,2.204l2.104-1.867
			c0.765,0.862,1.479,1.77,2.136,2.718l-2.314,1.604c0.591,0.853,1.131,1.744,1.614,2.667l2.494-1.313
			c0.537,1.016,1.012,2.07,1.425,3.154l-2.637,1c0.368,0.971,0.679,1.967,0.927,2.978l2.742-0.674
			c0.273,1.11,0.482,2.246,0.621,3.403l-2.807,0.34c0.127,1.031,0.187,2.073,0.188,3.112L53.004,30.001z"/>
	</g>
</g>
</svg>
