<?xml version="1.0" encoding="utf-8"?>
<!-- Generator: Adobe Illustrator 16.2.0, SVG Export Plug-In . SVG Version: 6.00 Build 0)  -->
<!DOCTYPE svg PUBLIC "-//W3C//DTD SVG 1.1//EN" "http://www.w3.org/Graphics/SVG/1.1/DTD/svg11.dtd">
<svg version="1.1" id="レイヤー_1" xmlns="http://www.w3.org/2000/svg" xmlns:xlink="http://www.w3.org/1999/xlink" x="0px"
	 y="0px" width="60px" height="60px" viewBox="0 0 60 60" enable-background="new 0 0 60 60" xml:space="preserve">
<g>
	<path fill="#003366" d="M39.797,46.092c0.409,0.015,1.178-0.03,1.922-0.455c1.084-0.62,1.261-1.561,1.261-1.561
		s-0.848-0.354-1.934,0.266c-0.741,0.425-1.192,1.073-1.405,1.441c-0.662,0.295-1.428,0.584-2.282,0.833
		c0.281-0.182,0.58-0.425,0.836-0.75c0.74-0.938,0.543-1.801,0.543-1.801s-0.895,0.023-1.634,0.963
		c-0.549,0.696-0.688,1.483-0.725,1.845c-0.645,0.149-1.328,0.271-2.05,0.354c0.37-0.198,0.853-0.535,1.226-1.06
		c0.691-0.972,0.449-1.819,0.449-1.819s-0.895,0.072-1.588,1.043c-0.517,0.73-0.614,1.533-0.63,1.89
		c-0.736,0.062-1.51,0.079-2.316,0.04c0.375-0.181,0.96-0.538,1.394-1.146c0.692-0.972,0.45-1.819,0.45-1.819
		s-0.896,0.071-1.587,1.044c-0.526,0.738-0.616,1.55-0.631,1.898c-0.365-0.025-0.736-0.059-1.114-0.108l-0.067,0.354
		c0.82,0.108,1.613,0.153,2.374,0.153c0.041,0.358,0.196,1.192,0.801,1.853c0.797,0.864,1.738,0.744,1.738,0.744
		s0.188-0.939-0.604-1.805c-0.394-0.426-0.874-0.669-1.259-0.805c0.681-0.024,1.336-0.088,1.96-0.18
		c0.125,0.318,0.49,1.09,1.274,1.567c1.005,0.612,1.901,0.255,1.901,0.255s-0.057-0.941-1.063-1.554
		c-0.418-0.256-0.866-0.369-1.244-0.416c0.637-0.125,1.237-0.278,1.8-0.448c0.218,0.273,0.786,0.881,1.667,1.111
		c1.154,0.302,1.932-0.285,1.932-0.285s-0.312-0.871-1.464-1.171c-0.293-0.076-0.58-0.101-0.848-0.094
		C39.204,46.346,39.51,46.219,39.797,46.092z"/>
	<path fill="#003366" d="M20.202,46.088c-0.407,0.015-1.177-0.03-1.921-0.454c-1.084-0.621-1.262-1.562-1.262-1.562
		s0.849-0.354,1.934,0.266c0.742,0.425,1.194,1.073,1.405,1.442c0.663,0.294,1.429,0.583,2.283,0.833
		c-0.281-0.183-0.58-0.426-0.836-0.751c-0.74-0.938-0.543-1.801-0.543-1.801s0.895,0.023,1.633,0.963
		c0.551,0.696,0.689,1.483,0.727,1.845c0.644,0.15,1.328,0.272,2.05,0.354c-0.37-0.198-0.854-0.535-1.228-1.059
		c-0.69-0.973-0.448-1.82-0.448-1.82s0.895,0.072,1.588,1.043c0.517,0.729,0.615,1.533,0.631,1.89
		c0.736,0.062,1.509,0.079,2.314,0.04c-0.375-0.181-0.959-0.537-1.394-1.146c-0.691-0.973-0.45-1.82-0.45-1.82
		s0.896,0.07,1.588,1.044c0.525,0.738,0.616,1.55,0.631,1.898c0.365-0.024,0.737-0.058,1.114-0.107l0.067,0.354
		c-0.821,0.107-1.612,0.153-2.374,0.153c-0.04,0.357-0.196,1.191-0.801,1.852c-0.797,0.864-1.737,0.744-1.737,0.744
		s-0.189-0.938,0.604-1.804c0.393-0.427,0.874-0.67,1.258-0.806c-0.68-0.024-1.335-0.088-1.96-0.179
		c-0.123,0.317-0.49,1.09-1.273,1.566c-1.005,0.612-1.901,0.255-1.901,0.255s0.057-0.94,1.062-1.554
		c0.42-0.256,0.868-0.369,1.245-0.416c-0.637-0.125-1.237-0.277-1.8-0.448c-0.219,0.274-0.786,0.881-1.666,1.111
		c-1.156,0.302-1.933-0.284-1.933-0.284s0.311-0.871,1.464-1.172c0.293-0.076,0.581-0.1,0.847-0.094
		C20.795,46.342,20.49,46.215,20.202,46.088z"/>
</g>
<polygon fill="#003366" points="33.52,9.618 32.109,11.537 29.723,11.464 31.114,13.401 30.306,15.644 32.579,14.921 34.462,16.384 
	34.478,13.999 36.448,12.658 34.186,11.906 "/>
<polygon fill="#003366" points="18.167,19.893 16.815,19.495 16.376,18.158 15.581,19.32 14.172,19.325 15.032,20.439 14.603,21.78 
	15.929,21.307 17.07,22.13 17.029,20.724 "/>
<polygon fill="#003366" points="16.342,24.473 14.471,24.302 13.549,22.664 12.81,24.391 10.964,24.76 12.379,25.998 12.16,27.865 
	13.774,26.904 15.483,27.687 15.067,25.856 "/>
<polygon fill="#003366" points="14.788,30.297 13.38,30.337 12.549,29.201 12.152,30.552 10.813,30.992 11.977,31.786 
	11.982,33.194 13.097,32.334 14.437,32.764 13.964,31.439 "/>
<polygon fill="#003366" points="49.562,35.16 48.443,34.831 48.08,33.726 47.422,34.687 46.256,34.69 46.968,35.613 46.612,36.722 
	47.71,36.331 48.654,37.012 48.62,35.849 "/>
<polygon fill="#003366" points="47.821,39.117 46.292,38.889 45.611,37.501 44.922,38.886 43.391,39.104 44.495,40.187 
	44.23,41.709 45.602,40.994 46.968,41.717 46.71,40.193 "/>
<g>
	<g>
		<path fill="#003366" d="M30,0C13.455,0,0,13.456,0,30c0,16.541,13.455,30,30,30c16.542,0,30-13.459,30-30C60,13.456,46.542,0,30,0
			z M30,58.653C14.199,58.653,1.348,45.799,1.348,30v-0.001h2.828c0.001-1.04,0.061-2.081,0.188-3.111l-2.808-0.34
			c0.141-1.157,0.349-2.294,0.623-3.404l2.74,0.674c0.249-1.011,0.559-2.006,0.928-2.978L3.21,19.839
			c0.413-1.084,0.89-2.137,1.426-3.154l2.493,1.313c0.483-0.923,1.023-1.813,1.615-2.667L6.43,13.728
			c0.658-0.95,1.37-1.857,2.136-2.719l2.104,1.866c0.69-0.778,1.428-1.514,2.207-2.203l-1.868-2.107
			c0.862-0.764,1.77-1.478,2.719-2.135l1.602,2.313c0.855-0.589,1.747-1.13,2.667-1.614l-1.313-2.493
			c1.019-0.536,2.072-1.013,3.156-1.426l1.002,2.638c0.97-0.367,1.968-0.679,2.978-0.927l-0.675-2.742
			c1.11-0.274,2.246-0.483,3.403-0.623l0.338,2.808C27.919,4.238,28.961,4.176,30,4.176V1.347c1.167,0,2.319,0.072,3.45,0.209
			l-0.338,2.808c1.032,0.121,2.057,0.31,3.068,0.558l0.674-2.743c1.13,0.278,2.232,0.624,3.305,1.032l-1.001,2.638
			c0.973,0.368,1.922,0.797,2.846,1.281l1.31-2.494c1.023,0.539,2.01,1.139,2.957,1.793L44.67,8.743
			c0.855,0.593,1.673,1.237,2.455,1.929l1.866-2.106c0.861,0.764,1.677,1.58,2.442,2.442l-2.104,1.867
			c0.688,0.779,1.332,1.6,1.925,2.455l2.316-1.603c0.654,0.946,1.254,1.934,1.794,2.957l-2.494,1.313
			c0.481,0.922,0.912,1.87,1.28,2.843l2.639-1.001c0.408,1.072,0.754,2.175,1.031,3.305l-2.742,0.674
			c0.247,1.012,0.436,2.036,0.558,3.07l2.808-0.34c0.138,1.132,0.209,2.283,0.209,3.452C58.652,45.799,45.798,58.653,30,58.653z"/>
	</g>
	<path fill="#003366" d="M30,8.262c11.987,0,21.738,9.75,21.738,21.738c0,11.986-9.751,21.738-21.738,21.738
		C18.012,51.738,8.262,41.986,8.262,30C8.262,18.012,18.012,8.262,30,8.262 M30,6.987C17.311,6.987,6.986,17.311,6.986,30
		c0,12.69,10.324,23.013,23.014,23.013c12.69,0,23.014-10.322,23.014-23.013C53.014,17.311,42.69,6.987,30,6.987L30,6.987z"/>
	<polygon fill="#003366" points="7.697,37.845 6.279,36.817 6.971,35.208 6.389,33.1 2.29,33.662 2.871,35.771 4.729,35.516 
		4.168,37.397 5.615,38.728 3.887,39.461 4.469,41.57 8.278,39.952 	"/>
	<path fill="#003366" d="M16.95,49.825l-1.383-0.932l-0.458-0.306l-1.37-0.923l-2.391,3.304l1.827,1.229l1.754-2.423l0.996,0.67
		c0.334,0.226,0.252,0.891-0.26,0.956c-0.512,0.064-1.077-0.218-1.077-0.218l0.413,2.243l2.055,1.382l-0.344-1.867
		c0,0,1.265,0.127,1.743-0.533C19.148,51.45,17.864,50.439,16.95,49.825z"/>
	<polygon fill="#003366" points="19.816,55.77 21.707,56.438 22.975,52.935 21.083,52.268 	"/>
	<g>
		<path fill="#003366" d="M28.085,53.633c-1.807-0.143-3.365,0.687-3.478,1.85c-0.111,1.163,1.264,2.219,3.072,2.36
			c1.809,0.141,3.367-0.686,3.479-1.851C31.271,54.829,29.895,53.773,28.085,53.633z M27.822,56.357
			c-0.531-0.041-0.936-0.354-0.903-0.695c0.034-0.342,0.491-0.585,1.023-0.543c0.532,0.041,0.937,0.352,0.902,0.693
			C28.812,56.154,28.354,56.399,27.822,56.357z"/>
	</g>
	<polygon fill="#003366" points="11.1,44.452 10.774,44.024 9.799,42.742 5.653,44.018 6.954,45.729 10.271,44.707 8.255,47.439 
		9.555,49.15 12.075,45.735 	"/>
	<polygon fill="#003366" points="40.962,51.441 38.58,52.201 37.363,54.522 36.728,52.794 34.612,53.47 35.972,57.173 
		38.087,56.498 37.453,54.77 39.939,55.905 42.321,55.145 39.656,53.927 	"/>
	<polygon fill="#003366" points="44.749,48.734 44.313,49.058 43.004,50.029 44.456,53.963 46.202,52.669 45.04,49.521 
		47.948,51.373 49.693,50.078 46.057,47.765 	"/>
	<path fill="#003366" d="M52.809,40.844c-1.01-0.652-2.026,0.623-2.643,1.528l-0.934,1.373l-0.308,0.453l-0.923,1.357l3.483,2.253
		l1.23-1.811l-2.554-1.652l0.672-0.987c0.224-0.332,0.916-0.268,0.996,0.229c0.08,0.496-0.199,1.056-0.199,1.056l2.316-0.458
		l1.385-2.036l-1.93,0.38C53.402,42.529,53.506,41.293,52.809,40.844z"/>
	<polygon fill="#003366" points="54.975,32.571 53.932,32.337 53.457,34.405 52.984,36.472 52.508,38.539 53.55,38.775 
		54.025,36.708 56.891,37.355 57.365,35.287 54.5,34.64 	"/>
	<path fill="#003366" d="M53.004,30c0-0.94-0.059-1.867-0.169-2.778l2.802-0.335c-0.121-1.033-0.308-2.059-0.557-3.069l-2.745,0.675
		c-0.224-0.905-0.501-1.79-0.827-2.648l2.646-1.004c-0.369-0.973-0.797-1.921-1.282-2.843l-2.505,1.317
		c-0.434-0.82-0.914-1.613-1.44-2.373l2.331-1.611c-0.592-0.856-1.239-1.677-1.926-2.455l-2.121,1.881
		c-0.615-0.694-1.271-1.352-1.965-1.966l1.878-2.119c-0.777-0.69-1.597-1.337-2.452-1.929l-1.611,2.333
		c-0.76-0.526-1.552-1.008-2.373-1.44l1.317-2.508c-0.92-0.483-1.872-0.912-2.845-1.28l-1.002,2.646
		c-0.858-0.328-1.745-0.605-2.649-0.829l0.674-2.745c-1.009-0.248-2.035-0.437-3.066-0.557l-0.339,2.803
		C31.865,7.055,30.939,6.997,30,6.997V4.174c-1.038,0-2.079,0.063-3.112,0.188l0.337,2.803c-0.929,0.112-1.84,0.279-2.731,0.499
		l-0.674-2.745c-1.008,0.249-2.005,0.56-2.977,0.928l1.002,2.646c-0.869,0.331-1.713,0.713-2.53,1.143l-1.316-2.508
		c-0.919,0.485-1.811,1.026-2.669,1.615l1.612,2.333c-0.763,0.528-1.491,1.101-2.184,1.715l-1.883-2.119
		c-0.776,0.688-1.513,1.425-2.204,2.204l2.12,1.881c-0.614,0.692-1.188,1.422-1.716,2.186L8.746,15.33
		c-0.591,0.853-1.131,1.744-1.616,2.667l2.505,1.317c-0.429,0.815-0.811,1.659-1.14,2.528L5.85,20.84
		c-0.369,0.971-0.68,1.967-0.928,2.978l2.744,0.674c-0.219,0.892-0.388,1.803-0.5,2.73l-2.802-0.335
		c-0.126,1.031-0.183,2.072-0.186,3.112L1.348,30c0-1.169,0.072-2.32,0.209-3.453l2.808,0.34c0.123-1.033,0.312-2.059,0.558-3.069
		L2.18,23.144c0.277-1.131,0.623-2.232,1.031-3.305L5.85,20.84c0.369-0.973,0.797-1.921,1.28-2.843l-2.494-1.313
		c0.54-1.023,1.141-2.012,1.796-2.959l2.314,1.604c0.593-0.856,1.236-1.677,1.925-2.455l-2.104-1.868
		c0.765-0.862,1.58-1.679,2.442-2.442l1.865,2.106c0.782-0.69,1.602-1.337,2.454-1.929L13.73,6.427
		c0.946-0.654,1.933-1.254,2.956-1.793l1.312,2.493c0.922-0.483,1.872-0.912,2.845-1.28L19.84,3.208
		c1.073-0.407,2.178-0.753,3.307-1.031l0.673,2.742c1.012-0.248,2.036-0.437,3.068-0.557L26.55,1.555
		c1.132-0.137,2.283-0.208,3.45-0.208v2.827c1.041,0,2.082,0.063,3.115,0.188l0.338-2.808c1.157,0.14,2.293,0.349,3.403,0.622
		l-0.675,2.742c1.01,0.249,2.008,0.56,2.978,0.928l1.002-2.639c1.085,0.413,2.138,0.891,3.157,1.427l-1.314,2.492
		c0.92,0.485,1.812,1.026,2.667,1.615l1.602-2.314c0.949,0.658,1.857,1.371,2.719,2.136l-1.868,2.107
		c0.779,0.688,1.517,1.425,2.208,2.204l2.104-1.867c0.765,0.862,1.479,1.77,2.136,2.718l-2.314,1.604
		c0.591,0.853,1.131,1.744,1.614,2.667l2.494-1.313c0.537,1.017,1.012,2.07,1.425,3.154l-2.637,1.001
		c0.368,0.971,0.679,1.967,0.927,2.978l2.742-0.674c0.273,1.11,0.482,2.246,0.621,3.403l-2.807,0.34
		c0.127,1.031,0.187,2.072,0.188,3.112L53.004,30z"/>
</g>
<path fill="#003366" d="M34.447,18.669"/>
<path fill="#003366" d="M34.441,18.666"/>
<g>
	<path fill="none" d="M37.271,31.675c0.637,0.192,1.255,0.483,1.801,0.867c-0.537-0.389-1.154-0.681-1.798-0.872
		C37.273,31.671,37.272,31.673,37.271,31.675z"/>
	<path fill="#64AE34" d="M42.496,25.167c-0.976-1.058-2.201-1.663-3.856-1.904c-0.074-0.011-0.146-0.024-0.217-0.038
		c-0.074-0.014-0.148-0.023-0.223-0.034c-0.037-0.005-0.073-0.014-0.113-0.017l-0.093-0.011c-0.261-0.026-0.469-0.06-0.634-0.103
		l-0.187-0.047l0.146-0.125c0.18-0.154,0.369-0.328,0.567-0.513c0.119-0.112,0.238-0.223,0.37-0.351
		c0.03-0.029,0.058-0.062,0.087-0.091c1.649-1.626,3.135-3.563,4.378-5.268l-3.44-2.115c-0.653,3.249-1.346,4.905-2.109,6.485
		c-0.041,0.084-0.081,0.168-0.122,0.252c-0.052,0.106-0.104,0.215-0.157,0.322c-0.043,0.087-0.087,0.18-0.131,0.27
		c-0.074,0.152-0.147,0.302-0.222,0.457l-0.053,0.109c-0.095-0.185-0.216-0.353-0.324-0.529c-0.316-0.516-0.671-1.007-1.097-1.446
		c-0.233-0.241-0.479-0.474-0.744-0.688c-0.668-0.539-1.403-0.958-2.185-1.263c-0.962-0.376-1.993-0.577-3.067-0.577
		c-2.732,0-5.309,1.251-7.067,3.432c-0.062,0.076-0.113,0.157-0.172,0.234c-0.368,0.435-0.702,0.901-0.986,1.408
		c-1.068,1.903-1.45,4.001-1.854,6.222c-0.018,0.094-0.035,0.188-0.053,0.282c-0.062,0.335-0.122,0.671-0.188,1.005
		c-0.675,3.458-1.563,5.94-2.881,8.051c-0.117,0.187-0.248,0.394-0.303,0.544c0.182,0.113,0.541,0.256,0.669,0.306
		c0.106,0.042,0.194,0.077,0.256,0.105c1.237,0.566,2.647,1.053,4.437,1.531c2.929,0.781,5.811,1.135,8.562,1.092
		c0.153-0.002,0.312,0.009,0.464,0.004c1.095-0.039,2.431-0.193,3.479-0.357c0.026-0.003,0.075-0.015,0.126-0.028l-0.003-0.024
		l0.011,0.022c0.008-0.002,0.015-0.004,0.021-0.006l0.139-0.036c0.016-0.004,0.015-0.006,0.027-0.009
		c0.106-0.026,0.121-0.042,0.121-0.098c0-0.044-0.021-0.084-0.063-0.118c-0.031-0.014-0.063-0.027-0.095-0.043l-0.063-0.027
		c-1.628-0.672-3.213-2.007-3.546-3.632c-0.073-0.358-0.104-0.717-0.099-1.07c0.009-0.464,0.088-0.919,0.222-1.356
		c0.565-1.854,2.186-3.383,4.328-3.822c0.4-0.082,0.808-0.123,1.211-0.123c0.042,0,0.084,0.01,0.125,0.012
		c0.464,0.012,0.927,0.094,1.377,0.228c0.644,0.191,1.261,0.483,1.798,0.872c1.262,0.888,2.148,2.205,2.038,3.575
		c-0.075,0.932-0.314,1.634-0.821,2.493l-0.03,0.089c-0.004,0.047,0.005,0.085,0.024,0.105c0.029,0.03,0.089,0.037,0.135,0.037
		c0.007,0,0.023-0.012,0.034-0.017c0.328-0.296,0.646-0.607,0.943-0.942c1.318-1.481,2.228-3.202,2.665-4.984
		c0.163-0.663,0.266-1.333,0.292-2.005c0.039-1.001-0.088-1.948-0.355-2.82C43.732,27.018,43.268,26.004,42.496,25.167z"/>
	<path fill="#000D49" d="M44.429,25.852c-0.422-0.711-0.939-1.36-1.565-1.917c-0.704-0.626-1.503-1.11-2.371-1.457
		c-0.242-0.097-0.489-0.183-0.742-0.257c1.579-1.656,3.011-3.56,4.324-5.375c0.098-0.136,0.135-0.307,0.102-0.469
		c-0.032-0.164-0.133-0.308-0.273-0.394l-4.734-2.912c-0.167-0.102-0.381-0.116-0.559-0.036c-0.18,0.08-0.309,0.244-0.346,0.439
		c-0.631,3.462-1.285,5.143-1.908,6.481c-0.369-0.425-0.771-0.825-1.217-1.186c-0.337-0.272-0.693-0.512-1.058-0.733
		c-0.042-0.026-0.084-0.053-0.127-0.079c-1.467-0.861-3.129-1.316-4.884-1.316c-3.128,0-6.072,1.428-8.079,3.916
		c-0.449,0.557-0.813,1.157-1.135,1.776c-0.02,0.033-0.042,0.063-0.061,0.096c-0.057,0.101-0.104,0.205-0.157,0.308
		c-1.04,1.996-1.444,4.174-1.829,6.286c-0.076,0.425-0.154,0.85-0.236,1.272c-0.645,3.306-1.498,5.687-2.768,7.72
		c-0.205,0.323-0.484,0.766-0.465,1.271c0.029,0.694,0.855,1.019,1.457,1.256l0.025,0.01c0.068,0.027,0.127,0.05,0.168,0.069
		c1.303,0.596,2.773,1.104,4.629,1.6c2.867,0.765,5.69,1.153,8.392,1.153c0.328,0,0.659-0.006,0.984-0.018
		c0.944-0.033,2.203-0.181,3.211-0.324c0.222-0.031,0.447-0.063,0.637-0.093l0.057-0.015c0.575-0.062,1.55-0.289,1.678-0.868
		c0.006-0.025,0.013-0.05,0.02-0.074c0.018-0.066,0.036-0.135,0.036-0.214c0-0.104-0.016-0.205-0.039-0.304
		c-0.08-0.333-0.399-0.699-0.776-0.845l-0.702-0.296c-0.3-0.123-0.589-0.28-0.855-0.468c-0.818-0.585-1.785-1.377-1.975-2.297
		c-0.076-0.373-0.074-0.748-0.036-1.119c0.055-0.544,0.23-1.072,0.521-1.567c0.069-0.12,0.127-0.243,0.21-0.358
		c0.665-0.915,1.667-1.551,2.823-1.787c0.021-0.004,0.041-0.002,0.061-0.006c0.301-0.059,0.605-0.094,0.907-0.094
		c0.269,0,0.538,0.031,0.805,0.084c1.759,0.346,3.356,1.763,3.188,3.374c-0.063,0.597-0.528,1.806-0.883,2.628
		c-0.035,0.081-0.097,0.306-0.097,0.342c0,0.305,0.112,0.588,0.305,0.825c0.088,0.108,0.187,0.21,0.309,0.294
		c0.25,0.172,0.523,0.195,0.757,0.195c0.275,0,0.535-0.092,0.824-0.295c0.001,0,0.001,0,0.002-0.001l0.015-0.013l0.08-0.07
		l0.148-0.132l-0.001-0.001c0.001-0.001,0.003-0.002,0.004-0.004c0.396-0.348,0.783-0.709,1.14-1.109
		c2.008-2.256,3.175-5.027,3.285-7.802C45.727,29.048,45.294,27.309,44.429,25.852z M44.061,32.898
		c-0.438,1.782-1.347,3.503-2.665,4.984c-0.298,0.335-0.615,0.646-0.943,0.942c-0.011,0.005-0.027,0.017-0.034,0.017
		c-0.046,0-0.105-0.007-0.135-0.037c-0.02-0.021-0.028-0.059-0.024-0.105l0.03-0.089c0.507-0.859,0.746-1.562,0.821-2.493
		c0.11-1.37-0.776-2.688-2.038-3.575c-0.546-0.384-1.164-0.675-1.801-0.867c0.001-0.002,0.002-0.004,0.003-0.005
		c-0.45-0.134-0.913-0.216-1.377-0.228c-0.041-0.002-0.083-0.012-0.125-0.012c-0.403,0-0.811,0.041-1.211,0.123
		c-2.143,0.439-3.763,1.969-4.328,3.822c-0.134,0.438-0.213,0.893-0.222,1.356c-0.006,0.354,0.025,0.712,0.099,1.07
		c0.333,1.625,1.918,2.96,3.546,3.632l0.063,0.027c0.031,0.016,0.063,0.029,0.095,0.043c0.041,0.034,0.063,0.074,0.063,0.118
		c0,0.056-0.133,0.103-0.148,0.106c0,0-0.152,0.04-0.16,0.042c0,0-0.107,0.027-0.134,0.03c-1.049,0.164-2.385,0.318-3.479,0.357
		c-0.152,0.005-0.311-0.006-0.464-0.004c-2.751,0.043-5.633-0.311-8.562-1.092c-1.789-0.479-3.199-0.965-4.437-1.531
		c-0.062-0.028-0.149-0.063-0.256-0.105c-0.128-0.05-0.487-0.192-0.669-0.306c0.055-0.15,0.186-0.357,0.303-0.544
		c1.317-2.11,2.206-4.593,2.881-8.051c0.065-0.334,0.126-0.669,0.188-1.005c0.018-0.094,0.035-0.188,0.053-0.282
		c0.403-2.221,0.785-4.318,1.854-6.222c0.284-0.507,0.618-0.974,0.986-1.408c0.059-0.078,0.11-0.159,0.172-0.234
		c1.759-2.181,4.335-3.432,7.067-3.432c1.074,0,2.105,0.201,3.067,0.577c0.781,0.305,1.517,0.724,2.185,1.263
		c0.266,0.214,0.511,0.446,0.744,0.688c0.426,0.439,0.78,0.931,1.097,1.446c0.108,0.176,0.229,0.345,0.324,0.529l0.053-0.109
		c0.074-0.155,0.147-0.305,0.222-0.457c0.044-0.09,0.088-0.183,0.131-0.27c0.053-0.107,0.105-0.216,0.157-0.322
		c0.041-0.084,0.081-0.168,0.122-0.252c0.764-1.58,1.456-3.236,2.109-6.485l3.44,2.115c-1.243,1.705-2.729,3.642-4.378,5.268
		c-0.029,0.029-0.057,0.062-0.087,0.091c-0.132,0.128-0.251,0.239-0.37,0.351c-0.198,0.186-0.388,0.359-0.567,0.513l-0.146,0.125
		l0.187,0.047c0.165,0.043,0.373,0.076,0.634,0.103l0.093,0.011c0.04,0.003,0.076,0.012,0.113,0.017
		c0.074,0.01,0.148,0.02,0.223,0.034c0.071,0.014,0.143,0.027,0.217,0.038c1.655,0.241,2.881,0.847,3.856,1.904
		c0.771,0.837,1.236,1.851,1.501,2.906c0.268,0.873,0.395,1.819,0.355,2.82C44.326,31.565,44.224,32.235,44.061,32.898z"/>
</g>
</svg>
