<?xml version="1.0" encoding="utf-8"?>
<!-- Generator: Adobe Illustrator 16.2.0, SVG Export Plug-In . SVG Version: 6.00 Build 0)  -->
<!DOCTYPE svg PUBLIC "-//W3C//DTD SVG 1.1//EN" "http://www.w3.org/Graphics/SVG/1.1/DTD/svg11.dtd">
<svg version="1.1" id="レイヤー_1" xmlns="http://www.w3.org/2000/svg" xmlns:xlink="http://www.w3.org/1999/xlink" x="0px"
	 y="0px" width="60px" height="60px" viewBox="0 0 60 60" enable-background="new 0 0 60 60" xml:space="preserve">
<g>
	<path fill="#003366" d="M46.066,33.027c0.015-0.35-0.016-0.75-0.148-1.162c-0.377-1.174-1.279-1.498-1.279-1.498
		s-0.547,0.789-0.169,1.964c0.278,0.867,0.897,1.438,1.202,1.678c-0.259,0.611-0.558,1.256-0.904,1.922
		c0.041-0.424,0.027-0.986-0.191-1.557c-0.438-1.154-1.355-1.428-1.355-1.428s-0.504,0.814-0.066,1.969
		c0.325,0.854,0.976,1.391,1.292,1.613c-0.37,0.67-0.788,1.357-1.257,2.055c0.056-0.434,0.066-1.059-0.176-1.695
		c-0.439-1.154-1.357-1.43-1.357-1.43s-0.503,0.816-0.063,1.971c0.321,0.846,0.961,1.381,1.28,1.607
		c-0.516,0.73-1.09,1.469-1.731,2.203c0.126-0.473,0.228-1.176,0.041-1.928c-0.329-1.332-1.306-1.758-1.306-1.758
		s-0.664,0.834-0.336,2.164c0.244,0.988,0.893,1.67,1.211,1.957c-0.643,0.705-1.351,1.406-2.125,2.092
		c0.194-0.477,0.426-1.271,0.295-2.164c-0.212-1.439-1.199-1.99-1.199-1.99s-0.788,0.811-0.577,2.252
		c0.163,1.111,0.82,1.918,1.112,2.229c-0.518,0.443-1.066,0.879-1.646,1.305l-0.032,0.023c-0.084,0.063-0.102,0.182-0.041,0.268
		c0.027,0.037,0.066,0.061,0.107,0.07c0.053,0.014,0.109,0.004,0.159-0.031l0.032-0.021c0.209-0.156,0.41-0.313,0.611-0.469
		c0.344,0.262,1.387,0.967,2.738,1c1.662,0.043,2.475-0.963,2.475-0.963s-0.762-1.043-2.423-1.086
		c-0.809-0.02-1.518,0.205-2.033,0.441c0.645-0.537,1.248-1.082,1.808-1.637c0.342,0.238,1.311,0.832,2.535,0.82
		c1.531-0.016,2.246-0.965,2.246-0.965s-0.732-0.938-2.264-0.924c-0.826,0.01-1.529,0.291-2.004,0.547
		c0.586-0.609,1.124-1.227,1.619-1.842c0.357,0.193,1.28,0.613,2.37,0.488c1.401-0.16,1.966-1.1,1.966-1.1s-0.762-0.787-2.165-0.627
		c-0.709,0.082-1.296,0.373-1.705,0.641c0.451-0.594,0.866-1.186,1.241-1.77c0.332,0.115,1.264,0.371,2.26,0.076
		c1.245-0.371,1.607-1.314,1.607-1.314s-0.818-0.592-2.064-0.223c-0.604,0.18-1.076,0.518-1.403,0.818
		c0.401-0.666,0.757-1.32,1.071-1.951c0.35,0.072,1.299,0.211,2.248-0.203c1.189-0.518,1.433-1.498,1.433-1.498
		S48.121,33.48,46.931,34c-0.554,0.242-0.968,0.611-1.255,0.939c0.307-0.668,0.564-1.303,0.786-1.898
		c0.329-0.02,1.313-0.135,2.138-0.813c1.003-0.826,0.968-1.835,0.968-1.835s-0.984-0.227-1.987,0.6
		c-0.287,0.236-0.509,0.505-0.682,0.769c0.126-0.408,0.234-0.786,0.322-1.13c0.273-0.353,0.699-1.023,0.785-1.891
		c0.129-1.292-0.606-1.983-0.606-1.983s-0.858,0.533-0.985,1.825c-0.09,0.895,0.218,1.664,0.417,2.053
		C46.652,31.314,46.404,32.127,46.066,33.027z"/>
	<polygon fill="#003366" points="40.688,19.173 41.242,20.696 42.114,19.329 43.736,19.269 42.703,18.018 43.15,16.456 
		41.64,17.054 40.293,16.145 40.393,17.766 39.114,18.766 	"/>
	<polygon fill="#003366" points="43.885,23.042 44.098,24.239 44.922,23.34 46.128,23.51 45.527,22.448 46.061,21.353 
		44.867,21.597 43.989,20.749 43.852,21.961 42.775,22.535 	"/>
	<path fill="#000D49" d="M14.631,25.096c0.009,0.202,0.119,0.386,0.295,0.489l13.465,7.831l-3.785,16.102
		c-0.063,0.264,0.063,0.537,0.303,0.662c0.09,0.047,0.182,0.068,0.275,0.068c0.164,0,0.328-0.07,0.445-0.201l18.152-20.413
		c0.111-0.124,0.164-0.286,0.149-0.452c-0.017-0.164-0.101-0.316-0.231-0.415l-9.803-7.471l2.254-10.371
		c0.049-0.238-0.049-0.484-0.253-0.619c-0.202-0.135-0.47-0.131-0.671,0.008L14.885,24.583C14.717,24.7,14.622,24.894,14.631,25.096
		z"/>
	<path fill="#FEF81D" d="M34.666,12.159l-1.904,8.766c-0.045-0.031-0.088-0.063-0.134-0.093l-1.091-0.746l0.18-0.461
		c0.07-0.174,0.121-0.357,0.184-0.535l0.18-0.538c0.102-0.366,0.219-0.728,0.302-1.102c0.047-0.187,0.091-0.374,0.124-0.565
		c0.041-0.188,0.064-0.384,0.093-0.579l0.003-0.012c0.003-0.018-0.006-0.035-0.023-0.045c-0.02-0.007-0.044-0.001-0.055,0.02
		l-1.953,4.062c-0.014,0.032-0.006,0.071,0.024,0.094l2.522,1.768l9.352,7.13L26.3,47.508l3.347-14.248
		c0.063-0.254-0.054-0.52-0.279-0.648l-13.041-7.586L34.666,12.159z"/>
	<path fill="#000D49" d="M29.92,39.131c-0.006,0.016,0.001,0.037,0.018,0.047c0.021,0.012,0.047,0.006,0.059-0.016L30,39.154
		c0.18-0.32,0.35-0.646,0.51-0.973c0.158-0.328,0.307-0.658,0.461-0.988l0.427-0.996c0.136-0.334,0.264-0.672,0.396-1.008
		c0.135-0.332,0.256-0.672,0.377-1.012l0.359-1.018l0.327-1.027c0.106-0.346,0.228-0.682,0.319-1.031l0.009-0.029
		c0.097-0.361-0.088-0.744-0.442-0.888l-1.661-0.68c-0.556-0.223-1.104-0.453-1.665-0.667l-1.675-0.647
		c-0.556-0.22-1.12-0.417-1.683-0.625c-0.563-0.204-1.121-0.417-1.688-0.609c-0.568-0.196-1.133-0.397-1.699-0.586
		c-0.572-0.183-1.139-0.379-1.713-0.554c-0.574-0.181-1.151-0.353-1.73-0.515l-0.004-0.003c-0.021-0.003-0.044,0.007-0.051,0.024
		c-0.011,0.022,0.001,0.048,0.021,0.059l13.152,5.551L29.92,39.131z"/>
	<polygon fill="#003366" points="24.914,14.977 25.816,13.899 27.213,14.029 26.467,12.841 27.023,11.548 25.661,11.892 
		24.606,10.963 24.51,12.367 23.301,13.083 24.606,13.606 	"/>
	<polygon fill="#003366" points="15.469,19.816 16.229,21 16.705,19.676 18.064,19.323 16.954,18.458 17.037,17.056 15.875,17.845 
		14.563,17.332 14.953,18.68 14.063,19.767 	"/>
	<path fill="#003366" d="M17.851,40.631c0.495,0.615,1.032,1.232,1.62,1.844c-0.475-0.258-1.18-0.539-2.006-0.549
		c-1.53-0.014-2.266,0.924-2.266,0.924s0.717,0.949,2.247,0.965c1.226,0.012,2.196-0.582,2.536-0.82
		c0.561,0.555,1.164,1.1,1.809,1.637c-0.516-0.236-1.225-0.461-2.033-0.441c-1.662,0.043-2.423,1.086-2.423,1.086
		s0.812,1.006,2.474,0.963c1.352-0.033,2.396-0.738,2.738-1c0.202,0.156,0.404,0.313,0.612,0.469l0.032,0.021
		c0.047,0.035,0.105,0.045,0.158,0.031c0.041-0.01,0.08-0.033,0.107-0.07c0.061-0.086,0.042-0.205-0.043-0.268l-0.029-0.023
		c-0.58-0.426-1.128-0.861-1.646-1.305c0.293-0.311,0.949-1.115,1.111-2.229c0.213-1.441-0.576-2.252-0.576-2.252
		s-0.986,0.551-1.199,1.99c-0.13,0.893,0.102,1.688,0.295,2.166c-0.773-0.688-1.482-1.387-2.125-2.094
		c0.318-0.287,0.965-0.969,1.211-1.957c0.328-1.33-0.336-2.164-0.336-2.164s-0.977,0.426-1.307,1.758
		c-0.186,0.752-0.083,1.457,0.043,1.928c-0.643-0.734-1.217-1.473-1.732-2.203c0.318-0.225,0.959-0.762,1.281-1.607
		c0.439-1.154-0.064-1.971-0.064-1.971s-0.92,0.275-1.357,1.43c-0.242,0.637-0.232,1.262-0.175,1.695
		c-0.472-0.697-0.888-1.385-1.257-2.055c0.316-0.223,0.965-0.76,1.291-1.613c0.438-1.154-0.066-1.969-0.066-1.969
		s-0.918,0.273-1.356,1.428c-0.217,0.57-0.231,1.133-0.19,1.555c-0.348-0.666-0.646-1.309-0.905-1.92
		c0.305-0.24,0.923-0.811,1.204-1.678c0.377-1.176-0.17-1.964-0.17-1.964s-0.902,0.323-1.279,1.498
		c-0.133,0.412-0.162,0.814-0.147,1.164c-0.339-0.902-0.587-1.715-0.765-2.394c0.197-0.389,0.506-1.158,0.418-2.053
		c-0.129-1.292-0.986-1.825-0.986-1.825s-0.736,0.691-0.607,1.983c0.086,0.867,0.511,1.537,0.783,1.891
		c0.09,0.344,0.197,0.722,0.324,1.13c-0.174-0.264-0.395-0.533-0.682-0.769c-1.004-0.826-1.986-0.6-1.986-0.6
		s-0.035,1.009,0.969,1.835c0.822,0.678,1.807,0.793,2.137,0.813c0.22,0.596,0.479,1.23,0.785,1.896
		c-0.287-0.326-0.701-0.695-1.254-0.938c-1.192-0.52-2.074-0.031-2.074-0.031s0.24,0.98,1.433,1.498
		c0.948,0.414,1.897,0.275,2.247,0.203c0.314,0.631,0.67,1.285,1.072,1.951c-0.328-0.301-0.8-0.639-1.404-0.818
		c-1.246-0.369-2.064,0.223-2.064,0.223s0.363,0.943,1.608,1.314c0.996,0.295,1.927,0.039,2.259-0.076
		c0.375,0.584,0.791,1.176,1.242,1.77c-0.41-0.268-0.996-0.559-1.707-0.641c-1.4-0.16-2.163,0.627-2.163,0.627
		s0.563,0.939,1.966,1.1C16.568,41.244,17.492,40.824,17.851,40.631z"/>
	<polygon fill="#003366" points="19.307,16.211 20.027,17.938 20.961,16.317 22.826,16.165 21.57,14.775 22.002,12.954 
		20.294,13.719 18.697,12.745 18.896,14.607 17.476,15.826 	"/>
	<g>
		<g>
			<path fill="#003366" d="M30,0C13.455,0,0,13.457,0,30c0,16.541,13.455,30,30,30c16.541,0,30-13.459,30-30
				C60,13.457,46.541,0,30,0z M30,58.652C14.199,58.652,1.348,45.799,1.348,30V30h2.828c0-1.04,0.061-2.082,0.188-3.112l-2.807-0.34
				c0.141-1.157,0.348-2.293,0.623-3.404l2.74,0.674c0.248-1.011,0.559-2.006,0.928-2.978l-2.639-1
				c0.414-1.084,0.891-2.137,1.426-3.154l2.494,1.313c0.482-0.923,1.023-1.813,1.615-2.667L6.43,13.728
				c0.658-0.95,1.369-1.857,2.135-2.719l2.105,1.867c0.689-0.778,1.428-1.514,2.207-2.204l-1.869-2.107
				c0.863-0.764,1.77-1.478,2.719-2.135l1.602,2.313c0.855-0.589,1.748-1.129,2.668-1.614l-1.314-2.493
				c1.02-0.536,2.072-1.013,3.156-1.426l1.002,2.638c0.971-0.367,1.969-0.679,2.979-0.926l-0.676-2.743
				c1.111-0.274,2.246-0.483,3.404-0.623l0.338,2.808C27.918,4.238,28.961,4.176,30,4.176V1.347c1.166,0,2.318,0.072,3.449,0.208
				l-0.338,2.808c1.033,0.121,2.057,0.31,3.068,0.558l0.674-2.744c1.131,0.278,2.232,0.624,3.305,1.032l-1,2.638
				c0.973,0.369,1.922,0.797,2.846,1.281l1.309-2.494c1.023,0.539,2.01,1.139,2.957,1.793l-1.6,2.315
				c0.855,0.593,1.672,1.238,2.455,1.929l1.865-2.106c0.861,0.764,1.678,1.58,2.443,2.442l-2.105,1.868
				c0.689,0.779,1.332,1.6,1.926,2.455l2.316-1.603c0.654,0.946,1.254,1.934,1.793,2.958l-2.494,1.313
				c0.482,0.922,0.912,1.87,1.281,2.842l2.639-1.001c0.408,1.072,0.754,2.175,1.031,3.305l-2.742,0.674
				c0.246,1.011,0.436,2.036,0.557,3.07l2.809-0.34c0.137,1.132,0.209,2.284,0.209,3.453C58.652,45.799,45.797,58.652,30,58.652z"/>
		</g>
		<path fill="#003366" d="M30,8.262c11.986,0,21.738,9.75,21.738,21.739c0,11.986-9.752,21.738-21.738,21.738
			C18.012,51.738,8.262,41.986,8.262,30C8.262,18.012,18.012,8.262,30,8.262 M30,6.987C17.311,6.987,6.986,17.311,6.986,30
			c0,12.689,10.324,23.013,23.014,23.013S53.014,42.689,53.014,30C53.014,17.311,42.689,6.987,30,6.987L30,6.987z"/>
		<polygon fill="#003366" points="7.697,37.844 6.279,36.816 6.971,35.209 6.389,33.1 2.289,33.662 2.871,35.77 4.729,35.516 
			4.168,37.398 5.615,38.729 3.887,39.461 4.469,41.57 8.277,39.953 		"/>
		<path fill="#003366" d="M16.949,49.824l-1.383-0.93l-0.457-0.307l-1.371-0.922l-2.391,3.303l1.828,1.229l1.754-2.422l0.996,0.67
			c0.334,0.225,0.252,0.891-0.26,0.955c-0.512,0.066-1.078-0.217-1.078-0.217l0.414,2.242l2.055,1.383l-0.344-1.867
			c0,0,1.264,0.127,1.742-0.533C19.148,51.451,17.863,50.439,16.949,49.824z"/>
		<polygon fill="#003366" points="19.816,55.77 21.707,56.438 22.975,52.934 21.082,52.268 		"/>
		<g>
			<path fill="#003366" d="M28.084,53.633c-1.807-0.143-3.365,0.688-3.477,1.85c-0.111,1.164,1.264,2.219,3.072,2.361
				c1.809,0.141,3.367-0.688,3.479-1.852C31.27,54.83,29.895,53.773,28.084,53.633z M27.822,56.357
				c-0.531-0.041-0.936-0.354-0.904-0.695c0.035-0.342,0.492-0.584,1.023-0.543c0.533,0.041,0.938,0.352,0.902,0.693
				C28.811,56.154,28.354,56.398,27.822,56.357z"/>
		</g>
		<polygon fill="#003366" points="11.1,44.453 10.773,44.023 9.799,42.742 5.652,44.018 6.953,45.729 10.27,44.707 8.254,47.439 
			9.555,49.15 12.074,45.734 		"/>
		<polygon fill="#003366" points="40.961,51.441 38.58,52.201 37.363,54.521 36.727,52.793 34.611,53.471 35.971,57.174 
			38.086,56.498 37.453,54.77 39.939,55.904 42.32,55.145 39.656,53.928 		"/>
		<polygon fill="#003366" points="44.748,48.734 44.313,49.059 43.004,50.029 44.455,53.963 46.201,52.67 45.039,49.521 
			47.947,51.373 49.693,50.078 46.057,47.764 		"/>
		<path fill="#003366" d="M52.809,40.844c-1.01-0.652-2.027,0.623-2.643,1.529l-0.934,1.371l-0.309,0.453l-0.922,1.359l3.482,2.252
			l1.23-1.811l-2.553-1.652l0.672-0.988c0.223-0.332,0.916-0.268,0.996,0.23c0.08,0.496-0.199,1.055-0.199,1.055l2.316-0.457
			l1.385-2.037l-1.93,0.381C53.402,42.529,53.506,41.293,52.809,40.844z"/>
		<polygon fill="#003366" points="54.975,32.572 53.932,32.336 53.457,34.404 52.984,36.473 52.508,38.539 53.549,38.775 
			54.025,36.707 56.891,37.355 57.365,35.287 54.5,34.641 		"/>
		<path fill="#003366" d="M53.004,30c0-0.94-0.059-1.868-0.17-2.778l2.803-0.335c-0.121-1.033-0.309-2.058-0.557-3.069l-2.746,0.675
			c-0.223-0.905-0.5-1.79-0.826-2.649l2.645-1.004c-0.369-0.973-0.797-1.921-1.281-2.842l-2.506,1.317
			c-0.434-0.821-0.914-1.614-1.439-2.373l2.33-1.611c-0.592-0.857-1.238-1.677-1.926-2.456l-2.121,1.881
			c-0.615-0.694-1.271-1.352-1.965-1.966l1.879-2.119c-0.777-0.69-1.598-1.336-2.453-1.928l-1.611,2.333
			c-0.76-0.526-1.551-1.008-2.373-1.44l1.318-2.508c-0.92-0.483-1.873-0.912-2.846-1.28l-1.002,2.646
			c-0.857-0.328-1.744-0.605-2.648-0.829l0.674-2.745c-1.01-0.249-2.035-0.437-3.066-0.557l-0.34,2.802
			c-0.91-0.11-1.836-0.168-2.775-0.168V4.174c-1.039,0-2.08,0.063-3.113,0.188l0.338,2.802c-0.93,0.112-1.84,0.28-2.732,0.5
			l-0.674-2.745c-1.008,0.249-2.004,0.56-2.977,0.927l1.002,2.646c-0.869,0.331-1.713,0.713-2.529,1.143l-1.316-2.508
			c-0.92,0.485-1.811,1.026-2.67,1.616l1.613,2.333c-0.764,0.528-1.492,1.101-2.184,1.715l-1.883-2.119
			c-0.777,0.688-1.514,1.425-2.205,2.204l2.121,1.881c-0.615,0.693-1.188,1.422-1.717,2.186l-2.328-1.611
			c-0.592,0.853-1.131,1.744-1.617,2.667l2.506,1.317c-0.43,0.815-0.811,1.659-1.141,2.528L5.85,20.84
			c-0.369,0.971-0.68,1.967-0.928,2.978l2.744,0.674c-0.219,0.891-0.389,1.802-0.5,2.73l-2.803-0.335
			C4.238,27.918,4.182,28.959,4.178,30L1.348,30c0-1.17,0.072-2.321,0.209-3.454l2.807,0.34c0.123-1.033,0.313-2.058,0.559-3.069
			L2.18,23.144c0.277-1.13,0.623-2.232,1.031-3.305L5.85,20.84c0.369-0.973,0.797-1.921,1.279-2.842l-2.494-1.313
			c0.541-1.024,1.141-2.012,1.797-2.959l2.314,1.604c0.592-0.857,1.236-1.677,1.924-2.456l-2.104-1.868
			c0.766-0.862,1.58-1.678,2.443-2.442l1.865,2.106c0.781-0.69,1.602-1.336,2.453-1.928L13.73,6.427
			c0.945-0.655,1.932-1.254,2.955-1.793l1.313,2.493c0.922-0.483,1.871-0.912,2.844-1.28L19.84,3.208
			c1.072-0.408,2.178-0.753,3.307-1.031l0.672,2.742c1.012-0.249,2.037-0.437,3.068-0.557l-0.338-2.808
			C27.682,1.418,28.832,1.347,30,1.347v2.828c1.041,0,2.082,0.063,3.115,0.188l0.338-2.808c1.156,0.14,2.293,0.349,3.402,0.623
			l-0.674,2.742c1.01,0.249,2.008,0.56,2.977,0.927l1.002-2.638c1.086,0.413,2.139,0.89,3.158,1.426l-1.314,2.492
			c0.92,0.485,1.811,1.026,2.666,1.616l1.602-2.314c0.949,0.658,1.857,1.371,2.719,2.135l-1.867,2.107
			c0.779,0.688,1.516,1.425,2.207,2.204l2.105-1.867c0.764,0.862,1.479,1.77,2.135,2.718l-2.314,1.604
			c0.592,0.853,1.131,1.744,1.615,2.667l2.494-1.313c0.537,1.016,1.012,2.07,1.424,3.154l-2.637,1
			c0.369,0.971,0.68,1.967,0.928,2.978l2.742-0.674c0.273,1.11,0.482,2.246,0.621,3.403l-2.807,0.34
			c0.127,1.031,0.186,2.073,0.188,3.113L53.004,30z"/>
	</g>
</g>
</svg>
